<?xml version="1.0" encoding="utf-8"?>
<!-- Generator: Adobe Illustrator 24.0.1, SVG Export Plug-In . SVG Version: 6.00 Build 0)  -->
<svg version="1.1" id="Слой_1" xmlns="http://www.w3.org/2000/svg" xmlns:xlink="http://www.w3.org/1999/xlink" x="0px" y="0px"
	 viewBox="0 0 28.7 42" style="enable-background:new 0 0 28.7 42;" xml:space="preserve">
<style type="text/css">
	
		.st0{clip-path:url(#SVGID_2_);fill:none;stroke:#272527;stroke-width:2;stroke-linecap:round;stroke-linejoin:round;stroke-miterlimit:10;}
</style>
<g>
	<defs>
		<rect id="SVGID_1_" width="28.7" height="42"/>
	</defs>
	<clipPath id="SVGID_2_">
		<use xlink:href="#SVGID_1_"  style="overflow:visible;"/>
	</clipPath>
	<path class="st0" d="M6.2,16.6c0.5-0.2,1-0.3,1.6-0.3c2.6,0,4.7,2.1,4.7,4.7c0,2.6-2.1,4.7-4.7,4.7c-0.5,0-1.1-0.1-1.6-0.3"/>
	<path class="st0" d="M3.6,9.4c1.3-0.5,2.7-0.7,4.2-0.7c6.8,0,12.3,5.5,12.3,12.3c0,6.8-5.5,12.3-12.3,12.3c-1.4,0-2.8-0.2-4.1-0.7"
		/>
	<path class="st0" d="M1,2.2C3.1,1.4,5.4,1,7.7,1c11,0,20,9,20,20c0,11-9,20-20,20c-2.3,0-4.6-0.4-6.7-1.1"/>
</g>
</svg>
