<?xml version="1.0" encoding="utf-8"?>
<!-- Generator: Adobe Illustrator 24.0.1, SVG Export Plug-In . SVG Version: 6.00 Build 0)  -->
<svg version="1.1" id="Слой_1" xmlns="http://www.w3.org/2000/svg" xmlns:xlink="http://www.w3.org/1999/xlink" x="0px" y="0px"
	 viewBox="0 0 42 42.7" style="enable-background:new 0 0 42 42.7;" xml:space="preserve">
<style type="text/css">
	.st0{clip-path:url(#SVGID_2_);fill:none;stroke:#272527;stroke-width:2;stroke-miterlimit:10;}
	.st1{fill:none;stroke:#272527;stroke-width:2;stroke-miterlimit:10;}
	.st2{clip-path:url(#SVGID_4_);fill:none;stroke:#272527;stroke-width:2;stroke-miterlimit:10;}
	.st3{clip-path:url(#SVGID_6_);fill:none;stroke:#272527;stroke-width:2;stroke-miterlimit:10;}
</style>
<g>
	<defs>
		<rect id="SVGID_1_" x="0" width="42" height="42.7"/>
	</defs>
	<clipPath id="SVGID_2_">
		<use xlink:href="#SVGID_1_"  style="overflow:visible;"/>
	</clipPath>
	<polygon class="st0" points="1,6.9 1,18.5 11,24.2 21,18.5 21,6.9 11,1.2 	"/>
</g>
<polyline class="st1" points="11,24.2 11,12.7 21,6.9 "/>
<g>
	<defs>
		<rect id="SVGID_3_" x="0" width="42" height="42.7"/>
	</defs>
	<clipPath id="SVGID_4_">
		<use xlink:href="#SVGID_3_"  style="overflow:visible;"/>
	</clipPath>
	<line class="st2" x1="11" y1="12.7" x2="1" y2="6.9"/>
	<polygon class="st2" points="11,24.3 11,35.8 21,41.6 31,35.8 31,24.3 21,18.5 	"/>
	<polyline class="st2" points="21,41.6 21,30 31,24.3 	"/>
</g>
<line class="st1" x1="21" y1="30" x2="11" y2="24.3"/>
<g>
	<defs>
		<rect id="SVGID_5_" x="0" width="42" height="42.7"/>
	</defs>
	<clipPath id="SVGID_6_">
		<use xlink:href="#SVGID_5_"  style="overflow:visible;"/>
	</clipPath>
	<polygon class="st3" points="21,6.9 21,18.5 31,24.2 41,18.5 41,6.9 31,1.2 	"/>
	<polyline class="st3" points="31,24.2 31,12.7 41,6.9 	"/>
</g>
<line class="st1" x1="31" y1="12.7" x2="21" y2="6.9"/>
</svg>
