<?xml version="1.0" encoding="utf-8"?>
<!-- Generator: Adobe Illustrator 24.0.1, SVG Export Plug-In . SVG Version: 6.00 Build 0)  -->
<svg version="1.1" id="Слой_1" xmlns="http://www.w3.org/2000/svg" xmlns:xlink="http://www.w3.org/1999/xlink" x="0px" y="0px"
	 viewBox="0 0 31.1 41" style="enable-background:new 0 0 31.1 41;" xml:space="preserve">
<style type="text/css">
	
		.st0{clip-path:url(#SVGID_2_);fill:none;stroke:#272527;stroke-width:2;stroke-linecap:round;stroke-linejoin:round;stroke-miterlimit:10;}
</style>
<g>
	<defs>
		<rect id="SVGID_1_" width="31.1" height="41"/>
	</defs>
	<clipPath id="SVGID_2_">
		<use xlink:href="#SVGID_1_"  style="overflow:visible;"/>
	</clipPath>
	<path class="st0" d="M26.5,40H4.6c-2,0-3.6-1.6-3.6-3.6V4.6C1,2.6,2.6,1,4.6,1h21.8c2,0,3.6,1.6,3.6,3.6v31.8
		C30.1,38.4,28.5,40,26.5,40z"/>
	<path class="st0" d="M30.1,17.9h-1.6c-1.2,0-2.5-0.5-3.3-1.4c-1.1-1.3-2.7-2.1-4.5-2.1H10.4c-1.8,0-3.4,0.8-4.5,2.1
		c-0.8,0.9-2.1,1.4-3.3,1.4H1v5.2h1.6c1.2,0,2.5,0.5,3.3,1.4c1.1,1.3,2.7,2.1,4.5,2.1h10.2c1.8,0,3.4-0.8,4.5-2.1
		c0.8-0.9,2.1-1.4,3.3-1.4h1.6V17.9z"/>
	<line class="st0" x1="10.9" y1="6" x2="10.9" y2="1"/>
	<line class="st0" x1="10.9" y1="14.5" x2="10.9" y2="10.9"/>
	<line class="st0" x1="10.9" y1="40" x2="10.9" y2="26.5"/>
	<line class="st0" x1="20.2" y1="35.5" x2="20.2" y2="40"/>
	<line class="st0" x1="20.2" y1="26.5" x2="20.2" y2="30.9"/>
	<line class="st0" x1="20.2" y1="1" x2="20.2" y2="14.5"/>
</g>
</svg>
