<?xml version="1.0" encoding="utf-8"?>
<!-- Generator: Adobe Illustrator 24.0.1, SVG Export Plug-In . SVG Version: 6.00 Build 0)  -->
<svg version="1.1" id="Слой_1" xmlns="http://www.w3.org/2000/svg" xmlns:xlink="http://www.w3.org/1999/xlink" x="0px" y="0px"
	 viewBox="0 0 349 60.3" style="enable-background:new 0 0 349 60.3;" xml:space="preserve">
<style type="text/css">
	.st0{fill:#272527;}
	.st1{fill:#FFFFFF;}
	.st2{clip-path:url(#SVGID_2_);fill:#FFFFFF;}
	.st3{clip-path:url(#SVGID_4_);fill:#FFFFFF;}
	.st4{clip-path:url(#SVGID_6_);fill:#FFFFFF;}
	.st5{fill-rule:evenodd;clip-rule:evenodd;fill:#FFFFFF;}
</style>
<polygon class="st0" points="19.3,0.1 19.3,19.4 0,19.4 0,40.8 19.3,40.8 19.3,60.1 40.7,60.1 40.7,40.8 60,40.8 60,19.4 40.7,19.4 
	40.7,0.1 "/>
<polygon class="st1" points="28.3,18.3 31.8,18.3 31.8,8.7 35.6,8.7 35.6,5.6 24.4,5.6 24.4,8.7 28.3,8.7 "/>
<polygon class="st1" points="30,46.8 27,41.9 23.3,41.9 23.3,54.6 26.7,54.6 26.7,47.3 29.9,52.3 30,52.3 33.3,47.3 33.3,54.6 
	36.8,54.6 36.8,41.9 33,41.9 "/>
<g>
	<g>
		<defs>
			<rect id="SVGID_1_" y="0.1" width="60" height="60"/>
		</defs>
		<clipPath id="SVGID_2_">
			<use xlink:href="#SVGID_1_"  style="overflow:visible;"/>
		</clipPath>
		<path class="st2" d="M14.3,30.4c1.1-0.5,2-1.4,2-2.8c0-0.9-0.3-1.6-0.8-2.1c-0.7-0.7-1.9-1.1-3.5-1.1H5.5v12.7H12
			c3,0,4.8-1.3,4.8-3.5C16.9,31.8,15.9,30.9,14.3,30.4 M8.9,27.2h2.3c1.1,0,1.6,0.4,1.6,1.1c0,0.8-0.6,1.1-1.7,1.1H8.9V27.2z
			 M11.7,34.2H8.9v-2.3h2.7c1.2,0,1.7,0.5,1.7,1.1C13.3,33.8,12.7,34.2,11.7,34.2"/>
	</g>
	<g>
		<defs>
			<rect id="SVGID_3_" y="0.1" width="60" height="60"/>
		</defs>
		<clipPath id="SVGID_4_">
			<use xlink:href="#SVGID_3_"  style="overflow:visible;"/>
		</clipPath>
		<polygon class="st3" points="28.2,37.1 31.8,37.1 31.8,27.4 35.6,27.4 35.6,24.4 24.4,24.4 24.4,27.4 28.2,27.4 		"/>
	</g>
	<g>
		<defs>
			<rect id="SVGID_5_" y="0.1" width="60" height="60"/>
		</defs>
		<clipPath id="SVGID_6_">
			<use xlink:href="#SVGID_5_"  style="overflow:visible;"/>
		</clipPath>
		<path class="st4" d="M51.8,32.6c-0.8,0.9-1.5,1.5-2.9,1.5c-1.8,0-3-1.5-3-3.4s1.3-3.4,3-3.4c1.2,0,2.1,0.6,2.8,1.5l2.6-2
			c-1.1-1.6-2.7-2.7-5.3-2.7c-3.8,0-6.7,2.9-6.7,6.6c0,3.8,2.9,6.6,6.5,6.6c2.8,0,4.4-1.2,5.6-2.9L51.8,32.6z"/>
	</g>
</g>
<path id="TOTHEMOON_BTC_WALLET" class="st5" d="M97.5,24.9h5.4V5.4h7.5v-5H90v5h7.5V24.9L97.5,24.9z M128.1,25.3
	c7-0.2,12.5-6,12.4-13s-6-12.5-13-12.4c-6.9,0.2-12.4,5.8-12.4,12.7c0,7,5.7,12.7,12.7,12.7C127.9,25.4,128,25.4,128.1,25.3z
	 M128.2,20.4c-4.1,0-7.4-3.4-7.4-7.5c0-0.1,0-0.2,0-0.2c0-4.3,3-7.7,7.4-7.7c4.1,0,7.4,3.4,7.4,7.5c0,0.1,0,0.2,0,0.2
	C135.5,16.9,132.5,20.4,128.2,20.4L128.2,20.4z M153.4,24.9h5.4V5.4h7.5v-5H146v5h7.5v19.5H153.4z M173.2,24.9h5.4v-9.8h9.9v9.8h5.4
	V0.4h-5.4v9.7h-9.9V0.4h-5.4V24.9z M202.6,24.9h18.7v-4.8H208V15h11.6v-4.8H208v-5h13.1V0.4h-18.5V24.9L202.6,24.9z M228.8,24.9h5.3
	V9l6.8,10.4h0.1l7-10.5v16h5.4V0.4h-5.8l-6.4,10.4l-6.4-10.4H229L228.8,24.9L228.8,24.9z M273.9,25.3c7-0.2,12.5-6,12.4-13
	s-6-12.5-13-12.4c-6.9,0.2-12.4,5.8-12.4,12.7c0,7,5.7,12.7,12.7,12.7C273.7,25.4,273.8,25.4,273.9,25.3L273.9,25.3z M274,20.4
	c-4.1,0-7.4-3.4-7.4-7.5c0-0.1,0-0.2,0-0.2c0-4.3,3-7.7,7.4-7.7c4.1,0,7.4,3.4,7.4,7.5c0,0.1,0,0.2,0,0.2
	C281.3,16.9,278.3,20.4,274,20.4L274,20.4z M306.5,25.3c7-0.2,12.5-6,12.4-13s-6-12.5-13-12.4c-6.9,0.2-12.4,5.8-12.4,12.7
	c0,7,5.7,12.7,12.7,12.7C306.3,25.4,306.4,25.4,306.5,25.3L306.5,25.3z M306.5,20.4c-4.1,0-7.4-3.4-7.4-7.5c0-0.1,0-0.2,0-0.2
	c0-4.3,3-7.7,7.4-7.7c4.1,0,7.4,3.4,7.4,7.5c0,0.1,0,0.2,0,0.2C313.9,16.9,310.9,20.4,306.5,20.4L306.5,20.4z M327.1,24.9h5.3V9.4
	L344.3,25h4.6V0.4h-5.3v15.1L332.1,0.4h-5V24.9L327.1,24.9z"/>
<g>
	<path class="st1" d="M91.9,47.5c0-7,5.3-12.7,12.8-12.7c4.6,0,7.2,1.8,9.5,4l-3.2,3.7c-1.9-1.7-3.5-2.7-6.3-2.7
		c-4.1,0-7.1,3.4-7.1,7.7c0,4.2,2.9,7.7,7.1,7.7c2.8,0,4.5-1.1,6.4-2.9l3.4,3.7c-2.5,2.7-5.3,4.2-10,4.2
		C97.2,60.2,91.9,54.6,91.9,47.5z"/>
	<path class="st1" d="M125.9,35.1h5l10.5,24.7h-5.6l-2.2-5.5h-10.4l-2.2,5.5h-5.5L125.9,35.1z M131.5,49.5l-3.3-7.9l-3.3,7.9H131.5z
		"/>
	<path class="st1" d="M143.8,35.2H155c3.1,0,5.5,0.9,7.1,2.5c1.4,1.4,2.1,3.3,2.1,5.7c0,4-2.1,6.4-5.3,7.6l6,8.8h-6.3l-5.3-7.8h-4.2
		v7.8h-5.4V35.2z M154.7,47.1c2.6,0,4.1-1.4,4.1-3.5c0-2.3-1.6-3.5-4.2-3.5h-5.4v7H154.7z"/>
	<path class="st1" d="M167.8,35.2h9.6c7.7,0,13,5.3,13,12.3c0,6.9-5.3,12.3-13,12.3h-9.6V35.2z M177.4,54.9c4.4,0,7.4-3,7.4-7.4
		c0-4.3-3-7.4-7.4-7.4h-4.2v14.8H177.4z"/>
	<path class="st1" d="M201.2,35.2h5.8l5.1,16.6l5.5-16.7h4.6l5.5,16.7l5.1-16.6h5.6L230,59.9h-4.7l-5.5-16l-5.5,16h-4.7L201.2,35.2z
		"/>
	<path class="st1" d="M249.5,35.1h5L265,59.7h-5.6l-2.2-5.5h-10.4l-2.2,5.5H239L249.5,35.1z M255.2,49.5l-3.3-7.9l-3.3,7.9H255.2z"
		/>
	<path class="st1" d="M267.4,35.2h5.4v19.6h12.2v4.9h-17.6V35.2z"/>
	<path class="st1" d="M287.8,35.2h5.4v19.6h12.2v4.9h-17.6V35.2z"/>
	<path class="st1" d="M308.2,35.2h18.5V40h-13.1v5h11.6v4.8h-11.6v5.1h13.3v4.8h-18.7V35.2z"/>
	<path class="st1" d="M336,40.2h-7.5v-5h20.3v5h-7.5v19.5H336V40.2z"/>
</g>
</svg>
