<svg xmlns="http://www.w3.org/2000/svg" width="287.5" height="77.031" viewBox="0 0 287.5 77.031">
  <defs>
    <style>
      .cls-1 {
        fill: #777;
        fill-rule: evenodd;
      }
    </style>
  </defs>
  <path class="cls-1" d="M1408.92,825.073c-0.3.228-.45,0.347-0.61,0.465-0.66.5-.8,0.45-0.94-0.41a9.256,9.256,0,0,0-2.35,1.229,13.34,13.34,0,0,1-2.88,2.141c-1.4.709-2.62,1.686-4.01,2.4a1.694,1.694,0,0,0-.43.565,7.088,7.088,0,0,1-1.46,1.116,4.93,4.93,0,0,0-.64.285c-0.6.579-1.11,1.251-1.74,1.783-0.61.511-1.38,0.84-1.99,1.353a11.108,11.108,0,0,0-1.01.787,25.509,25.509,0,0,1-3.14,3.268c-0.97.775-1.83,1.69-2.76,2.525-1.81,1.64-3.64,3.265-5.46,4.906a2.574,2.574,0,0,0-.37.543,0.432,0.432,0,0,1-.09.167c-0.31.217-.64,0.424-0.96,0.636a0.257,0.257,0,0,0-.11.1c-0.21,1.065-1.33,1.279-1.89,2.021-0.3.393-.7,0.7-1.02,1.083a1.539,1.539,0,0,0-.08.63l-1.32.421c0.01,0.076.04,0.2,0.05,0.29l-0.99.4c0.16,0.361.34,0.75-.36,0.771a1.64,1.64,0,0,0-.33.637c-0.13-.038-0.3-0.093-0.34-0.1a14.879,14.879,0,0,1-.98,1.476,9.837,9.837,0,0,1-1.02.8c-0.26.235-.45,0.546-0.7,0.8-0.29.287-.6,0.543-0.9,0.817-0.68.624-1.36,1.25-2.03,1.878a1.222,1.222,0,0,0-.3.333,3.123,3.123,0,0,1-1.63,1.53,1.321,1.321,0,0,0-.39.368,9.022,9.022,0,0,1-.67,1.017c-0.89.949-1.8,1.873-2.72,2.793-1.56,1.569-3.13,3.124-4.68,4.7a3.914,3.914,0,0,0-.35.629,1.232,1.232,0,0,1-.4.456,3.079,3.079,0,0,0-1.22,1.069c-0.82,1.09-1.67,2.162-2.53,3.222a1.6,1.6,0,0,1-.76.613,4.285,4.285,0,0,1-1.73-.013,1.223,1.223,0,0,1-.61-0.884,1.305,1.305,0,0,1,.44-0.874c0.88-.872,1.81-1.7,2.73-2.546a0.7,0.7,0,0,1,.27-0.172,0.948,0.948,0,0,0,.69-1.054,5.684,5.684,0,0,0,.94-0.555,7.079,7.079,0,0,0,.53-0.732,7.688,7.688,0,0,1,.76-0.783c0.77-.7,1.56-1.392,2.34-2.087a0.563,0.563,0,0,0,.1-0.117,2.748,2.748,0,0,1,1.37-1.554,0.849,0.849,0,0,0,.19-0.628c0-.307.07-0.47,0.41-0.472a0.609,0.609,0,0,0,.44-0.138c0.84-1.181,1.96-2.114,2.71-3.39a19.421,19.421,0,0,1,2.26-2.792c0.55-.623,1.16-1.183,1.73-1.788a7.352,7.352,0,0,0,.44-0.656c0.52-.71,1.06-1.408,1.58-2.125a2.566,2.566,0,0,0,.16-0.517,2.343,2.343,0,0,1,.24-0.533q1.155-1.533,2.34-3.044a2.161,2.161,0,0,1,.5-0.346c-0.39-.354-0.12-0.654.1-0.959a2.061,2.061,0,0,1,.22-0.271,13.26,13.26,0,0,0,2.87-4.229,11.438,11.438,0,0,1,1.11-1.491,0.373,0.373,0,0,0,.11-0.159c-0.27-.839.47-1.221,0.8-1.775,0.35-.572.78-1.1,1.11-1.676a1.73,1.73,0,0,0-.06-0.812c0.26-.272.63-0.629,0.95-1.025a0.969,0.969,0,0,0,.37-1.188,0.347,0.347,0,0,1,.12-0.3c0.99-.823,1.1-2.049,1.47-3.156a5.39,5.39,0,0,1,.21-0.546,0.633,0.633,0,0,0,.14-0.254c-0.1-.691.41-1.207,0.5-1.848a4.17,4.17,0,0,1,.43-0.945c0.28-.635.27-0.638-0.2-1.247,0.12-.13.26-0.27,0.39-0.406a1.065,1.065,0,0,0,.45-1.172,1.646,1.646,0,0,1,.09-0.71c0.12-.747.3-1.49,0.37-2.242,0.08-.931.09-1.87,0.09-2.8a1.374,1.374,0,0,0-.3-0.508,0.929,0.929,0,0,1-.16-0.329,1.635,1.635,0,0,0-1.51-1.619c-1.19-.17-2.39-0.281-3.59-0.438s-2.39-.35-3.59-0.5c-0.8-.1-1.62-0.146-2.43-0.235s-1.61-.2-2.42-0.307c-0.4-.054-0.79-0.163-1.18-0.181-0.35-.016-0.71.073-1.06,0.092-0.41.021-.82,0-1.23,0.026a1.774,1.774,0,0,0-.77.115c-0.49.286-.92,0.656-1.39,0.981a1.722,1.722,0,0,1-1.35.394,0.636,0.636,0,0,0-.5.131,1.223,1.223,0,0,1-1.4.506c0.22,0.864-.25.983-0.85,1.267a14.112,14.112,0,0,0-2.46,1.4,2.028,2.028,0,0,1-.2.3c-0.31.272-.61,0.563-0.94,0.811a12.87,12.87,0,0,1-1.66,1.162,2.665,2.665,0,0,0-1.45,1.395,0.784,0.784,0,0,1-.2.276c-0.4.34-.8,0.675-1.21,1a0.435,0.435,0,0,1-.29.137c-0.44-.228-0.59.1-0.78,0.376a0.806,0.806,0,0,1-.28.265c-0.34.17-.66,0.287-0.54,0.8a1.337,1.337,0,0,1-.55.551c-0.27.206-.56,0.386-0.84,0.566-0.26.164-.54,0.309-0.8,0.471a1.712,1.712,0,0,0-.43.31,11.844,11.844,0,0,0-.78,1.04,3.68,3.68,0,0,1-1.67,1.441,2.206,2.206,0,0,0-.85.734,26.8,26.8,0,0,1-2.78,2.886c-0.46.444-.94,0.857-1.43,1.266a1.991,1.991,0,0,1-.48.2,4.5,4.5,0,0,1-2.2,2.374c0.25,0.993-.56,1.615-0.87,2.429-0.42,1.093-.78,2.21-1.18,3.308-0.11.289-.34,0.533-0.45,0.82-0.23.572-.4,1.164-0.63,1.737a1.722,1.722,0,0,1-.31.418,3.436,3.436,0,0,1-.15.8c-0.33.674-.72,1.314-1.06,1.985-0.26.531-.47,1.087-0.7,1.621a0.927,0.927,0,0,0-.73,1.184,0.87,0.87,0,0,1-.12.568c-0.39.594-.85,1.144-1.21,1.755a5,5,0,0,0-.4,1.227,1,1,0,0,1-.76.824,0.765,0.765,0,0,0-.64.734,4.158,4.158,0,0,1-1.53,2.818,5.184,5.184,0,0,0-.75,1.316,0.764,0.764,0,0,0-.54.868,1.365,1.365,0,0,1-.33.548,6.824,6.824,0,0,0-1.12,1.972,5.383,5.383,0,0,1-1.04,1.463c-0.26.354-.49,0.725-0.74,1.087-0.19.288-.38,0.578-0.59,0.861-0.53.757-1.05,1.53-1.62,2.259a12.792,12.792,0,0,1-1.21,1.255,0.966,0.966,0,0,0-.39.96,0.6,0.6,0,0,1-.18.415c-0.32.319-.69,0.588-0.99,0.919a6.93,6.93,0,0,0-.59.871c-0.04.054-.07,0.119-0.11,0.162a8.622,8.622,0,0,0-1.73,2.108,5.187,5.187,0,0,1-1.13.946,1.428,1.428,0,0,0-.29.435,2.3,2.3,0,0,1-.12.315,25.255,25.255,0,0,1-1.79,1.944,12.335,12.335,0,0,0-2.15,1.988,5.7,5.7,0,0,1-1.37,1.237c-1.16.831-2.34,1.624-3.54,2.409a2.851,2.851,0,0,1-1.13.537,10.048,10.048,0,0,1-1.95-.066c-0.27-.024-0.32-0.241-0.23-0.492a0.428,0.428,0,0,0-.26-0.624,1.322,1.322,0,0,1-.33-0.812,1.89,1.89,0,0,1,.4-1.692,4.383,4.383,0,0,0,.44-1.308,9.389,9.389,0,0,1,.41-1.037q1.14-2.3,2.31-4.6a6.833,6.833,0,0,1,.55-0.768,0.783,0.783,0,0,0,.22-0.373,1.371,1.371,0,0,1,.61-1.131,8.743,8.743,0,0,0,.92-1.171,43.222,43.222,0,0,1,4.06-5.922c0.3-.354.48-0.8,0.76-1.173,0.13-.187.4-0.277,0.55-0.458,1.75-2.143,3.48-4.3,5.22-6.445,0.09-.1.16-0.219,0.25-0.314,0.35-.361.35-0.359,0.28-0.66,0.39-.432.72-0.808,1.07-1.169a0.922,0.922,0,0,1,.31-0.144,1.2,1.2,0,0,0,.56-0.245c0.59-1.578,1.92-2.567,2.95-3.8,0.63-.767,1.22-1.573,1.87-2.328a12.922,12.922,0,0,1,1.13-1.044,2.025,2.025,0,0,0,.2-0.239,2.164,2.164,0,0,1,.33-0.432c1.86-1.426,3.12-3.4,4.75-5.044a19.263,19.263,0,0,0,1.53-2.015,0.889,0.889,0,0,1,.27-0.165,3.5,3.5,0,0,0,1.82-1.548,0.692,0.692,0,0,1,.19-0.286c0.88-.612.89-1.6,1.09-2.5a1.567,1.567,0,0,1,.16-0.467,2.223,2.223,0,0,0,.37-1.364,1.605,1.605,0,0,1,.3-0.77,1.344,1.344,0,0,0,.12-0.974,2.55,2.55,0,0,1,.63-2.274,2.218,2.218,0,0,1,.84-0.318c0.2,0.226.67,0.309,0.54,0.825a0.25,0.25,0,0,0,.09.165,1.132,1.132,0,0,1,.21,1.4c-0.1.412-.16,0.835-0.23,1.253l0.12,0.079a2.713,2.713,0,0,0,.52-0.314c1.38-1.353,2.75-2.709,4.11-4.082a2.18,2.18,0,0,1,1.39-.771,1.115,1.115,0,0,1,.15-0.519c1-.966,2.04-1.9,3.05-2.866,0.76-.731,1.46-1.529,2.25-2.228,1.08-.954,2.22-1.842,3.33-2.758,0.78,0.033.84-.746,1.27-1.094a11.607,11.607,0,0,1,3.43-2.279,0.843,0.843,0,0,0,.22-0.12c1.34-1.007,2.67-2.015,4.09-3.084h-2.08c-0.07,0-.13,0-0.2,0-1.02-.075-2.03-0.166-3.05-0.221-1.43-.078-2.86-0.144-4.3-0.186-0.94-.028-1.89-0.018-2.83,0-0.66.011-1.31,0.073-1.96,0.087-0.9.021-1.8,0-2.7,0.031-0.87.035-1.74,0.124-2.6,0.19a2.966,2.966,0,0,1-.45.035,0.839,0.839,0,0,0-.99,1.124,0.689,0.689,0,0,1-.36.929c-0.11-.087-0.21-0.189-0.33-0.274a0.44,0.44,0,0,0-.74.156,2.776,2.776,0,0,1-.52.654c-1.13.967-2.27,1.9-3.38,2.88a5.91,5.91,0,0,0-.89,1.053c-1.57,2.175-3.12,4.36-4.69,6.539q-1.92,2.679-3.84,5.353c-0.76,1.056-1.52,2.111-2.25,3.183a2.163,2.163,0,0,0-.37.9c-0.05.485-.19,0.806-0.73,0.766a2.806,2.806,0,0,1-.68,1.621,3.627,3.627,0,0,0-.48.754,50.5,50.5,0,0,1-4.68,7.72,29.912,29.912,0,0,0-1.67,2.933,5.373,5.373,0,0,1-1.46,2,0.933,0.933,0,0,0-.25.368c-0.66,1.291-1.3,2.589-1.97,3.871a2.658,2.658,0,0,1-.53.536,1.7,1.7,0,0,0-.34.4c-0.2.4-.36,0.822-0.55,1.232a1.954,1.954,0,0,1-.33.663,10.037,10.037,0,0,0-1.7,2.9c-1.03,1.865-2.07,3.728-3.14,5.569-0.31.542-.8,0.985-1.14,1.515a10.98,10.98,0,0,0-.66,1.368,2.125,2.125,0,0,1-.14.371,30.671,30.671,0,0,0-2.79,5.677c-0.52,1.187-1.09,2.355-1.61,3.546a6.05,6.05,0,0,0-.22,1.119,1.542,1.542,0,0,0,.3-0.178,25.606,25.606,0,0,0,1.97-3.12,6.648,6.648,0,0,1,1.18-1.771,2.071,2.071,0,0,1,.27-0.2c0.05,0.016.1,0.032,0.16,0.048-0.09.435-.16,0.874-0.26,1.3s-0.23.856-.36,1.279a0.827,0.827,0,0,1-.18.293,7.256,7.256,0,0,0-1.61,2.618,11.094,11.094,0,0,1-2.35,3.318c-0.34.371-.71-0.05-1.07,0a0.845,0.845,0,0,1-.42-0.633,12.794,12.794,0,0,1,.27-2.317,30.531,30.531,0,0,1,2.81-6.817,39.934,39.934,0,0,1,2.2-3.8c1.29-1.928,2.16-4.072,3.3-6.073,0.44-.763.95-1.479,1.4-2.236,0.84-1.435,1.65-2.889,2.48-4.327,0.34-.575.67-1.151,1.06-1.693a11.918,11.918,0,0,0,1.7-2.977,7.285,7.285,0,0,1,.89-1.558c1.71-2.66,3.46-5.3,5.15-7.972,0.79-1.242,1.5-2.534,2.25-3.8,0.7-1.2,1.4-2.4,2.11-3.6a155.273,155.273,0,0,1,8.83-13.026c0.71-.958,1.31-2,2.01-2.967,0.43-.606.94-1.16,1.41-1.737a1.093,1.093,0,0,0,.17-0.179c0.85-1.636,2.28-2.82,3.33-4.295,0.15-.211.31-0.416,0.47-0.624a1.312,1.312,0,0,1-.07-0.178c-1.05.088-2.09,0.185-3.14,0.261-0.39.028-.79,0-1.18,0.012a3.206,3.206,0,0,0-.68.076,0.581,0.581,0,0,1-.76-0.108,0.354,0.354,0,0,0-.34,0,3.149,3.149,0,0,1-2.04.322,12.052,12.052,0,0,0-1.53.169c-0.38.038-.75,0.057-1.13,0.077-0.27.014-.54-0.013-0.8,0.026-0.7.105-1.4,0.236-2.08,0.352-0.16.238-.32,0.471-0.48,0.719a1.47,1.47,0,0,0-.45-0.348,0.788,0.788,0,0,0-.6.085c-0.52.506-.96,1.1-1.5,1.586-0.73.67-1.55,1.254-2.3,1.913a6.927,6.927,0,0,0-1.05,1.162c-1.59,2.185-3.15,4.384-4.72,6.579q-2.085,2.925-4.18,5.853c-0.63.88-1.27,1.75-1.88,2.643a2.042,2.042,0,0,0-.38.892c-0.06.5-.19,0.84-0.61,0.811-0.28.566-.51,1.061-0.76,1.541-0.14.262-.37,0.481-0.49,0.748a67.348,67.348,0,0,1-4.67,7.789c-0.61.945-1.15,1.932-1.71,2.909a5.479,5.479,0,0,1-1.49,2.035,1.036,1.036,0,0,0-.24.373c-0.66,1.291-1.3,2.588-1.97,3.872a2.3,2.3,0,0,1-.49.508,1.7,1.7,0,0,0-.33.345c-0.2.384-.34,0.8-0.55,1.176-0.25.463-.55,0.9-0.83,1.349-0.23.391-.48,0.781-0.69,1.185-0.45.835-.87,1.686-1.33,2.517-0.75,1.371-1.5,2.745-2.3,4.09-0.33.568-.82,1.045-1.18,1.6a13.666,13.666,0,0,0-.69,1.412,2.812,2.812,0,0,1-.11.325,29.175,29.175,0,0,0-2.76,5.584c-0.54,1.236-1.13,2.447-1.67,3.684a3.927,3.927,0,0,0-.17.98l0.15,0.048c0.09-.11.19-0.212,0.27-0.329a21.278,21.278,0,0,0,1.77-2.831,6.161,6.161,0,0,1,1.13-1.747c0.11-.114.24-0.2,0.42-0.358a3.178,3.178,0,0,1-.31,1.815c-0.09.245-.13,0.508-0.21,0.758a1.734,1.734,0,0,1-.19.437,19.039,19.039,0,0,0-1.49,2.4,12.765,12.765,0,0,1-2.44,3.5c-0.37.392-.74-0.011-1.11,0.007a0.838,0.838,0,0,1-.4-0.645,11.961,11.961,0,0,1,.28-2.317,33.655,33.655,0,0,1,3.49-8.091c1.01-1.8,2.15-3.527,3.18-5.319,0.55-.973.96-2.031,1.5-3.017,0.47-.857,1.05-1.653,1.54-2.5,0.85-1.45,1.66-2.922,2.5-4.374,0.36-.618.75-1.225,1.16-1.807a11.633,11.633,0,0,0,1.56-2.77,9.684,9.684,0,0,1,1.04-1.817c1.67-2.59,3.37-5.159,5.03-7.759,0.78-1.228,1.49-2.5,2.21-3.764a137.734,137.734,0,0,1,9.42-14.519c0.72-.958,1.37-1.967,2.05-2.95,0.75-1.078,1.47-2.18,2.26-3.221,1.05-1.368,2.17-2.685,3.25-4.026,0.04-.049.07-0.108,0.19-0.305-0.49.065-.87,0.118-1.24,0.164-0.35.044-.7,0.085-1.05,0.12-0.37.036-.73,0.046-1.09,0.1-0.46.067-.91,0.169-1.36,0.251-0.41.074-.82,0.149-1.23,0.209-1.39.2-2.77,0.4-4.15,0.6-1.25.181-2.5,0.355-3.74,0.554a30.938,30.938,0,0,1-3.39.559c-1.14.05-2.18,0.537-3.23,0.616-1.33.1-2.54,0.576-3.84,0.7a19.919,19.919,0,0,0-2.58.553,1.654,1.654,0,0,0-.4.188c-0.24.137-.48,0.283-0.68,0.4a2.329,2.329,0,0,1-.67.555,14.554,14.554,0,0,1-2.17.551,2.157,2.157,0,0,0-1.17.581c-0.63.569-.91,0.551-1.46-0.076a6.728,6.728,0,0,1-.51-0.732,0.856,0.856,0,0,1-.03-1.069,1.21,1.21,0,0,1,1.08-.572,9.673,9.673,0,0,0,1.47-.216c0.47-.068.94-0.1,1.41-0.188,0.6-.114,1.19-0.283,1.8-0.4,0.45-.087.91-0.1,1.36-0.191,0.49-.1.95-0.286,1.44-0.36,1-.153,2.02-0.212,3.01-0.39,1.26-.226,2.5-0.57,3.75-0.793,0.89-.157,1.8-0.194,2.7-0.29,0.26-.028.53-0.06,0.79-0.114,1.59-.333,3.18-0.687,4.78-1a6.561,6.561,0,0,1,1.13,0,3.578,3.578,0,0,0,.59-0.06c1.33-.252,2.67-0.525,4-0.759,0.42-.073.86-0.025,1.29-0.066,1.29-.121,2.58-0.243,3.87-0.4a2.449,2.449,0,0,0,.71-0.352c-0.02-.088-0.05-0.177-0.07-0.265-1.02.078-2.03,0.164-3.05,0.229-0.44.028-.88,0.01-1.32,0.02a2.107,2.107,0,0,0-.54.05,0.66,0.66,0,0,1-.89-0.093,0.593,0.593,0,0,0-.44.093,3.1,3.1,0,0,1-1.76.266c-0.56.021-1.11,0.1-1.67,0.153-0.38.034-.76,0.058-1.14,0.082-0.34.022-.69,0.02-1.04,0.061-0.72.086-1.44,0.193-2.17,0.293-0.47.064-.94,0.143-1.41,0.192-0.36.038-.72,0.028-1.08,0.06-0.74.065-1.47,0.138-2.21,0.222-0.19.023-.38,0.111-0.57,0.142-0.33.052-.67,0.088-1,0.12-0.37.034-.73,0.04-1.09,0.084-0.54.066-1.07,0.144-1.6,0.237-0.34.058-.66,0.178-0.99,0.228-1.38.207-2.77,0.395-4.15,0.6-1.23.179-2.46,0.356-3.69,0.553a33.94,33.94,0,0,1-3.44.563,10.225,10.225,0,0,0-3.23.67,7.478,7.478,0,0,1-1.07.03c-1.79.369-3.57,0.768-5.35,1.167a1.683,1.683,0,0,0-.44.211c-0.23.128-.46,0.262-0.69,0.39a2.179,2.179,0,0,1-.62.531,14.693,14.693,0,0,1-2.17.556,2.279,2.279,0,0,0-1.22.6c-0.59.549-.88,0.527-1.41-0.077a5.042,5.042,0,0,1-.5-0.685,0.926,0.926,0,0,1-.08-1.116,1.228,1.228,0,0,1,1.13-.587,7.933,7.933,0,0,0,1.37-.2c0.5-.073,1.01-0.116,1.51-0.2s1-.233,1.51-0.325c0.56-.1,1.14-0.153,1.7-0.266,0.47-.094.92-0.29,1.39-0.362,0.98-.152,1.98-0.21,2.96-0.384,1.24-.221,2.46-0.557,3.7-0.774,0.93-.161,1.87-0.209,2.8-0.313,0.26-.03.52-0.068,0.78-0.122,1.57-.325,3.12-0.673,4.69-0.974a7.636,7.636,0,0,1,1.22-.01,3.717,3.717,0,0,0,.6-0.07c1.33-.253,2.66-0.526,4-0.759,0.42-.073.86-0.018,1.29-0.064,1.67-.182,3.33-0.39,5-0.571,1.1-.119,2.2-0.2,3.3-0.316,0.87-.094,1.74-0.23,2.61-0.328,0.48-.053.96-0.06,1.43-0.1a36.806,36.806,0,0,1,4.54-.325,50.71,50.71,0,0,0,5.39-.543c0.67-.039,1.35.016,2.03-0.008,0.47-.016.94-0.1,1.4-0.139,0.56-.041,1.12-0.088,1.68-0.079,0.66,0.011,1.31.109,1.97,0.112,0.44,0,.89-0.113,1.33-0.143,0.59-.039,1.19-0.045,1.78-0.069,0.7-.028,1.4-0.054,2.1-0.09,1.17-.061,2.33-0.18,3.5-0.179,1.29,0,2.58.165,3.87,0.153,1.13-.011,2.26-0.187,3.39-0.249a3.806,3.806,0,0,1,1.11.184c0.3,0,.61-0.007.92,0a4.314,4.314,0,0,0,.49.061,10.654,10.654,0,0,1,2.59-.084,23.936,23.936,0,0,0,4.11-.079c0.59-.011,1.17.084,1.76,0.088a27.182,27.182,0,0,1,3.14,0,24.528,24.528,0,0,0,3.22-.208,1.439,1.439,0,0,1,.56.226c0.41,0,.74.022,1.06,0a16.579,16.579,0,0,0,2.32-.247c0.86-.194,1.68-0.54,2.52-0.807a1.31,1.31,0,0,1,.4,0,0.764,0.764,0,0,0,.34,0,7.9,7.9,0,0,1,2.95-.606,14.008,14.008,0,0,1,2.62-.158,24.071,24.071,0,0,1,2.98.3,10.193,10.193,0,0,1,.91.489,8.461,8.461,0,0,0,1.29.181,2.617,2.617,0,0,0,1.91,1.248,12.188,12.188,0,0,0,1.31.189c0.85,0.055,1.7.033,2.55,0.115,1.36,0.133,2.72.336,4.09,0.489,1.1,0.123,2.21.2,3.31,0.329,0.57,0.066,1.14.222,1.72,0.284,0.43,0.047.88-.012,1.32,0.016a5.248,5.248,0,0,0,.82.158,16.994,16.994,0,0,1,2.63.28,37.225,37.225,0,0,1,7.58,1.358,10.292,10.292,0,0,0,1.47.061,7.412,7.412,0,0,1,1.27.209c1.32,0.35,2.64.693,3.93,1.121a1.661,1.661,0,0,1,.71.814,0.831,0.831,0,0,1-.37.549c-0.43.276-.92,0.464-1.36,0.729-0.52.314-1.02,0.66-1.52,1.017a0.424,0.424,0,0,0-.11.371,3.11,3.11,0,0,1,.34,2.774,13.558,13.558,0,0,1-1.83,4.3,8.851,8.851,0,0,0-1.33,2.549,2.144,2.144,0,0,1-.61.769,1.975,1.975,0,0,0-.77,1.4,0.605,0.605,0,0,1-.24.42,1.871,1.871,0,0,0-.83,1.339,2.636,2.636,0,0,1-.44.886c-0.78,1.155-1.56,2.3-2.34,3.452-1.26,1.872-2.39,3.841-3.53,5.791-0.54.912-.97,1.882-1.48,2.815a6.149,6.149,0,0,1-.56.755c0.32,0.395.01,0.582-.29,0.829a3.4,3.4,0,0,0-.64.773c-0.57.9-1.13,1.81-1.66,2.733a10.534,10.534,0,0,0-.53,1.212,0.088,0.088,0,0,0-.01.049c-0.44.748-.86,1.5-1.31,2.243a20.092,20.092,0,0,0-1.22,1.952c-0.58,1.3-1.67,2.285-2.18,3.63s-1.15,2.623-1.71,3.936c-0.15.336-.24,0.693-0.39,1.028a2.586,2.586,0,0,1-.44.83,3.375,3.375,0,0,0-.81,2.444,0.859,0.859,0,0,1-.18.5,1.883,1.883,0,0,0-.23,1.758c0.06,0.349.38,0.2,0.54,0.038,0.29-.279.5-0.629,0.8-0.889a6.768,6.768,0,0,1,.91-0.569c0.22-.139.45-0.272,0.66-0.431a5.592,5.592,0,0,1,.76-0.63,0.952,0.952,0,0,1,.76-0.058,1.039,1.039,0,0,1,.11.856,4.155,4.155,0,0,1-.74,1.054c-0.4.467-.85,0.89-1.26,1.355a2.961,2.961,0,0,1-1.72.992,0.663,0.663,0,0,0-.4.378c-0.22.719-.3,0.763-0.92,0.407a1.074,1.074,0,0,0-.28-0.1,1.536,1.536,0,0,1-1.27-1.713,7.344,7.344,0,0,1,.45-2.735,5.778,5.778,0,0,0,.22-1.205,8.608,8.608,0,0,1,1.24-2.816,7.746,7.746,0,0,0,.61-1.308,1.844,1.844,0,0,0,.02-0.578,0.575,0.575,0,0,1,.04-0.314,3.306,3.306,0,0,0,.95-1.617,14.007,14.007,0,0,1,1.1-1.839c0.56-.9,1.16-1.786,1.71-2.7,0.57-.964,1.08-1.966,1.65-2.93,0.25-.426.63-0.78,0.89-1.2a3.157,3.157,0,0,0,.16-0.718,3.342,3.342,0,0,1,.3-0.767c0.37-.611.82-1.177,1.16-1.8,0.71-1.3,1.26-2.715,2.09-3.933s1.39-2.568,2.1-3.837a5.688,5.688,0,0,1,.6-0.792c0.16-.2.45-0.323,0.27-0.669a0.73,0.73,0,0,1,.2-0.311,4.261,4.261,0,0,0,.8-1.061,10.961,10.961,0,0,1,1.37-2.235c0.66-1.114,1.25-2.267,1.89-3.389a15.033,15.033,0,0,0,.84-1.263,13.07,13.07,0,0,1,1.22-1.8c0.49-.739.81-1.593,1.23-2.384a9.067,9.067,0,0,1,.56-0.776,2.126,2.126,0,0,0,.26-0.465c0.25-.74.46-1.494,0.73-2.226,0.2-.536.49-1.038,0.7-1.571A3.269,3.269,0,0,0,1408.92,825.073Zm-25.12-6.711c-0.05.064-.09,0.128-0.14,0.192a3.208,3.208,0,0,0,.26.717,3.578,3.578,0,0,1,.5,2.249c0,0.7-.08,1.395-0.15,2.091-0.07.753-.13,1.509-0.25,2.253a17.713,17.713,0,0,1-.48,1.882c-0.06.22-.22,0.414-0.28,0.634-0.15.508-.3,1.02-0.4,1.539a4.319,4.319,0,0,1,.03.705c-0.34.731-.24,1.634-0.89,2.237a0.728,0.728,0,0,0-.08.282,7.761,7.761,0,0,1-1.69,3.615,0.76,0.76,0,0,0-.13.342,4.8,4.8,0,0,1-.27,1.019,5.929,5.929,0,0,0-1.05,1.864,10.731,10.731,0,0,1-1.16,2.554,0.883,0.883,0,0,0-.53.322c-0.34.549-.68,1.107-0.97,1.687a8.447,8.447,0,0,1-1.91,2.926,1.469,1.469,0,0,0-.19.348,28.323,28.323,0,0,1-3.73,5.65,7.081,7.081,0,0,0-.68,1.225,2.388,2.388,0,0,0-1.24,1.574,1.615,1.615,0,0,1,.55-0.121,0.522,0.522,0,0,0,.65-0.388c0.19-.469.44-0.847,1.03-0.6a2.245,2.245,0,0,1,.22-0.763,22.044,22.044,0,0,1,1.84-2.086c0.6-.589,1.32-1.068,1.97-1.612a1.971,1.971,0,0,0,.99-1.055,0.6,0.6,0,0,1,.33-0.182c0.15-.058.31-0.093,0.37-0.112a2.664,2.664,0,0,1,.24-0.665c0.59-.749,1.47-1.168,2.03-2.017a13.288,13.288,0,0,1,2.23-2.135c0.7-.662,1.37-1.365,2.1-1.989,0.7-.595,1.16-1.5,2.24-1.711-0.28-.185-0.48-0.32-0.76-0.5a2.933,2.933,0,0,0,.76-0.152,17.115,17.115,0,0,0,1.84-1.169,2.649,2.649,0,0,0,.36-0.8,1.525,1.525,0,0,1,.42-0.513c0.2-.142.5-0.154,0.68-0.313,1.48-1.361,2.95-2.743,4.43-4.117a0.939,0.939,0,0,1,.38-0.312,1.981,1.981,0,0,0,1.22-.935c0.22-.25.45-0.5,0.69-0.725a0.534,0.534,0,0,1,.38-0.178,0.558,0.558,0,0,0,.68-0.36,1.5,1.5,0,0,1,.35-0.411c1.25-1.01,2.49-2.044,3.78-3,1.05-.785,2.19-1.459,3.26-2.22,0.49-.343.9-0.784,1.35-1.167a1.361,1.361,0,0,1,.45-0.241c0.45-.14.92-0.234,1.36-0.386,0.61-.206,1.2-0.447,1.8-0.679a0.553,0.553,0,0,0,.23-0.157c0.42-.521.82-1.05,1.23-1.576,0.26-.342.15-0.5-0.22-0.7a10.341,10.341,0,0,0-3.08-.781c-2.29-.422-4.59-0.77-6.89-1.144a1.93,1.93,0,0,0-.24.013,9.2,9.2,0,0,1-1.13-.051c-0.91-.143-1.81-0.364-2.73-0.478-1.4-.173-2.8-0.248-4.2-0.431-0.8-.105-1.59-0.273-2.41-0.321-1.43-.084-2.84-0.354-4.26-0.546a1.891,1.891,0,0,0-1.4.069,0.937,0.937,0,0,1-.47-0.051l-0.35-.049a0.609,0.609,0,0,0,.88.643,1.275,1.275,0,0,1,.5,0c0.93,0.173,1.86.34,2.79,0.542,1.26,0.277,2.52.61,3.79,0.861,0.44,0.087.94-.1,1.37,0.011,1.55,0.379,3.09.8,4.61,1.279a1.505,1.505,0,0,1,.64.826,0.792,0.792,0,0,1-.37.511,9.016,9.016,0,0,1-1.36.719,3.355,3.355,0,0,0-1.79,1.377,8.669,8.669,0,0,1-2.51,2.458,0.6,0.6,0,0,1-.47.137,0.757,0.757,0,0,1-.22-0.51,3.04,3.04,0,0,1,.77-2.054c0.58-.773,1.23-1.492,1.8-2.266,0.36-.478.3-0.539-0.24-0.784a9.856,9.856,0,0,0-2.54-.657C1388.14,819.186,1385.97,818.758,1383.8,818.362Zm-82.26,68.715a5.884,5.884,0,0,0,1.09-.4c0.43-.261.78-0.632,1.2-0.9a3.291,3.291,0,0,1,.8-0.27,0.772,0.772,0,0,0,.23-0.066c0.69-.593,1.39-1.181,2.07-1.8,0.58-.532,1.15-1.083,1.7-1.647,1-1.015,2.02-2.011,2.95-3.08,0.91-1.038,1.67-2.209,2.6-3.227a23.073,23.073,0,0,0,3.44-4.786,0.687,0.687,0,0,1,.74-0.546,0.3,0.3,0,0,0,.21-0.144,0.923,0.923,0,0,1,.69-0.919c0.31-.208.6-0.382,0.38-0.827a0.365,0.365,0,0,1,.06-0.278c0.27-.409.54-0.816,0.83-1.211,0.52-.7,1.04-1.4,1.56-2.1a0.355,0.355,0,0,0,.11-0.213,0.8,0.8,0,0,1,.35-0.906c0.73-.744.76-1.945,1.69-2.552a0.531,0.531,0,0,0,.05-0.085,22.422,22.422,0,0,1,1.34-2.084,2.876,2.876,0,0,0,.78-1.865,0.6,0.6,0,0,1,.11-0.315c0.59-.823,1.2-1.623,1.75-2.468a5.367,5.367,0,0,0,.42-1.145,5.532,5.532,0,0,1,.24-0.581c0.23-.408.48-0.8,0.7-1.21a0.217,0.217,0,0,0-.02-0.191,0.516,0.516,0,0,1,.18-0.737,1.83,1.83,0,0,0,.74-1.593,0.687,0.687,0,0,1,.12-0.372c0.39-.748.8-1.48,1.15-2.244a12.729,12.729,0,0,0,.44-1.463,2.24,2.24,0,0,0-.75.23c-1.08,1.128-2.18,2.251-3.21,3.43a37.593,37.593,0,0,1-4.07,4.44,3.136,3.136,0,0,0-.36.415,1.3,1.3,0,0,1-.43.492,2,2,0,0,1-.79-0.3c0.14,0.359.23,0.6,0.34,0.873a2.948,2.948,0,0,0-1.61,1.727,2.867,2.867,0,0,1-1.34,1.585,1.918,1.918,0,0,0-.81.961,0.6,0.6,0,0,1-.4.34,1.006,1.006,0,0,0-.9.673c-0.28.464-.6,0.9-0.9,1.354-0.22.343-.43,0.7-0.66,1.039a15.391,15.391,0,0,1-1,1.415,2.673,2.673,0,0,1-.79.416,0.6,0.6,0,0,1-.06.348c-0.39.545-.8,1.076-1.23,1.6a1.545,1.545,0,0,0-.42.4c-0.03.562-.44,0.575-0.82,0.624a3.3,3.3,0,0,1-1.13,1.923,4.869,4.869,0,0,0-.48.566c-0.17.244-.3,0.52-0.47,0.76a2.821,2.821,0,0,0-.7.928,3.793,3.793,0,0,1-.83,1.538c-0.76,1.162-1.95,2.039-2.27,3.491a0.761,0.761,0,0,1-.17.238c-0.47.616-.95,1.224-1.4,1.854a0.591,0.591,0,0,0-.1.527,0.564,0.564,0,0,1-.05.724c-0.77,1.36-1.53,2.728-2.31,4.088a3.179,3.179,0,0,0-.45.7c-0.16.651-.23,1.321-0.34,2.006C1301.79,886.264,1301.61,886.6,1301.54,887.077Zm75.48-71.871c0.01-.08.01-0.16,0.02-0.239-1.11-.1-2.23-0.211-3.34-0.294a0.915,0.915,0,0,0-.39.2,0.6,0.6,0,0,1,.02.131Zm-0.54,1.056c0,0.061-.01.122-0.01,0.183l3.62,0.314,0.06-.15a1.918,1.918,0,0,0-.54-0.242c-0.88-.084-1.76-0.141-2.65-0.192A2.023,2.023,0,0,0,1376.48,816.262Zm-49.86-.045c-1.18-.226-2.65-0.128-3.02.323C1324.6,816.432,1325.61,816.325,1326.62,816.217Zm142.17,26.59c-0.12-.145-0.22-0.256-0.33-0.4a0.516,0.516,0,0,0-.16.193,1.273,1.273,0,0,1-.83,1.069c-0.54.336-1.05,0.714-1.59,1.043a3.685,3.685,0,0,1-.77.261,1.5,1.5,0,0,1-.98.717,10.359,10.359,0,0,0-1.52.936,1.886,1.886,0,0,1-1.4.54,0.159,0.159,0,0,0-.1.013c-0.9.461-1.79,0.924-2.86,1.474,0.44,0.087.76,0.141,1.07,0.214a3.932,3.932,0,0,1,1.07.293,28.475,28.475,0,0,1,2.86,1.819,13.241,13.241,0,0,1,1.55,1.668c0.35,0.374.7,0.737,1.04,1.118,0.2,0.229.37,0.485,0.56,0.728,0.12,0.158.25,0.313,0.46,0.582,0.04,0.079.15,0.288,0.27,0.5s0.25,0.426.36,0.645a6.544,6.544,0,0,1,.73,2.944,12.839,12.839,0,0,1,.1,1.507,5.391,5.391,0,0,1-.58,2.582,0.731,0.731,0,0,0-.11.381,3.553,3.553,0,0,1-.38,1.455,30.342,30.342,0,0,1-3.09,5.206,3.207,3.207,0,0,1-.21.281,1.31,1.31,0,0,1-1.06.747c-0.34.372-.57,0.654-0.83,0.9a9.729,9.729,0,0,0-.8.678,28.677,28.677,0,0,1-3.53,3.143,6.906,6.906,0,0,1-1.11.639c-0.46.28-.9,0.6-1.37,0.865-0.37.214-.77,0.377-1.25,0.605a0.858,0.858,0,0,1-.81.629,5.946,5.946,0,0,0-1.02.255,2.642,2.642,0,0,0-.58.483,2.288,2.288,0,0,1-.57.446c-0.66.25-1.33,0.446-2,.672a3.01,3.01,0,0,0-.35.19c-0.93.5-1.87,1.014-2.82,1.487a3.368,3.368,0,0,1-.86.182,0.415,0.415,0,0,0-.17.028c-1.14.962-2.6,1.184-3.94,1.693a1.384,1.384,0,0,1-.6-0.193c-0.3.091-.32,1.052-0.95,0.548l-1.25.281a0.44,0.44,0,0,1,.01.114c0.11,0.027.22,0.053,0.34,0.079a0.564,0.564,0,0,0,.04.12,13.47,13.47,0,0,0-3.78,1.2c-0.06-.2-0.1-0.332-0.16-0.51a0.749,0.749,0,0,0-.21.149,2.647,2.647,0,0,1-2.2,1.269,0.179,0.179,0,0,1-.09-0.01c-0.4-.561-0.68-0.031-1.02.088-0.49.172-1,.285-1.5,0.424-0.87.242-1.74,0.5-2.62,0.724-0.6.153-1.22,0.25-1.83,0.387-0.31.069-.61,0.171-0.91,0.257-0.25.071-.5,0.14-0.72,0.2-0.13-.256-0.23-0.45-0.32-0.644l-0.15.071c0.05,0.127.1,0.254,0.17,0.448-0.34.082-.66,0.156-1.01,0.24,0.01-.17.01-0.3,0.02-0.494a0.775,0.775,0,0,0-.34.077c-0.26.683-.94,0.362-1.4,0.58a2.681,2.681,0,0,1-1.02.231c-1.36.055-2.71,0.1-4.07,0.093a19.141,19.141,0,0,1-2-.222,0.28,0.28,0,0,0-.13.036,1.334,1.334,0,0,1-1.5-.216c0.02,0.18.02,0.277,0.03,0.428-0.95-.218-1.88-0.433-2.82-0.64-0.17-.039-0.37-0.013-0.54-0.066a2.581,2.581,0,0,1-.87-0.361,2.273,2.273,0,0,0-1.09-.528,1.849,1.849,0,0,1-1.68-1.38,0.677,0.677,0,0,0-.44-0.239,0.739,0.739,0,0,1-.61-0.61,6.118,6.118,0,0,0-.62-1.517,3.248,3.248,0,0,1-.07-2.851,28.153,28.153,0,0,1,1.35-2.668,0.389,0.389,0,0,0,.1-0.167c-0.32-.886.72-1.134,0.84-1.806,0.7-.212.51-1.014,0.96-1.438,1-.923,1.89-1.958,2.84-2.935a4.629,4.629,0,0,1,.47-0.273,6.72,6.72,0,0,0,.68-0.613,6.538,6.538,0,0,1,.86-0.932c0.89-.625,1.82-1.172,2.71-1.789a1.883,1.883,0,0,0,.52-0.748,11.95,11.95,0,0,0,1.07-.651c1.23-.912,2.45-1.842,3.67-2.77,0.74-.56,1.46-1.14,2.21-1.692a1.228,1.228,0,0,1,1.25-.37,1.356,1.356,0,0,0,.77-0.483,1.023,1.023,0,0,1,.86-0.364,1.19,1.19,0,0,0,.71-0.387c0.41-.365.77-0.786,1.17-1.161a1.316,1.316,0,0,1,1.11-.422,1.669,1.669,0,0,0,.89-0.376,1.449,1.449,0,0,1,1.11-.458,0.127,0.127,0,0,0,.1-0.019c0.66-.7,1.71-0.645,2.41-1.279,0.43-.388.46-0.5,0-0.873a7.043,7.043,0,0,1-.82-0.657c-0.28-.293-0.5-0.639-0.78-0.943a3.426,3.426,0,0,1-.48-0.584c-0.12-.245-0.21-0.452-0.54-0.373a0.243,0.243,0,0,1-.19-0.019c-0.25-.291-0.48-0.594-0.72-0.89a1.571,1.571,0,0,0-.3-0.325,15.432,15.432,0,0,0-3.68-2.076,5.789,5.789,0,0,1-1.23-.868,1.461,1.461,0,0,1-.62-0.014,10.065,10.065,0,0,1-1.3-.829,2.913,2.913,0,0,0-1.65-.61,1.843,1.843,0,0,1-1.34-.493c-0.48-.887-1.43-0.824-2.07-1.313-0.37-.28-0.69-0.618-0.97-0.865a3.75,3.75,0,0,1-.98-0.569c-0.55-.643-1.02-1.35-1.52-2.034-0.24-.32-0.46-0.648-0.7-0.966a0.683,0.683,0,0,1-.1-0.9,0.463,0.463,0,0,0,.07-0.329,3.59,3.59,0,0,1,.9-2.372,7.4,7.4,0,0,0,.59-1.022,1.656,1.656,0,0,1,.67-1,0.136,0.136,0,0,0,.07-0.124c-0.17-.657.35-0.74,0.75-0.973a2.681,2.681,0,0,0,1.07-1.061,3.668,3.668,0,0,1,.96-1.038c1.62-1.388,3.24-2.769,4.89-4.12a5.226,5.226,0,0,1,1.02-.4,6.01,6.01,0,0,1,.99-0.568,2.221,2.221,0,0,0,.83-0.81,0.252,0.252,0,0,1,.12-0.084c0.78,0.047,1.16-.643,1.77-0.921,0.1-.048.2-0.117,0.3-0.169l2.75-1.374a2.687,2.687,0,0,1,.38-0.139,5.075,5.075,0,0,1,1.06-.314,1.417,1.417,0,0,0,1.32-.61c0.92,0.251,1.27-.746,2-0.9a0.728,0.728,0,0,1,.33-0.082,1.053,1.053,0,0,0,1.21-.405,0.538,0.538,0,0,1,.35-0.17,1.609,1.609,0,0,0,1.33-.424,0.379,0.379,0,0,1,.23-0.088,0.727,0.727,0,0,0,1.05-.462,0.048,0.048,0,0,1,.04-0.024,2.776,2.776,0,0,0,1.59-.576c0.16-.066.4,0.056,0.57-0.007,0.33-.1.66-0.2,0.99-0.311a2.278,2.278,0,0,0,.53-0.233,1.852,1.852,0,0,1,1.58-.518,1.516,1.516,0,0,0,1.24-.344,4.892,4.892,0,0,1,1.7-.62,12.19,12.19,0,0,1,1.62-.3,1.949,1.949,0,0,1,.58.117,0.6,0.6,0,0,1,.89-0.348,0.06,0.06,0,0,0,.05-0.006c0.57-.7,1.5-0.248,2.16-0.664a0.573,0.573,0,0,1,.48-0.042,1.025,1.025,0,0,0,1.11-.15,0.663,0.663,0,0,1,.83-0.086,0.308,0.308,0,0,0,.27,0,3.236,3.236,0,0,1,2-.359,0.4,0.4,0,0,0,.31-0.109,1.259,1.259,0,0,1,1.16-.262c0.28,0.008.57,0,.96,0,0.25,0.34.59,0.252,0.94-.1a0.649,0.649,0,0,1,.37-0.117c0.63-.068,1.27-0.161,1.91-0.172a9.168,9.168,0,0,1,1.33.16l1.21,0.168a1.322,1.322,0,0,1,1.71-.344c0.33,0.1.64,0.223,0.84-.252a0.99,0.99,0,0,0,.1.109l-0.18.372a0.186,0.186,0,0,0,.07.054c0.69-.443,1.38.018,2.07,0.034a0.628,0.628,0,0,1,.33.309,5.891,5.891,0,0,1,.32.607c0.93-.705,1.74-0.215,2.42.311a31.782,31.782,0,0,1,2.39,2.244,0.89,0.89,0,0,0,.31.242,2.351,2.351,0,0,1,1.4,1.535c0.26,0.677.42,1.393,0.62,2.092a5.606,5.606,0,0,0,.22.709,1.71,1.71,0,0,1,.11,1.4,0.537,0.537,0,0,0-.02.428,0.627,0.627,0,0,1-.16.927,1.384,1.384,0,0,1,.34,1.66,29.1,29.1,0,0,1-.98,2.873c-0.23.577-.57,1.109-0.82,1.675a3.793,3.793,0,0,0-.14.678,2.926,2.926,0,0,1-.34.858c-0.73.91-1.51,1.774-2.24,2.679-0.68.842-1.32,1.715-1.98,2.574a0.253,0.253,0,0,1-.05.084C1470.55,841.436,1469.69,842.105,1468.79,842.807Zm-15.1,4.242a1.473,1.473,0,0,1,.1.158,7.372,7.372,0,0,1,.94.009,2.2,2.2,0,0,1,.89.244,1.238,1.238,0,0,0,1.41.028c0.43-.254.85-0.525,1.28-0.774a2.586,2.586,0,0,1,1.01-.507,4.746,4.746,0,0,0,2.04-.851c1.34-.667,2.67-1.345,4.01-2.016a2.478,2.478,0,0,0,1.23-1.116,1.025,1.025,0,0,1,.4-0.342c0.34-.215.71-0.395,1.05-0.619,0.37-.242.71-0.517,1.13-0.829a2.619,2.619,0,0,1,1.96-1.615,1.794,1.794,0,0,1,.3-0.586,6.28,6.28,0,0,0,1.3-1.593c0.43-.708.99-1.334,1.49-2a0.7,0.7,0,0,0,.21-0.92,0.568,0.568,0,0,1,.12-0.344,2.826,2.826,0,0,0,.24-0.312q0.615-1.454,1.2-2.918a0.957,0.957,0,0,0,.02-0.34c0.02-.631.02-1.263,0.06-1.893,0.03-.591.13-1.178,0.16-1.769a1.845,1.845,0,0,0-.19-0.448c-0.05-.182-0.09-0.371-0.13-0.558a2.464,2.464,0,0,0-.13-0.682,1.055,1.055,0,0,1-.31-1.122,0.322,0.322,0,0,0-.08-0.227,4.14,4.14,0,0,0-1.76-1.816,0.428,0.428,0,0,1-.21-0.693,3.552,3.552,0,0,0,.13-0.488l-0.15-.092c-0.17.179-.34,0.359-0.55,0.575-0.62-.441-1.23-0.887-1.86-1.324a1.016,1.016,0,0,0-.38-0.177c-0.36-.067-0.74-0.079-1.09-0.166-0.39-.093-0.75-0.263-1.14-0.367s-0.8-.144-1.19-0.263a0.642,0.642,0,0,0-.88.12,0.912,0.912,0,0,1-.46.127c-0.64.14-1.31-.377-1.93,0.091a0.35,0.35,0,0,1-.23-0.078,1.34,1.34,0,0,0-1.37,0,1.844,1.844,0,0,1-.83.076c-0.39-.023-0.79-0.1-1.18-0.146a0.311,0.311,0,0,0-.17.088,1.431,1.431,0,0,1-1.51.17,2.46,2.46,0,0,1-.85.313,2.777,2.777,0,0,0-1.07.083,15.157,15.157,0,0,1-1.65.258c-0.34.058-.67,0.19-1.02,0.223a0.963,0.963,0,0,1-.71-0.116c-0.31-.452-0.49-0.251-0.7.052a1,1,0,0,1-1.68.151,0.517,0.517,0,0,1-.66.529,2.322,2.322,0,0,0-.64.065c-0.46.106-.91,0.235-1.44,0.373-0.05.274-.25,0.419-0.65,0.282a1.306,1.306,0,0,0-.53.047c-0.25.032-.51,0.069-0.76,0.1,0.04,0.179.18,0.469-.32,0.471a11.552,11.552,0,0,0-3.86,1.031c-0.74.273-1.51,0.51-2.26,0.762a0.1,0.1,0,0,1-.05,0c-0.87-.15-1.51.473-2.26,0.706a8.936,8.936,0,0,0-1.77,1.035,0.326,0.326,0,0,1-.24.04,1.518,1.518,0,0,0-1.37.266c-0.44.234-.84,0.537-1.28,0.766a4.5,4.5,0,0,1-.84.262,3.065,3.065,0,0,0-.6.151c-0.85.456-1.68,0.944-2.53,1.4a0.547,0.547,0,0,1-.48.013c-0.39-.482-0.57-0.159-0.77.162-0.17.272-.27,0.638-0.74,0.462a0.445,0.445,0,0,0-.3.223,2.353,2.353,0,0,1-1.59,1.008,1.969,1.969,0,0,0-.86.458,1.049,1.049,0,0,1-1.14.508c0.06,0.575-.37.577-0.68,0.75a4.779,4.779,0,0,0-1.4.955,1.537,1.537,0,0,1-.79.651,1.956,1.956,0,0,0-1.18.862c-0.31.457-.63,0.9-0.97,1.332a1.768,1.768,0,0,1-.64.612,0.973,0.973,0,0,0-.99.745,0.159,0.159,0,0,1-.08.052,0.574,0.574,0,0,0-.33.864c-0.2.07-.37,0.126-0.4,0.137a2.62,2.62,0,0,1-.22.523c-0.35.423-.74,0.82-1.09,1.246a0.642,0.642,0,0,0-.18.469c0.36,0.568-.19.97-0.3,1.42a1.729,1.729,0,0,0-.13,1.274,7.475,7.475,0,0,0,3.99,3.651,4.948,4.948,0,0,1,.6.323c-0.09.263-.15,0.446-0.21,0.628l0.12,0.08c0.15-.105.3-0.209,0.43-0.3a1.955,1.955,0,0,1,.77.108,1.7,1.7,0,0,1,.37.657c0.31-.1.6-0.07,0.56,0.38a1.034,1.034,0,0,1,.5-0.138,9.655,9.655,0,0,1,.79.644,1.275,1.275,0,0,0,.64.383,2.233,2.233,0,0,1,1.39.432,3.2,3.2,0,0,0,.46.386,2.161,2.161,0,0,1,1.12.951,2.5,2.5,0,0,0,.5.447,0.368,0.368,0,0,0,.12-0.059c-0.06-.131-0.12-0.251-0.18-0.371l0.12-.131c1.02,0.69,2.04,1.38,3.09,2.094-0.21.18-.32,0.268-0.42,0.356,0.01,0.057.03,0.113,0.04,0.17l0.79-.108c0.06,0.061.19,0.185,0.32,0.31,0.9,0.849,1.8,1.689,2.68,2.552a2.3,2.3,0,0,1,.48.723,0.465,0.465,0,0,0,.66.313,9.758,9.758,0,0,1,1.03-.155,0.51,0.51,0,0,0,.27-0.11,2.143,2.143,0,0,1,1.66-.647,1.133,1.133,0,0,0,.45-0.246c0.14-.082.26-0.188,0.4-0.255a6.553,6.553,0,0,1,.71-0.282c0.22-.072.45-0.116,0.67-0.172a4.489,4.489,0,0,1,2.03-.407,0.917,0.917,0,0,0,.43-0.132,4.5,4.5,0,0,1,.77-0.442,8.186,8.186,0,0,1,1.2-.181c0.11,0.036.32,0.1,0.53,0.166,0.02-.162.04-0.324,0.06-0.477,0.34-.093.67-0.206,1.01-0.271a3.1,3.1,0,0,1,1.39-.3,2.067,2.067,0,0,0,.88-0.7c-0.23-.234-0.47-0.467-0.71-0.7a0.066,0.066,0,0,0-.04.007,1.479,1.479,0,0,1-1.49.577,2.164,2.164,0,0,0-.88-0.05c-0.24.025-.46,0.2-0.7,0.214-0.52.039-1.04,0.035-1.56,0.023-1.03-.023-2.09.146-2.99-0.546a0.219,0.219,0,0,0-.19-0.034,0.516,0.516,0,0,1-.72-0.239,8.237,8.237,0,0,1-.75-0.986,1.374,1.374,0,0,1,.26-1.479,31.318,31.318,0,0,1,2.71-1.671,7.8,7.8,0,0,1,1.66-.423,0.614,0.614,0,0,0,.3-0.139c0.23-.245.43-0.545,0.81-0.2a0.459,0.459,0,0,0,.27-0.044c0.3-.086.6-0.2,0.91-0.263,0.62-.127,1.29.369,1.87-0.176a0.111,0.111,0,0,1,.1-0.008c0.59,0.281,1.12-.149,1.69-0.117a3.408,3.408,0,0,1,1.38.188,1.127,1.127,0,0,0,1.11.035,1.547,1.547,0,0,1,.94-0.179,1.34,1.34,0,0,0,1.47-.349c0.87-.882,1.71-1.8,2.54-2.723,0.39-.428.47-1.131,1.16-1.3a0.38,0.38,0,0,0,.08-0.119c0.25-.365.48-0.737,0.74-1.094,0.44-.607.86-1.224,1.33-1.8,0.77-.939,1.58-1.846,2.37-2.771a20.738,20.738,0,0,1,1.62-1.9,10.6,10.6,0,0,0,1.98-2.357,31.006,31.006,0,0,1,5.13-6.732c0.41-.4.77-0.864,1.16-1.285a2.711,2.711,0,0,1,.57-0.48,0.883,0.883,0,0,1,1.35.343,2.169,2.169,0,0,1-.42,2.219c-0.06.048-.15,0.069-0.21,0.117a3.141,3.141,0,0,0-.62.47c-0.46.566-.88,1.165-1.34,1.74a0.606,0.606,0,0,1-.73.258,1.1,1.1,0,0,0-1.13.7,1.316,1.316,0,0,1-.84,1.249,0.422,0.422,0,0,0-.16.264,2.37,2.37,0,0,1-.18.567c-0.44.583-.91,1.144-1.37,1.708-0.69.837-1.43,1.632-2.05,2.518a3.554,3.554,0,0,1-1.27,1.15c-0.21.113-.4,0.251-0.6,0.373,0.21,0.1.37,0.173,0.53,0.25-0.22.23-.43,0.476-0.67,0.682a0.664,0.664,0,0,1-.35-0.026c0.03-.179.06-0.358,0.13-0.706-0.4.477-.72,0.854-1.04,1.232l0.09,0.092a1.121,1.121,0,0,1,.24-0.166c0.15-.055.32-0.083,0.47-0.122a0.967,0.967,0,0,1-.05.462,7.41,7.41,0,0,1-.79.832,0.546,0.546,0,0,1-.43.153c-0.34-.193-0.44,0-0.54.26a4.022,4.022,0,0,1-1.33,1.892,0.692,0.692,0,0,0-.18.235c-0.2.377-.38,0.772-0.61,1.132a0.623,0.623,0,0,1-.93.262,1.035,1.035,0,0,0-.34,0c0.62,0.42.38,0.789,0.1,1.129-0.26.32-.57,0.6-0.85,0.914C1454.47,846.121,1454.09,846.587,1453.69,847.049Zm-9.73,34.444c0.7-.368,1.3-0.728,1.94-1,1.2-.513,2.45-0.938,3.64-1.468,0.84-.37,1.62-0.867,2.43-1.279a8.821,8.821,0,0,0,.96-0.342c0.84-.56,1.64-1.177,2.46-1.761,0.6-.421,1.22-0.8,1.8-1.243,0.6-.463,1.16-0.989,1.77-1.46a4.928,4.928,0,0,0,1.63-1.582,0.824,0.824,0,0,1,.37-0.321,2.825,2.825,0,0,0,1.32-1.294,6.843,6.843,0,0,1,.85-1.154c0.4-.5.87-0.964,1.22-1.5a7.266,7.266,0,0,0,1.18-2.519c0.17-.775.57-1.552,0.73-2.374,0-.031.04-0.058,0.04-0.088,0.08-.814.19-1.628,0.21-2.443,0.01-.351-0.25-0.707-0.25-1.06a4.189,4.189,0,0,0-.97-2.732,1.488,1.488,0,0,1-.31-0.857,0.43,0.43,0,0,0-.42-0.5,1.085,1.085,0,0,1-1.14-.8,1.105,1.105,0,0,0-.28-0.287c-0.74-.618-1.48-1.238-2.23-1.845a2.174,2.174,0,0,0-1.58-.744,0.6,0.6,0,0,1-.36-0.158,4.775,4.775,0,0,0-1.89-.822,4.633,4.633,0,0,0-2.8.062c-0.63.229-1.3,0.372-1.95,0.553a0.312,0.312,0,0,0-.18.059,1.046,1.046,0,0,1-.93.471,3.034,3.034,0,0,0-1.92,1.235,4.132,4.132,0,0,1-.65.763c-0.31.281-.67,0.5-1,0.766a0.643,0.643,0,0,0-.18.327c-0.03.086,0.05,0.22,0.01,0.28a6.539,6.539,0,0,1-.94,1.238,12.569,12.569,0,0,0-2.54,2.869c-0.26.4-.59,0.766-0.86,1.166a0.425,0.425,0,0,1-.56.221,0.106,0.106,0,0,0-.06.051c0.04,0.127.07,0.248,0.12,0.407h-0.66v0.128c0.14,0.053.27,0.105,0.43,0.166a1.287,1.287,0,0,1-.13.289c-0.72.909-1.43,1.832-2.19,2.715a17.148,17.148,0,0,0-2.6,3.466,1.5,1.5,0,0,1-.48.3,0.86,0.86,0,0,0-.28.324,5.713,5.713,0,0,1-.33.955c-0.89,1.368-1.83,2.7-2.72,4.073a3.283,3.283,0,0,0-.63,1.393,4.9,4.9,0,0,1-.6,1.771,0.665,0.665,0,0,1-.75.5,0.433,0.433,0,0,0-.35.125c-0.15.6-.56,0.388-0.94,0.344-0.6-.068-0.81-0.283-0.7-0.883a4.272,4.272,0,0,1,.4-1.008,4.246,4.246,0,0,0,.53-1.01,4.763,4.763,0,0,1,1.24-2.172,2.682,2.682,0,0,0,.7-1.388,6.665,6.665,0,0,1,.63-2.386,3.514,3.514,0,0,0,.2-0.965c0.06-.6.05-1.2,0.11-1.8,0.08-.839.64-1.66,0.08-2.522a0.378,0.378,0,0,1,.01-0.146c-0.05-.35-0.08-0.7-0.14-1.049a3.22,3.22,0,0,1-.16-0.718,1.82,1.82,0,0,0-.58-1.483,1.751,1.751,0,0,0-.99-0.45c-0.45-.063-0.56.151-0.42,0.64-0.94.455-1.89,0.912-2.84,1.368a0.572,0.572,0,0,1-.19.07,3.984,3.984,0,0,0-1.81.985,4.509,4.509,0,0,1-.45.311c-1.04.545-2.1,1.079-3.14,1.623a0.748,0.748,0,0,0-.39.28,0.992,0.992,0,0,1-.73.585,17.472,17.472,0,0,0-1.93,1.2c-0.8.613-1.54,1.312-2.31,1.966q-0.525.446-1.08,0.855a0.942,0.942,0,0,1-.54.274,0.459,0.459,0,0,0-.59.193c-1.05.858-2.09,1.712-3.11,2.593a7.075,7.075,0,0,0-1.04,1.1,1.254,1.254,0,0,1-.87.664,0.669,0.669,0,0,0-.43.3,12.27,12.27,0,0,1-2.57,3.1,5.027,5.027,0,0,0-1.5,1.9c-0.08.217-.21,0.567-0.62,0.351a1.016,1.016,0,0,0-.29.233,0.577,0.577,0,0,1,.07.1l0.29-.028a11.892,11.892,0,0,1-.15,1.239c-0.15.591-.35,1.168-0.52,1.749a0.262,0.262,0,0,1-.08.12c-0.45.157-.26,0.448-0.17,0.728,0.05,0.151.08,0.31,0.12,0.471l-0.38.048a2.276,2.276,0,0,1,.28.506,3.97,3.97,0,0,0,1.78,2.467c0.64,0.383,1.49.368,1.95,1.083a0.2,0.2,0,0,0,.14.037c0.53,0.017.98,0.47,1.55,0.279a0.593,0.593,0,0,1,.24.043c0.34,0.053.67,0.124,1.01,0.15,0.29,0.022.6-.045,0.89,0a3.482,3.482,0,0,1,.7.257,11.475,11.475,0,0,1,1.83-.187c1.82,0.092,3.63.02,5.45-.061a10.565,10.565,0,0,0,1.73-.393,1.954,1.954,0,0,1,.83-0.112,2.383,2.383,0,0,1,.71.546c-0.01-.257-0.03-0.476-0.05-0.737l0.52,0.2-0.03-.122c0.21-.087.43-0.173,0.71-0.286v0.5a1.663,1.663,0,0,1,.52-0.539c0.75-.189,1.53-0.3,2.29-0.419a1.415,1.415,0,0,0,1.15-.476,0.654,0.654,0,0,1,.32-0.088c0.73-.181,1.45-0.38,2.18-0.536,0.39-.084.8-0.1,1.29-0.148a0.834,0.834,0,0,1,.23-0.339,3.089,3.089,0,0,0,1.57-.526,5.283,5.283,0,0,1,.98-0.082,4.349,4.349,0,0,1,2.72-.685c-0.04-.107-0.08-0.207-0.11-0.275,0.55-.172,1.1-0.3,1.61-0.515,0.39-.167,1.04.073,1.07-0.678a1.6,1.6,0,0,0,.48-0.007c0.7-.25,1.39-0.52,2.08-0.79a2.029,2.029,0,0,0,.73-0.336C1443.65,881.411,1443.81,881.346,1443.96,881.493Zm-8.83-14.51a0.817,0.817,0,0,0,.31-0.1,9.534,9.534,0,0,0,.98-1.064c1.08-1.521,2.12-3.067,3.19-4.594A16.478,16.478,0,0,1,1441,859.4a9.165,9.165,0,0,0,1.65-1.913,2.4,2.4,0,0,1,.48-0.5c0.54-.525,1.09-1.027,1.58-1.589a0.763,0.763,0,0,0,.09-0.718,0.593,0.593,0,0,0-.92.042,4.427,4.427,0,0,1-.77.707,0.512,0.512,0,0,1-.47.051c-0.26-.292-0.46-0.13-0.69,0a2.564,2.564,0,0,1-.63.255c-0.73.166-1.46,0.3-2.18,0.465a0.3,0.3,0,0,0-.18.16,1.51,1.51,0,0,1-1.38.813,3.255,3.255,0,0,0-.92.167,9.924,9.924,0,0,1-2.39.945c-0.53.083-.61,0.565-0.34,1.02a2.18,2.18,0,0,1,.17.626c0.45-.044.74,0.074,0.52,0.658a1.242,1.242,0,0,0,.09.433,2.006,2.006,0,0,1,.03.488c-0.04.415-.1,0.828-0.16,1.25l0.55,0.117v4.1Zm12.6-18.931c-0.39.6-.92,0.3-1.41,0.3-0.38,0-.77.03-1.16,0.062-0.57.047-1.14,0.121-1.71,0.158-0.37.025-.75,0-1.11,0a0.919,0.919,0,0,1-.93.949,2.918,2.918,0,0,0-.94.287c-0.52.287-1,.639-1.59,1.026a4.919,4.919,0,0,1,1.28.077,10.2,10.2,0,0,0,3.24.16,6.08,6.08,0,0,0,1.1-.159,3.792,3.792,0,0,0,.49-0.081,0.862,0.862,0,0,1,1.23.282,3.149,3.149,0,0,0,.1-0.352,0.846,0.846,0,0,0-.01-0.191c1.22-.333,2.54-0.253,3.35-1.493,0.1,0.161.16,0.248,0.27,0.434,0.13-.424.24-0.774,0.38-1.237,0.04,0.025-.03-0.045-0.11-0.054-0.52-.058-1.05-0.1-1.57-0.151a0.11,0.11,0,0,0-.09.023C1448.26,848.523,1447.99,848.309,1447.73,848.052Zm5.47,0.831a2.8,2.8,0,0,0-.7-0.395,0.648,0.648,0,0,0-.49.213,0.92,0.92,0,0,0-.08.46,1.957,1.957,0,0,0,.51.021A6.164,6.164,0,0,0,1453.2,848.883Zm-49.17,31.593-0.09.14,0.51,0.371c0.11-.168.23-0.337,0.34-0.5-0.03-.035-0.07-0.069-0.1-0.1Zm13.26-33.614c0.19,0.9.19,0.9,0.68,0.722C1417.74,847.338,1417.51,847.1,1417.29,846.862Zm48.13-29.94c0.44,0.486.65,0.447,1.03-.132Zm1.18,49.014c0.06-.08.11-0.16,0.17-0.24-0.16-.152-0.32-0.3-0.47-0.456a0.978,0.978,0,0,0-.18.4A1.947,1.947,0,0,0,1466.6,865.936Zm-47.86-18.653a1.2,1.2,0,0,0-.2.416,1.055,1.055,0,0,0,.19.331,0.656,0.656,0,0,0,.27-0.217A1.953,1.953,0,0,0,1418.74,847.283Zm38.32,28.322a1.081,1.081,0,0,0-.41-0.205,1.16,1.16,0,0,0-.34.209,0.852,0.852,0,0,0,.3.25A1.148,1.148,0,0,0,1457.06,875.605Zm-31.72-47.19a1.018,1.018,0,0,1-.05.166,1.276,1.276,0,0,0,.42.236,0.8,0.8,0,0,0,.35-0.218c-0.02-.045-0.03-0.089-0.05-0.134Zm-8.66,7.3,0.21-.137c-0.09-.17-0.19-0.341-0.28-0.511-0.1.067-.19,0.134-0.29,0.2Zm130.94-5.659a1.354,1.354,0,0,1,1.71-.476,0.737,0.737,0,0,1,.41,1.124c-0.64,1.034-1.3,2.054-1.99,3.045a17.286,17.286,0,0,1-1.42,1.691,2.776,2.776,0,0,1-.71.385c-0.15.079-.29,0.168-0.44,0.256-0.04-.041-0.09-0.1-0.22-0.257a0.99,0.99,0,0,0,.02.36c0.47,0.364.29,0.726,0,1.063-0.34.383-.73,0.723-1.06,1.112a10.4,10.4,0,0,0-.81,1.124,1.769,1.769,0,0,1-.95.907,0.582,0.582,0,0,0-.23.384c-0.12.356-.28,0.583-0.69,0.326a1.207,1.207,0,0,1-.48,1.327,1.213,1.213,0,0,0-.56-1.194c0.13,0.263.21,0.431,0.3,0.6-0.14.123-.26,0.237-0.42,0.382a0.571,0.571,0,0,1,.19.88,5.259,5.259,0,0,1-.89,1.187,3.891,3.891,0,0,0-1.37,1.907,1.113,1.113,0,0,1-.35.477,7.227,7.227,0,0,0-1.24,1.3,6.236,6.236,0,0,1-1.31,1.769c-0.61.459-1.13,1.033-1.72,1.528a1.536,1.536,0,0,0-.71,1.177,0.952,0.952,0,0,0,.14.395,2.925,2.925,0,0,1,.87,1.4,1.961,1.961,0,0,0,.63.676,0.824,0.824,0,0,1,.46.872,0.787,0.787,0,0,0,.19.462c0.39-.017.68-0.029,0.97-0.045a0.755,0.755,0,0,0,.24-0.04c0.37-.154.74-0.311,1.11-0.477a24.047,24.047,0,0,1,2.76-1.233c1.44-.446,2.4-1.55,3.59-2.344a0.853,0.853,0,0,1,1.41.382,2.224,2.224,0,0,1,.13,1.087,1,1,0,0,1-.8.736c-0.3.109-.57,0.265-0.87,0.382a10.168,10.168,0,0,0-2.27.935,11.3,11.3,0,0,1-2.01.789,2.709,2.709,0,0,1-.66.128,0.641,0.641,0,0,1-1.06.262,0.139,0.139,0,0,0-.09-0.032,5.526,5.526,0,0,0-.98.525,0.972,0.972,0,0,0,.02,1.667,0.164,0.164,0,0,1,.05.082c-0.02,1.035,1.01,1.124,1.51,1.687a0.957,0.957,0,0,1,.5.791,0.783,0.783,0,0,0,.39.482c0.84,0.569,1.7,1.108,2.54,1.674a4.851,4.851,0,0,1,.57.566,5.536,5.536,0,0,1,1.36-.042,12.681,12.681,0,0,0,1.97.215,3.933,3.933,0,0,0,.7-0.184c0.37-.061.74-0.1,1.11-0.128a1.381,1.381,0,0,0,.39.036,5.463,5.463,0,0,0,1.98-.962,0.874,0.874,0,0,1,.79-0.213,2.536,2.536,0,0,0,1.42-.446,7.1,7.1,0,0,0,1.38-1.354,2.741,2.741,0,0,0,.46-1.05,1.605,1.605,0,0,1,1.1-1.089c0.32,0.139.51,0.212,0.69,0.31a0.417,0.417,0,0,1,.22.216,2.422,2.422,0,0,1-.29,1.909c-0.25.29-.1,0.831-0.61,0.961a0.349,0.349,0,0,1-.08.046c-0.71-.2-0.93.459-1.37,0.743a15.518,15.518,0,0,1-2.38,1.256c-0.79.336-1.63,0.548-2.45,0.819a4.139,4.139,0,0,1-.51.2c-0.3.059-.6,0.082-0.9,0.115a1.452,1.452,0,0,0-.29.011,3.777,3.777,0,0,1-2.01.4,7.094,7.094,0,0,0-1.57.135,1.914,1.914,0,0,1-.56-0.19c-0.14-.041-0.28-0.052-0.42-0.093a3.176,3.176,0,0,1-.81-0.278c-0.38-.247-0.79-0.463-1.16-0.693a5.3,5.3,0,0,1-2.27-1.677,1.76,1.76,0,0,0-.75-0.446,8.708,8.708,0,0,0-.5-0.822,3.858,3.858,0,0,0-.5-0.488,1.629,1.629,0,0,1-.61-0.962,3.154,3.154,0,0,0-.96-1.174c-0.15-.161-0.41-0.172-0.32-0.546,0.08-.268-0.67-0.6-1-0.462a0.792,0.792,0,0,1-.92.069,0.272,0.272,0,0,0-.23.036,5.541,5.541,0,0,1-2.54.454c-0.45.051-.92,0.061-1.37,0.121a0.507,0.507,0,0,0-.31.231,3.143,3.143,0,0,1-1.74,1.643c0.5,0.344.37,0.628,0.12,0.967a25.758,25.758,0,0,0-2.26,3.265,10.066,10.066,0,0,1-1.4,1.9,1.766,1.766,0,0,1-.47.3l0.59-.055c-0.18.339-.3,0.6-0.45,0.825a2.072,2.072,0,0,0-.73,1.3,1.57,1.57,0,0,1-.62.676,1.41,1.41,0,0,0-.65,1.191,9.4,9.4,0,0,1-.26,2.027,0.755,0.755,0,0,1-.27.518,10.814,10.814,0,0,1-1.62.732c-0.43.146-.66-0.068-0.66-0.541a4.274,4.274,0,0,1,.59-2.3,37.928,37.928,0,0,1,3.65-5.593c0.26-.293.59-0.517,0.87-0.787a0.847,0.847,0,0,0,.13-0.29,4.071,4.071,0,0,1,.35-0.869c0.72-1.013,1.49-1.993,2.21-3a3.821,3.821,0,0,0,.26-0.691c0.12-.235.26-0.455,0.4-0.676s0.3-.441.45-0.66l-0.09-.163c-0.79,0-1.58-.011-2.38.01a0.672,0.672,0,0,0-.4.214,27.117,27.117,0,0,1-4.96,3.926,1.084,1.084,0,0,1-.47.148c-0.24.018-.42-0.014-0.34,0.357a0.843,0.843,0,0,1-.44.485c-1.12.683-2.24,1.368-3.4,1.994a3.9,3.9,0,0,1-1.09.194,1.592,1.592,0,0,0-.6.168,4.212,4.212,0,0,1-2.42.585,2.047,2.047,0,0,1-1.73-.954,4.443,4.443,0,0,1-.68-3.987c0.24-.845.49-1.685,0.74-2.527,0.01-.032.02-0.067,0.03-0.093,0.79-1.124,1.59-2.24,2.37-3.376a6,6,0,0,0,.38-0.875,0.75,0.75,0,0,1,.17-0.325,0.984,0.984,0,0,0,.51-0.94c-0.02-.515-0.31-0.8-0.8-0.587s-0.94.548-1.42,0.791a4.83,4.83,0,0,1-.76.207,2.542,2.542,0,0,0-.79.286,8.34,8.34,0,0,0-.64.755,1.229,1.229,0,0,1-.63.439,1.44,1.44,0,0,0-.98.483,3.233,3.233,0,0,1-.67.306,6.368,6.368,0,0,1-.83.93c-0.81.612-1.71,1.11-2.47,1.767a2.646,2.646,0,0,1-1.38.889,0.892,0.892,0,0,1-.86.971,0.325,0.325,0,0,0-.23.164,15.858,15.858,0,0,1-2.35,2.69c-0.38.406-.97,0.5-1.22,0.858a4.821,4.821,0,0,1-1.33.947c-0.48.374-.76,1-1.25,1.368a6.285,6.285,0,0,1-2.69,1.636,0.769,0.769,0,0,1-.62-0.227,0.837,0.837,0,0,1-.28-0.97,25.43,25.43,0,0,0,.84-2.42,11.6,11.6,0,0,1,1.66-2.918c0.24-.344.63-0.592,0.85-0.944a2.086,2.086,0,0,0,.5-1.255,1.231,1.231,0,0,1,.12-0.954c-0.71.428-1.51,0.9-2.31,1.386-0.91.554-1.8,1.129-2.72,1.666a3.653,3.653,0,0,1-.71.179,2.789,2.789,0,0,0-.67.294c-0.48.314-.82,0.867-1.53,0.732a1.166,1.166,0,0,0-.5.343,0.445,0.445,0,0,1-.16.111,6.457,6.457,0,0,1-2.34.46c-0.34-.066-0.69-0.136-1.03-0.179-0.83-.1-0.91-0.823-1.18-1.384-0.15-.307-0.24-0.637-0.35-0.926a2.772,2.772,0,0,0-.68.012,1.882,1.882,0,0,0-.74.346,12.2,12.2,0,0,0-1.03,1.017,2.009,2.009,0,0,1-1.54.729,0.478,0.478,0,0,0-.29.154,2,2,0,0,1-2.25.143,5.024,5.024,0,0,0-.46-0.292,1.592,1.592,0,0,1-.9-1.7,1.931,1.931,0,0,0-.09-0.579,2.024,2.024,0,0,1,.31-1.7c0.14-.226.31-0.436,0.43-0.673a5.891,5.891,0,0,1,1.97-1.973c0.29-.23.54-0.526,0.82-0.784a23.631,23.631,0,0,1,2.04-1.835,5.571,5.571,0,0,1,1.62-.712,1.228,1.228,0,0,1,1.48.532,8.9,8.9,0,0,1,.57.937c0.14,0.252.19,0.623,0.58,0.52a1.759,1.759,0,0,0,.68-0.419,4.959,4.959,0,0,0,.59-0.712,1.208,1.208,0,0,0,.24-0.492,1.273,1.273,0,0,1,1.11-.864,1.7,1.7,0,0,1,.97.349,1.724,1.724,0,0,1-.05.532,0.4,0.4,0,0,1,.19.068,0.722,0.722,0,0,1,.3.326,0.4,0.4,0,0,1-.19.335,0.467,0.467,0,0,0-.34.561,0.706,0.706,0,0,1-.21.427c-0.83,1.061-1.68,2.109-2.52,3.172a1.891,1.891,0,0,0-.57,1.439,1.156,1.156,0,0,1-.26.568,0.671,0.671,0,0,0,.54,1.085c0.34,0.049.67,0.18,1,.2a2.639,2.639,0,0,0,.81-0.13c0.37-.1.74-0.216,1.1-0.344a5,5,0,0,0,.91-0.383c0.69-.413,1.34-0.88,2.03-1.289a3.675,3.675,0,0,1,.83-0.274,0.878,0.878,0,0,0,.41-0.119,3.581,3.581,0,0,1,1.91-1c0.21-.088.51-0.1,0.46-0.465a0.374,0.374,0,0,1,.15-0.192c0.75-.556,1.5-1.126,2.28-1.653a4.876,4.876,0,0,1,.89-0.4c0.19-.254.33-0.452,0.48-0.646,0.33-.432.64-0.879,1-1.287,0.31-.36.69-0.668,1.02-1.015a3.091,3.091,0,0,0,.46-0.607c0.31-.56.56-1.152,0.88-1.7a2.8,2.8,0,0,0,.55-1.666,2.646,2.646,0,0,1,.49-0.976c0.52,0.261,1.01.484,1.47,0.754a0.481,0.481,0,0,1,.11.429,2.328,2.328,0,0,1-.38.91,2.27,2.27,0,0,0-.46,1.541,0.734,0.734,0,0,1-.23.36c-0.27.313-.59,0.594-0.83,0.93a3.6,3.6,0,0,0-.3.757,2.4,2.4,0,0,1-.19.458q-1.2,1.926-2.43,3.84a0.82,0.82,0,0,1-.28.158,0.5,0.5,0,0,0-.2.128c-0.04.744-.63,0.943-1.23,1.233-0.04-.154-0.08-0.3-0.13-0.506-0.1.153-.18,0.279-0.28,0.439,0.46,0.225.55,0.475,0.19,0.869a5.341,5.341,0,0,0-.32.77c-0.31.49-.67,0.949-1.01,1.422-0.27.389-.55,0.779-0.86,1.212l-0.4-.052a1.1,1.1,0,0,0,.26,1.27,0.5,0.5,0,0,0,.46.018c0.93-.637,1.83-1.309,2.75-1.951,0.32-.218.68-0.361,1-0.579a0.767,0.767,0,0,0,.14-0.406,0.868,0.868,0,0,1,.61-0.722,0.907,0.907,0,0,0,.3-0.3,1.74,1.74,0,0,1,.15-0.195,8.719,8.719,0,0,0,1.05-1.074,36.986,36.986,0,0,1,4.22-3.395,1.129,1.129,0,0,1,.5-0.079,1.912,1.912,0,0,1,.27-0.618,4.058,4.058,0,0,1,.86-0.673c1.09-.637,2.2-1.236,3.29-1.875,0.78-.458,1.53-0.955,2.17-1.358,0.38,0.236.69,0.433,1.01,0.63,0.1-.193.21-0.386,0.34-0.629l-0.55.027a1.024,1.024,0,0,1,.28-0.338,1.262,1.262,0,0,1,1.45-.126c0.26,0.185.79,0.048,0.71,0.593a4.475,4.475,0,0,1-.28,1,14.721,14.721,0,0,1-.8,1.983c-0.68,1.2-1.49,2.321-2.15,3.529a3.063,3.063,0,0,0-.66,1.385,2.752,2.752,0,0,1-.68,1.485,2.217,2.217,0,0,0-.32,1.606,7.577,7.577,0,0,0,.78,1.866,0.389,0.389,0,0,0,.65.155,0.583,0.583,0,0,1,.81.053,0.929,0.929,0,0,0,.61.09,1.3,1.3,0,0,0,.46-0.188,0.547,0.547,0,0,1,.84.148c1.21-.7,2.4-1.39,3.59-2.067a8.612,8.612,0,0,0,2.44-1.614,2.178,2.178,0,0,1,.83-0.541,9.912,9.912,0,0,0,2.9-2.253,13.63,13.63,0,0,1-.44-1.653,1.527,1.527,0,0,1,.16-1.069,7.006,7.006,0,0,1,1.85-1.774,3.327,3.327,0,0,0,1.17-.959,0.382,0.382,0,0,1,.28-0.162,3.077,3.077,0,0,0,1.88-.665,6.834,6.834,0,0,1,2.72-.937,2.539,2.539,0,0,1,.64,0c0.85,0.137,1.04.1,1.34-.7a4.951,4.951,0,0,1,1.15-1.592c0.38-.42.74-0.861,1.08-1.311a0.749,0.749,0,0,1,1.05-.258,0.326,0.326,0,0,0,.25.037,0.346,0.346,0,0,0,.08-0.3,1.786,1.786,0,0,1,.55-2.113,4.838,4.838,0,0,0,.67-0.745,2.407,2.407,0,0,0,.32-0.78,1.615,1.615,0,0,1,1.05-.955,1.147,1.147,0,0,1,.38.4c0.06-.048.14-0.12,0.23-0.2-0.58-.434-0.61-0.569-0.14-1.12,0.17-.2.3-0.695,0.82-0.168a1.636,1.636,0,0,1,.77-1.8,3.443,3.443,0,0,0,.67-1.039,0.788,0.788,0,0,1,.88-0.276,1.763,1.763,0,0,1,.07.363l-0.15.088,0.95,0.615c0.02-.633-1.06-0.785-0.37-1.471-0.22-.079-0.39-0.137-0.63-0.22,0.37-.519.72-1.012,1.08-1.518,0.36,0.2-.45.855,0.38,0.892-0.08-.243.49-0.515-0.1-0.744a1.447,1.447,0,0,1,.18-0.715c0.39-.535.83-1.027,1.27-1.527a3.19,3.19,0,0,1,.38-0.321c-0.05-.019-0.09-0.037-0.13-0.056a5.037,5.037,0,0,1,.31-0.855,8.9,8.9,0,0,1,.69-1.038c0.44-.588.57-1.4,1.3-1.785a1.016,1.016,0,0,0,.16-0.466h0.46c-0.32.463,0.27,0.742,0.18,1.24,0.3-.507.55-0.92,0.81-1.365-0.16.093-.34,0.2-0.53,0.3C1547.97,830.18,1547.79,830.12,1547.62,830.06Zm-73.71,30.789c0,0.432-.02.795,0.01,1.154a0.581,0.581,0,0,0,.82.615,15.512,15.512,0,0,0,1.97-.664,0.853,0.853,0,0,0,.5-0.549,0.57,0.57,0,0,1,.52-0.541c0.64-.271,1.27-0.56,1.91-0.851a0.577,0.577,0,0,0,.24-0.214c0.43-.723.8-1.481,1.27-2.166a1.027,1.027,0,0,0,.31-0.948,1.1,1.1,0,0,0-.87-0.4,0.949,0.949,0,0,1-1.07-.324,0.273,0.273,0,0,0-.24-0.036,2.64,2.64,0,0,0-.88.368c-0.76.665-1.48,1.381-2.21,2.082a0.307,0.307,0,0,0-.09.215,1.534,1.534,0,0,1-.8,1.221,2.464,2.464,0,0,0-.45.51A0.7,0.7,0,0,1,1473.91,860.849Zm52.07-6.341c-0.39.334-.78,0.631-1.12,0.965-0.36.344-.67,0.736-1.02,1.088-0.55.555-.53,0.7,0.18,1.013a4.049,4.049,0,0,0,2.46.248,2.046,2.046,0,0,0,1.53-1.077c0.55-.934,1.09-1.876,1.64-2.807a0.8,0.8,0,0,1,.32-0.269,0.808,0.808,0,0,1,.32-0.011,0.369,0.369,0,0,0-.06-0.165,1.5,1.5,0,0,0-.45-0.049,1.978,1.978,0,0,1-.57.113,1.442,1.442,0,0,0-1.43.354c-0.21.185-.45,0.334-0.67,0.509-0.57.445-.57,0.446-1.08-0.1a1.345,1.345,0,0,0-.18-0.132,0.266,0.266,0,0,0-.05.052A3.133,3.133,0,0,0,1525.98,854.508Zm4,1-0.09-.105a0.868,0.868,0,0,0-.32.254,0.479,0.479,0,0,0,.09.391c0.28,0.4.14,0.763-.36,0.8-0.26.017-.44,0.036-0.41,0.337a0.374,0.374,0,0,0,.52.313c0.49-.071.98-0.15,1.47-0.21a2.15,2.15,0,0,1,.39.04,2.032,2.032,0,0,0,.34,0,1.4,1.4,0,0,1,.62-0.072c0.54,0.265.63-.305,0.91-0.477a1.108,1.108,0,0,0-.13-0.665,9.232,9.232,0,0,0-.77-1.365,1,1,0,0,0-.59-0.44,0.834,0.834,0,0,0-.58.364c-0.22.305-.34,0.682-0.55,1a2.116,2.116,0,0,1-.49.417,1.131,1.131,0,0,0-.11-0.108Zm11.12-15.665,0.84-.193c-0.21-.118-0.43-0.235-0.67-0.366C1541.2,839.525,1541.15,839.675,1541.1,839.841Z" transform="translate(-1268.12 -812.938)"/>
</svg>
