<?xml version="1.0" standalone="no"?>
<!DOCTYPE svg PUBLIC "-//W3C//DTD SVG 1.1//EN" "http://www.w3.org/Graphics/SVG/1.1/DTD/svg11.dtd" >
<svg xmlns="http://www.w3.org/2000/svg" xmlns:xlink="http://www.w3.org/1999/xlink" version="1.1">
<metadata>
Created by FontForge 20170731 at Mon Sep 28 06:45:19 2020
 By Aleksey,,,
Copyright (c) 2005 The Hoefler Type Foundry, Inc., dba Hoefler &#38; Frere-Jones. All Rights Reserved.
</metadata>
<defs>
<font id="GothamProNarrow-Bold" horiz-adv-x="1024" >
  <font-face 
    font-family="Gotham Pro Narrow Bold"
    font-weight="700"
    font-stretch="normal"
    units-per-em="2048"
    panose-1="2 0 8 6 3 0 0 2 0 4"
    ascent="1638"
    descent="-410"
    x-height="1098"
    cap-height="1434"
    bbox="-123 -334 2206 1896"
    underline-thickness="40"
    underline-position="-312"
    unicode-range="U+0020-2212"
  />
<missing-glyph 
d="M0 0v1434h1024v-1434h-1024zM166 100h694l-348 523zM100 197l351 520l-351 520v-1040zM922 197v1040l-351 -520zM512 809l348 522h-694z" />
    <glyph glyph-name="fi" unicode="fi" horiz-adv-x="1239" 
d="M1116 1214h-303v265h303v-265zM664 852h-211v-852h-289v852h-111v240h111v71q0 328 319 328q99 0 183 -25v-239q-52 18 -107 18q-108 0 -108 -112v-43h213v-238zM1110 0h-291v1098h291v-1098z" />
    <glyph glyph-name="fl" unicode="fl" horiz-adv-x="1239" 
d="M664 852h-211v-852h-289v852h-111v240h111v71q0 328 319 328q99 0 183 -25v-239q-52 18 -107 18q-108 0 -108 -112v-43h213v-238zM1110 0h-291v1479h291v-1479z" />
    <glyph glyph-name="ffi" unicode="ffi" horiz-adv-x="1923" 
d="M664 852h-211v-852h-289v852h-111v240h111v71q0 328 319 328q99 0 183 -25v-239q-52 18 -107 18q-108 0 -108 -112v-41h213v-240zM1352 852h-211v-852h-289v852h-111v240h111v71q0 328 319 328q99 0 183 -25v-239q-52 18 -107 18q-108 0 -108 -112v-41h213v-240z
M1802 1214h-303v265h303v-265zM1794 0h-291v1098h291v-1098z" />
    <glyph glyph-name="ffl" unicode="ffl" horiz-adv-x="1923" 
d="M664 852h-211v-852h-289v852h-111v240h111v71q0 328 319 328q99 0 183 -25v-239q-52 18 -107 18q-108 0 -108 -112v-41h213v-240zM1352 852h-211v-852h-289v852h-111v240h111v71q0 328 319 328q99 0 183 -25v-239q-52 18 -107 18q-108 0 -108 -112v-41h213v-240zM1794 0
h-291v1479h291v-1479z" />
    <glyph glyph-name=".notdef" 
d="M0 0v1434h1024v-1434h-1024zM166 100h694l-348 523zM100 197l351 520l-351 520v-1040zM922 197v1040l-351 -520zM512 809l348 522h-694z" />
    <glyph glyph-name=".null" horiz-adv-x="0" 
 />
    <glyph glyph-name="nonmarkingreturn" horiz-adv-x="682" 
 />
    <glyph glyph-name="space" unicode=" " horiz-adv-x="526" 
 />
    <glyph glyph-name="exclam" unicode="!" horiz-adv-x="600" 
d="M473 1393l-94 -918h-158l-92 918v41h344v-41zM459 0h-318v313h318v-313z" />
    <glyph glyph-name="quotedbl" unicode="&#x22;" horiz-adv-x="956" 
d="M889 1421l-203 -641h-137l24 654h316v-13zM451 1421l-205 -641h-137l26 654h316v-13z" />
    <glyph glyph-name="numbersign" unicode="#" horiz-adv-x="1234" 
d="M1176 879h-177l-45 -316h162v-250h-198l-46 -313h-237l45 313h-246l-47 -313h-235l45 313h-140v250h176l46 316h-160v249h198l43 306h238l-45 -306h248l43 306h237l-45 -306h140v-249zM764 879h-248l-45 -316h248z" />
    <glyph glyph-name="dollar" unicode="$" horiz-adv-x="1136" 
d="M680 -207h-199v207q-221 27 -399 156l113 239q172 -122 313 -143v346q-104 42 -172.5 82t-121.5 91.5t-77 117.5t-24 151v2q0 158 100.5 262t267.5 128v131h199v-129q172 -19 321 -119l-96 -246q-142 90 -252 111v-326q233 -104 318.5 -202t85.5 -257v-2
q0 -157 -104 -260.5t-273 -128.5v-211zM786 381q0 52 -28.5 87t-104.5 71v-287q133 17 133 127v2zM383 1061q0 -50 26 -80.5t99 -65.5v267q-125 -17 -125 -119v-2z" />
    <glyph glyph-name="percent" unicode="%" horiz-adv-x="1583" 
d="M705 1069q0 -158 -87.5 -260t-226.5 -102q-138 0 -224.5 101.5t-86.5 258.5v18q0 158 86.5 260.5t226.5 102.5q138 0 225 -102.5t87 -260.5v-16zM1366 1434l-934 -1434h-213l932 1434h215zM1503 348q0 -158 -87.5 -260t-227.5 -102q-137 0 -223 102t-86 260v17
q0 158 86.5 260t226.5 102q138 0 224.5 -101.5t86.5 -258.5v-19zM504 1069v14q0 85 -30.5 135t-82.5 50q-53 0 -81.5 -48.5t-28.5 -134.5v-14q0 -85 30.5 -134.5t81.5 -49.5q53 0 82 48t29 134zM1303 348v14q0 85 -31 135t-84 50q-52 0 -80.5 -48.5t-28.5 -133.5v-15
q0 -85 30.5 -134.5t82.5 -49.5q53 0 82 48t29 134z" />
    <glyph glyph-name="ampersand" unicode="&#x26;" horiz-adv-x="1263" 
d="M1223 119l-215 -146l-138 156q-165 -149 -372 -149q-190 0 -316.5 111.5t-126.5 293.5v6q0 257 262 404q-106 160 -106 297v8q0 148 107 252t286 104q164 0 266.5 -98t102.5 -246v-8q0 -244 -273 -377l172 -207q47 84 109 228l219 -99q-67 -178 -160 -321zM717 1090v8
q0 59 -33 93t-86 34q-55 0 -88 -37t-33 -96v-9q0 -45 18.5 -88t61.5 -102q81 39 120.5 86.5t39.5 110.5zM715 303l-246 303q-59 -40 -89 -92.5t-30 -107.5v-9q0 -76 51 -124t129 -48q97 0 185 78z" />
    <glyph glyph-name="quotesingle" unicode="'" horiz-adv-x="520" 
d="M453 1421l-203 -641h-141l26 654h318v-13z" />
    <glyph glyph-name="parenleft" unicode="(" horiz-adv-x="821" 
d="M743 -90l-94 -197q-538 252 -538 877q0 620 538 872l94 -196q-182 -120 -265 -283.5t-83 -392.5q0 -231 82.5 -394.5t265.5 -285.5z" />
    <glyph glyph-name="parenright" unicode=")" horiz-adv-x="821" 
d="M711 590q0 -624 -539 -877l-96 197q184 121 266 284.5t82 395.5q0 229 -82.5 392.5t-265.5 283.5l96 196q539 -253 539 -872z" />
    <glyph glyph-name="asterisk" unicode="*" horiz-adv-x="798" 
d="M719 1016l-86 -146l-184 146l34 -240h-168l35 240l-184 -146l-84 146l215 90l-215 90l84 145l184 -145l-35 240h168l-34 -240l184 145l86 -145l-217 -90z" />
    <glyph glyph-name="plus" unicode="+" horiz-adv-x="1185" 
d="M1075 588h-346v-355h-272v355h-346v266h346v354h272v-354h346v-266z" />
    <glyph glyph-name="comma" unicode="," horiz-adv-x="544" 
d="M430 51q0 -187 -90.5 -280.5t-267.5 -102.5l-23 121q104 13 151.5 69.5t39.5 141.5h-127v313h317v-262z" />
    <glyph glyph-name="hyphen" unicode="-" horiz-adv-x="790" 
d="M694 494h-600v282h600v-282z" />
    <glyph glyph-name="period" unicode="." horiz-adv-x="544" 
d="M430 0h-317v313h317v-313z" />
    <glyph glyph-name="slash" unicode="/" horiz-adv-x="948" 
d="M969 1616l-770 -1860h-244l768 1860h246z" />
    <glyph glyph-name="zero" unicode="0" horiz-adv-x="1288" 
d="M1196 705q0 -329 -151 -528.5t-402 -199.5q-167 0 -292 89.5t-192 253.5t-67 382v27q0 217 67.5 382t193 255t292.5 90q251 0 401 -198t150 -527v-26zM895 702v25q0 224 -68.5 343.5t-183.5 119.5q-117 0 -183.5 -117.5t-66.5 -341.5v-24q0 -224 67.5 -343.5
t184.5 -119.5t183.5 117.5t66.5 340.5z" />
    <glyph glyph-name="one" unicode="1" horiz-adv-x="759" 
d="M600 0h-293v1139l-219 -58l-45 256l354 107h203v-1444z" />
    <glyph glyph-name="two" unicode="2" horiz-adv-x="1089" 
d="M999 0h-915v238l405 440q115 120 159 191t44 145q0 78 -47.5 123t-124.5 45q-70 0 -129.5 -36.5t-132.5 -117.5l-154 199q95 114 197 168.5t250 54.5q201 0 320.5 -108.5t119.5 -294.5v-7q0 -74 -16.5 -133.5t-58 -121.5t-89.5 -114.5t-135 -135.5l-225 -271h532v-264z
" />
    <glyph glyph-name="three" unicode="3" horiz-adv-x="1091" 
d="M997 442q0 -206 -131 -334t-348 -128q-283 0 -455 184l152 215q68 -66 137 -98.5t158 -32.5q88 0 142.5 49t54.5 133v8q0 94 -70.5 143t-200.5 52h-92l-35 188l309 350h-491v263h852v-234l-326 -354q344 -71 344 -393v-11z" />
    <glyph glyph-name="four" unicode="4" horiz-adv-x="1224" 
d="M1147 295h-170v-295h-281v295h-608l-35 215l664 932h260v-903h170v-244zM696 539v471l-323 -471h323z" />
    <glyph glyph-name="five" unicode="5" horiz-adv-x="1107" 
d="M1014 471q0 -227 -136.5 -359t-365.5 -132q-252 0 -432 159l133 234q143 -121 289 -121q103 0 162 56t59 155v10q0 96 -58.5 146.5t-160.5 50.5q-99 0 -197 -43l-164 108l41 699h770v-265h-526l-16 -260q82 21 159 21q94 0 172.5 -25.5t140 -78t96 -141t34.5 -206.5v-8z
" />
    <glyph glyph-name="six" unicode="6" horiz-adv-x="1175" 
d="M1085 471q0 -219 -136 -356.5t-345 -137.5q-220 0 -346 129q-82 82 -123 214t-41 350v8q0 371 143.5 573.5t417.5 202.5q210 0 367 -119l-117 -243q-65 47 -121.5 70.5t-126.5 23.5q-118 0 -185.5 -92.5t-76.5 -255.5q58 45 117.5 68.5t146.5 23.5q88 0 164 -27.5
t135 -81t93 -140.5t34 -198v-12zM797 459v10q0 100 -55 157.5t-146 57.5q-96 0 -150 -57q-55 -55 -55 -156v-12q0 -107 55 -166.5t150 -59.5t148 60t53 166z" />
    <glyph glyph-name="seven" unicode="7" horiz-adv-x="1079" 
d="M995 1214l-524 -1214h-321l524 1167h-568v267h889v-220z" />
    <glyph glyph-name="eight" unicode="8" horiz-adv-x="1132" 
d="M1055 399q0 -194 -136.5 -306.5t-353.5 -112.5q-214 0 -351.5 113.5t-137.5 301.5v6q0 244 213 351q-172 104 -172 309v8q0 166 126 275.5t322 109.5t322.5 -109.5t126.5 -275.5v-8q0 -207 -172 -309q103 -57 158 -138t55 -206v-9zM735 1030v6q0 80 -45.5 129t-124.5 49
q-78 0 -124 -48t-46 -128v-6q0 -84 46 -135t124 -51t124 49.5t46 134.5zM768 416v8q0 91 -56 140.5t-147 49.5t-147 -49.5t-56 -140.5v-8q0 -92 54 -143.5t149 -51.5t149 51.5t54 143.5z" />
    <glyph glyph-name="nine" unicode="9" horiz-adv-x="1175" 
d="M1083 756q0 -373 -145.5 -574.5t-415.5 -201.5q-219 0 -387 126l117 244q132 -102 268 -102q117 0 185.5 90.5t76.5 247.5q-108 -94 -262 -94q-189 0 -308.5 116t-119.5 336v12q0 222 134.5 361t346.5 139q116 0 198 -31t149 -98q82 -82 122.5 -213.5t40.5 -349.5v-8z
M786 956v13q0 112 -54.5 171.5t-149.5 59.5q-97 0 -149 -60.5t-52 -170.5v-11q0 -103 55 -162t146 -59q88 0 147 56q57 60 57 163z" />
    <glyph glyph-name="colon" unicode=":" horiz-adv-x="565" 
d="M440 784h-317v314h317v-314zM440 0h-317v313h317v-313z" />
    <glyph glyph-name="semicolon" unicode=";" horiz-adv-x="565" 
d="M440 784h-317v314h317v-314zM440 51q0 -187 -90.5 -280.5t-267.5 -102.5l-23 121q104 13 151.5 69.5t39.5 141.5h-127v313h317v-262z" />
    <glyph glyph-name="less" unicode="&#x3c;" horiz-adv-x="1136" 
d="M1004 152l-873 428v282l873 428v-289l-601 -278l601 -279v-292z" />
    <glyph glyph-name="equal" unicode="=" horiz-adv-x="1136" 
d="M1026 842h-915v272h915v-272zM1026 328h-915v272h915v-272z" />
    <glyph glyph-name="greater" unicode="&#x3e;" horiz-adv-x="1136" 
d="M1004 580l-871 -428v288l598 279l-598 278v293l871 -428v-282z" />
    <glyph glyph-name="question" unicode="?" horiz-adv-x="976" 
d="M913 1034q0 -88 -27 -156.5t-77 -115t-111 -76.5t-139 -49l-22 -162h-195l-39 340l8 10q312 26 312 201v4q0 69 -49 109.5t-134 40.5q-146 0 -268 -113l-131 211q172 172 418 172q206 0 330 -110t124 -298v-8zM596 0h-317v313h317v-313z" />
    <glyph glyph-name="at" unicode="@" horiz-adv-x="1796" 
d="M1702 702q0 -256 -108.5 -411.5t-280.5 -155.5q-202 0 -281 135q-113 -133 -272 -133q-135 0 -224.5 95t-89.5 255q0 148 57.5 276t152.5 202.5t202 74.5q156 0 242 -135l20 111l230 -39l-95 -541q-8 -36 -8 -86q0 -54 32.5 -85.5t90.5 -31.5q104 0 174 131.5t70 342.5
q0 130 -52 251.5t-142 213.5t-220.5 147t-277.5 55q-157 0 -296.5 -69.5t-236.5 -185.5t-153 -272t-56 -325q-1 -216 90.5 -388.5t257 -269.5t373.5 -97q128 0 232.5 28.5t207.5 89.5l43 -67q-224 -133 -487 -133q-227 0 -411 107.5t-289 299.5t-105 432q0 185 63.5 355.5
t173 297.5t266 203t331.5 76q162 0 307 -62.5t247 -165.5t162 -241t60 -285zM1051 672q0 75 -41.5 119.5t-108.5 44.5q-68 0 -122.5 -55t-76.5 -146q-18 -88 -18 -133q0 -80 42.5 -124t111.5 -44q66 0 121 58t77 151q15 70 15 129z" />
    <glyph glyph-name="A" unicode="A" horiz-adv-x="1376" 
d="M1341 0h-305l-106 311h-492l-106 -311h-297l512 1442h282zM840 573l-156 467l-158 -467h314z" />
    <glyph glyph-name="B" unicode="B" horiz-adv-x="1277" 
d="M1206 395q0 -191 -140 -293t-378 -102h-545v1434h531q213 0 342 -98t129 -277q0 -213 -195 -314q124 -50 190 -129.5t66 -212.5v-8zM852 1010q0 80 -52 120.5t-149 40.5h-219v-325h205q102 0 158.5 41t56.5 123zM911 428q0 83 -56 127.5t-167 44.5h-256v-338h264
q102 0 158.5 42t56.5 124z" />
    <glyph glyph-name="C" unicode="C" horiz-adv-x="1263" 
d="M1194 172q-96 -96 -205.5 -144t-263.5 -48q-135 0 -252 52.5t-201.5 146.5t-133 230.5t-48.5 297.5v18q0 215 83.5 381.5t231 257t334.5 90.5q149 0 252 -41.5t193 -122.5l-140 -239q-150 127 -299 127q-155 0 -251.5 -121.5t-96.5 -327.5v-20q0 -211 96.5 -332
t254.5 -121q89 0 159 32.5t146 98.5z" />
    <glyph glyph-name="D" unicode="D" horiz-adv-x="1378" 
d="M1288 709q0 -208 -85 -369t-241 -250.5t-358 -89.5h-461v1434h461q203 0 358.5 -89t240.5 -249.5t85 -368.5v-18zM981 707v18q0 209 -101.5 324.5t-267.5 115.5h-174v-897h174q166 0 267.5 114.5t101.5 324.5z" />
    <glyph glyph-name="E" unicode="E" horiz-adv-x="1163" 
d="M1073 0h-930v1434h922v-267h-629v-313h553v-266h-553v-322h637v-266z" />
    <glyph glyph-name="F" unicode="F" horiz-adv-x="1130" 
d="M1063 1161h-625v-321h551v-271h-551v-569h-295v1434h920v-273z" />
    <glyph glyph-name="G" unicode="G" horiz-adv-x="1372" 
d="M1262 158q-230 -178 -506 -178q-193 0 -343.5 88t-236.5 254t-86 385v18q0 209 86.5 376t239.5 260t344 93q146 0 251.5 -36.5t200.5 -112.5l-139 -246q-77 61 -149 90t-168 29q-155 0 -257 -126t-102 -321v-24q0 -216 103.5 -336.5t265.5 -120.5q123 0 215 59v254h-260
v258h541v-663z" />
    <glyph glyph-name="H" unicode="H" horiz-adv-x="1349" 
d="M1206 0h-295v584h-473v-584h-295v1434h295v-576h473v576h295v-1434z" />
    <glyph glyph-name="I" unicode="I" horiz-adv-x="604" 
d="M449 0h-295v1434h295v-1434z" />
    <glyph glyph-name="J" unicode="J" horiz-adv-x="989" 
d="M864 455q0 -233 -123 -353t-335 -120q-224 0 -375 155l137 232q109 -109 219 -109q174 0 174 211v963h303v-979z" />
    <glyph glyph-name="K" unicode="K" horiz-adv-x="1294" 
d="M1278 0h-350l-357 590l-133 -168v-422h-295v1434h295v-619l467 619h352l-481 -607z" />
    <glyph glyph-name="L" unicode="L" horiz-adv-x="1071" 
d="M1018 0h-875v1434h295v-1162h580v-272z" />
    <glyph glyph-name="M" unicode="M" horiz-adv-x="1542" 
d="M1401 0h-291v915l-338 -591h-6l-336 585v-909h-287v1434h312l315 -582l317 582h314v-1434z" />
    <glyph glyph-name="N" unicode="N" horiz-adv-x="1394" 
d="M1253 0h-256l-565 866v-866h-289v1434h273l545 -836v836h292v-1434z" />
    <glyph glyph-name="O" unicode="O" horiz-adv-x="1476" 
d="M1384 707q0 -158 -48.5 -294t-133.5 -232t-205 -150t-260 -54q-284 0 -465.5 203t-181.5 522v25q0 211 83 377.5t231 259t335 92.5q186 0 333.5 -92t229.5 -257.5t82 -375.5v-24zM1079 702v25q0 209 -95 333t-247 124q-153 0 -246.5 -121.5t-93.5 -331.5v-24
q0 -210 94.5 -333.5t247.5 -123.5t246.5 121.5t93.5 330.5z" />
    <glyph glyph-name="P" unicode="P" horiz-adv-x="1193" 
d="M1143 938q0 -121 -41.5 -217.5t-114.5 -158t-170 -94t-211 -32.5h-168v-436h-295v1434h475q242 0 383.5 -132.5t141.5 -363.5zM844 932q0 116 -62 174.5t-172 58.5h-172v-463h174q107 0 169.5 62.5t62.5 167.5z" />
    <glyph glyph-name="Q" unicode="Q" horiz-adv-x="1480" 
d="M1415 156l-178 -195l-139 129q-156 -113 -361 -113q-284 0 -465.5 203t-181.5 522v25q0 211 83 377.5t231 259t335 92.5q186 0 333.5 -92t229.5 -257.5t82 -375.5v-24q0 -246 -110 -428zM1079 702v25q0 209 -95 333t-247 124q-153 0 -246.5 -121.5t-93.5 -331.5v-24
q0 -216 95.5 -337.5t252.5 -121.5q79 0 146 31l-201 176l176 196l183 -168q30 92 30 219z" />
    <glyph glyph-name="R" unicode="R" horiz-adv-x="1280" 
d="M1227 0h-338l-262 471h-189v-471h-295v1434h535q239 0 375.5 -123t136.5 -353q0 -157 -71 -264t-195 -162zM891 944v8q0 109 -61.5 161t-170.5 52h-221v-432h228q105 0 165 55.5t60 155.5z" />
    <glyph glyph-name="S" unicode="S" horiz-adv-x="1116" 
d="M1040 406q0 -196 -131.5 -309t-341.5 -113q-290 0 -504 178l132 233q189 -145 366 -145q87 0 135.5 34.5t48.5 100.5q0 59 -47 101t-194 104q-63 27 -103.5 46t-87.5 45t-76 50t-58.5 56t-45 67.5t-25.5 81.5t-10 100q0 186 128 300t329 114q251 0 438 -139l-114 -244
q-179 117 -320 117q-77 0 -121.5 -34.5t-44.5 -92.5q0 -27 8 -47t21.5 -36.5t48 -36.5t71 -38t107.5 -49q106 -47 173.5 -87.5t119.5 -92.5t75 -116t23 -148z" />
    <glyph glyph-name="T" unicode="T" horiz-adv-x="1128" 
d="M1069 1159h-356v-1159h-297v1159h-359v275h1012v-275z" />
    <glyph glyph-name="U" unicode="U" horiz-adv-x="1339" 
d="M1212 561q0 -287 -144.5 -434t-399.5 -147t-399 146t-144 429v879h295v-881q0 -149 66 -225t184 -76t184 74.5t66 220.5v887h292v-873z" />
    <glyph glyph-name="V" unicode="V" horiz-adv-x="1306" 
d="M1272 1434l-484 -1442h-272l-481 1442h319l303 -988l304 988h311z" />
    <glyph glyph-name="W" unicode="W" horiz-adv-x="1972" 
d="M1925 1434l-407 -1442h-271l-262 911l-262 -911h-270l-408 1442h313l238 -942l264 944h258l262 -944l240 942h305z" />
    <glyph glyph-name="X" unicode="X" horiz-adv-x="1290" 
d="M1241 0h-338l-262 475l-264 -475h-328l420 731l-403 703h337l244 -449l248 449h328l-402 -703z" />
    <glyph glyph-name="Y" unicode="Y" horiz-adv-x="1261" 
d="M1243 1434l-465 -865v-569h-297v565l-465 869h336l281 -564l285 564h325z" />
    <glyph glyph-name="Z" unicode="Z" horiz-adv-x="1224" 
d="M1122 0h-1018v227l652 942h-631v265h997v-228l-651 -942h651v-264z" />
    <glyph glyph-name="bracketleft" unicode="[" horiz-adv-x="841" 
d="M741 -266h-585v1700h585v-222h-311v-1257h311v-221z" />
    <glyph glyph-name="backslash" unicode="\" horiz-adv-x="948" 
d="M993 -244h-245l-768 1860h245z" />
    <glyph glyph-name="bracketright" unicode="]" horiz-adv-x="841" 
d="M686 -266h-586v221h312v1257h-312v222h586v-1700z" />
    <glyph glyph-name="asciicircum" unicode="^" 
d="M874 1016h-204l-160 248l-160 -248h-200l258 414h208z" />
    <glyph glyph-name="underscore" unicode="_" horiz-adv-x="1138" 
d="M1143 -322h-1147v222h1147v-222z" />
    <glyph glyph-name="grave" unicode="`" 
d="M711 1214h-209l-254 250l241 111z" />
    <glyph glyph-name="a" unicode="a" horiz-adv-x="1062" 
d="M956 0h-284v117q-106 -135 -285 -135q-142 0 -235 88t-93 241v15q0 175 103.5 262.5t279.5 87.5q124 0 232 -43v31q0 94 -53.5 143t-157.5 49q-123 0 -266 -57l-56 235q86 38 171 57t198 19q224 0 335 -114t111 -330v-666zM676 358v95q-70 34 -162 34q-81 0 -127.5 -37.5
t-46.5 -109.5v-14q0 -66 38.5 -101t102.5 -35q86 0 140.5 46.5t54.5 121.5z" />
    <glyph glyph-name="b" unicode="b" horiz-adv-x="1202" 
d="M1124 532q0 -136 -34 -243.5t-93 -173.5t-133 -100.5t-159 -34.5q-100 0 -170 43.5t-127 115.5v-139h-291v1479h291v-533q118 172 297 172q84 0 158 -34.5t133 -100.5t93.5 -174t34.5 -244v-33zM836 537v24q0 136 -62.5 219.5t-155.5 83.5q-91 0 -151.5 -83t-60.5 -220
v-24q0 -137 60.5 -220.5t151.5 -83.5q93 0 155.5 83t62.5 221z" />
    <glyph glyph-name="c" unicode="c" horiz-adv-x="993" 
d="M938 131q-75 -76 -158 -115t-205 -39q-220 0 -360.5 156.5t-140.5 401.5v22q0 244 143 401.5t363 157.5q121 0 202.5 -33.5t149.5 -103.5l-131 -217q-50 48 -99 72t-114 24q-99 0 -162.5 -82.5t-63.5 -214.5v-24q0 -137 64.5 -219t171.5 -82q106 0 213 96z" />
    <glyph glyph-name="d" unicode="d" horiz-adv-x="1202" 
d="M1085 0h-290v152q-118 -172 -297 -172q-83 0 -157.5 34.5t-133.5 100.5t-94 173.5t-35 243.5v33q0 136 34.5 244t93 174t133 100.5t159.5 34.5q102 0 172 -44t125 -116v521h290v-1479zM799 537v24q0 136 -61.5 219.5t-153.5 83.5q-93 0 -154 -82.5t-61 -220.5v-24
q0 -137 61 -220.5t154 -83.5q92 0 153.5 84t61.5 220z" />
    <glyph glyph-name="e" unicode="e" horiz-adv-x="1093" 
d="M1020 535q0 -57 -4 -97h-656q20 -110 82 -164.5t156 -54.5q71 0 127 24t117 79l131 -177q-152 -168 -385 -168q-146 0 -263 68t-185 196t-68 294v20q0 244 136 402.5t345 158.5q152 0 259 -78t157.5 -207t50.5 -296zM739 633q-9 116 -57 181t-129 65q-80 0 -131 -64
t-64 -182h381z" />
    <glyph glyph-name="f" unicode="f" horiz-adv-x="688" 
d="M664 852h-211v-852h-289v852h-111v240h111v71q0 328 319 328q99 0 183 -25v-239q-52 18 -107 18q-108 0 -108 -112v-41h213v-240z" />
    <glyph glyph-name="g" unicode="g" horiz-adv-x="1202" 
d="M1085 203q0 -272 -135 -394t-409 -122q-219 0 -410 90l74 231q165 -84 321 -84q273 0 273 260v70q-64 -83 -136 -127.5t-174 -44.5q-84 0 -157 32.5t-130.5 95.5t-90.5 164.5t-33 229.5q0 126 33.5 226t91 161.5t130.5 94t156 32.5q102 0 172.5 -42.5t133.5 -117.5v140
h290v-895zM799 598q0 123 -61.5 196.5t-155.5 73.5t-153.5 -73t-59.5 -197q0 -121 59.5 -193.5t153.5 -72.5t155.5 72.5t61.5 193.5z" />
    <glyph glyph-name="h" unicode="h" horiz-adv-x="1126" 
d="M1016 0h-291v662q0 94 -41 144t-115 50q-75 0 -118 -50t-43 -144v-662h-291v1479h291v-529q56 78 121.5 123t160.5 45q155 0 240.5 -99.5t85.5 -270.5v-748z" />
    <glyph glyph-name="i" unicode="i" horiz-adv-x="546" 
d="M426 1214h-303v265h303v-265zM418 0h-291v1098h291v-1098z" />
    <glyph glyph-name="j" unicode="j" horiz-adv-x="548" 
d="M426 1214h-303v265h303v-265zM420 10q0 -325 -324 -325q-58 0 -123 10v229q18 -4 52 -4q104 0 104 115v1063h291v-1088z" />
    <glyph glyph-name="k" unicode="k" horiz-adv-x="1067" 
d="M1057 0h-330l-229 438l-90 -114v-324h-291v1479h291v-787l301 406h340l-349 -436z" />
    <glyph glyph-name="l" unicode="l" horiz-adv-x="546" 
d="M418 0h-291v1479h291v-1479z" />
    <glyph glyph-name="m" unicode="m" horiz-adv-x="1716" 
d="M1604 0h-291v662q0 94 -39.5 144t-110.5 50q-74 0 -115.5 -50t-41.5 -144v-662h-291v662q0 95 -39 144.5t-113 49.5q-72 0 -113.5 -50t-41.5 -144v-662h-291v1098h291v-148q57 79 123 123.5t161 44.5q94 0 164 -42t109 -118q133 160 311 160q151 0 239.5 -95t88.5 -273
v-750z" />
    <glyph glyph-name="n" unicode="n" horiz-adv-x="1126" 
d="M1016 0h-291v662q0 94 -41 144t-115 50q-75 0 -118 -50t-43 -144v-662h-291v1098h291v-148q56 78 121.5 123t160.5 45q155 0 240.5 -99.5t85.5 -270.5v-748z" />
    <glyph glyph-name="o" unicode="o" horiz-adv-x="1183" 
d="M1110 537q0 -244 -147.5 -402t-372.5 -158q-224 0 -370 156.5t-146 401.5v22q0 244 147.5 401.5t372.5 157.5q224 0 370 -156t146 -401v-22zM821 532v25q0 136 -63.5 221.5t-167.5 85.5q-106 0 -168 -84t-62 -219v-24q0 -134 65 -221t169 -87t165.5 84t61.5 219z" />
    <glyph glyph-name="p" unicode="p" horiz-adv-x="1202" 
d="M1124 532q0 -136 -34 -243.5t-93 -173.5t-133 -100.5t-159 -34.5q-100 0 -170 43.5t-127 115.5v-448h-291v1407h291v-152q118 172 297 172q84 0 158 -34.5t133 -100.5t93.5 -174t34.5 -244v-33zM836 537v24q0 136 -62.5 219.5t-155.5 83.5q-91 0 -151.5 -83t-60.5 -220
v-24q0 -137 60.5 -220.5t151.5 -83.5q93 0 155.5 83t62.5 221z" />
    <glyph glyph-name="q" unicode="q" horiz-adv-x="1202" 
d="M1085 -309h-290v461q-118 -172 -297 -172q-83 0 -157.5 34.5t-133.5 100.5t-94 173.5t-35 243.5v33q0 136 34.5 244t93 174t133 100.5t159.5 34.5q102 0 172 -44t125 -116v140h290v-1407zM799 537v24q0 136 -61.5 219.5t-153.5 83.5q-93 0 -154 -82.5t-61 -220.5v-24
q0 -137 61 -220.5t154 -83.5q92 0 153.5 84t61.5 220z" />
    <glyph glyph-name="r" unicode="r" horiz-adv-x="753" 
d="M707 801h-13q-137 0 -211.5 -86t-74.5 -256v-459h-291v1098h291v-195q44 107 115 162t184 51v-315z" />
    <glyph glyph-name="s" unicode="s" horiz-adv-x="894" 
d="M829 319q0 -163 -107.5 -251t-277.5 -88q-218 0 -397 131l94 215q162 -113 303 -113q58 0 88.5 23t30.5 63q0 13 -4 24t-15 21.5t-20.5 18t-30.5 18.5t-35 17.5t-43.5 20t-47.5 21.5q-50 24 -84.5 42.5t-76 50t-66 64.5t-41.5 81t-17 104q0 154 106 243t269 89
q183 0 342 -98l-84 -221q-149 86 -258 86q-52 0 -79.5 -21t-27.5 -57q0 -12 4 -22t15 -20.5t20.5 -18.5t30.5 -19.5t34.5 -19t43.5 -22.5t47 -24q39 -20 63.5 -33.5t58 -35t54 -39.5t43.5 -44t35.5 -52.5t21 -60.5t8.5 -73z" />
    <glyph glyph-name="t" unicode="t" horiz-adv-x="743" 
d="M668 37q-88 -53 -215 -53q-138 0 -214.5 65t-76.5 225v578h-111v246h111v280h291v-280h219v-246h-219v-518q0 -94 90 -94q69 0 125 30v-233z" />
    <glyph glyph-name="u" unicode="u" horiz-adv-x="1126" 
d="M1008 0h-291v147q-56 -78 -122 -122.5t-161 -44.5q-153 0 -238 99.5t-85 270.5v748h290v-662q0 -94 40.5 -144t113.5 -50q75 0 118.5 50t43.5 144v662h291v-1098z" />
    <glyph glyph-name="v" unicode="v" horiz-adv-x="1083" 
d="M1049 1098l-371 -1104h-272l-371 1104h303l205 -727l207 727h299z" />
    <glyph glyph-name="w" unicode="w" horiz-adv-x="1556" 
d="M1516 1098l-295 -1104h-269l-174 649l-178 -649h-266l-293 1104h295l147 -649l172 651h248l172 -654l152 652h289z" />
    <glyph glyph-name="x" unicode="x" horiz-adv-x="1056" 
d="M1018 0h-309l-185 344l-184 -344h-303l330 559l-318 539h307l174 -322l175 322h301l-320 -535z" />
    <glyph glyph-name="y" unicode="y" horiz-adv-x="1083" 
d="M1049 1098l-369 -1108q-55 -164 -131.5 -234.5t-208.5 -70.5q-137 0 -250 63l86 217q66 -39 127 -39q70 0 103 72l-371 1100h303l207 -733l205 733h299z" />
    <glyph glyph-name="z" unicode="z" horiz-adv-x="985" 
d="M911 0h-831v205l483 655h-469v238h817v-205l-485 -655h485v-238z" />
    <glyph glyph-name="braceleft" unicode="{" horiz-adv-x="888" 
d="M807 -96l-39 -193q-244 34 -346.5 128.5t-102.5 254.5q0 27 10.5 91.5t10.5 95.5q0 104 -49.5 149t-157.5 45h-49v225h49q107 0 157 45.5t50 149.5q0 31 -10.5 95t-10.5 91q0 160 102.5 254.5t346.5 128.5l39 -192q-130 -33 -177.5 -80.5t-47.5 -138.5q0 -35 11 -100.5
t11 -96.5q0 -208 -221 -268q221 -60 221 -269q0 -31 -11 -96t-11 -100q0 -91 47.5 -138.5t177.5 -80.5z" />
    <glyph glyph-name="bar" unicode="|" horiz-adv-x="653" 
d="M442 -244h-229v1860h229v-1860z" />
    <glyph glyph-name="braceright" unicode="}" horiz-adv-x="892" 
d="M809 475h-49q-108 0 -157.5 -45t-49.5 -149q0 -31 10 -95.5t10 -91.5q0 -160 -102 -254.5t-346 -128.5l-39 193q130 33 177.5 80.5t47.5 138.5q0 35 -11 100t-11 96q0 209 221 269q-221 60 -221 268q0 31 11 96.5t11 100.5q0 91 -47.5 138.5t-177.5 80.5l39 192
q244 -34 346 -128.5t102 -254.5q0 -27 -10 -91t-10 -95q0 -104 50 -149.5t157 -45.5h49v-225z" />
    <glyph glyph-name="asciitilde" unicode="~" horiz-adv-x="956" 
d="M864 756q-58 -264 -231 -264q-70 0 -160 40q-92 41 -125 41q-38 0 -59 -23t-41 -77l-156 47q59 266 232 266q62 0 159 -43q4 -2 21.5 -9.5t23 -10t19.5 -8t21.5 -7.5t18 -4t19.5 -2q38 0 60.5 24t42.5 77z" />
    <glyph glyph-name="uni00A0" unicode="&#xa0;" horiz-adv-x="526" 
 />
    <glyph glyph-name="exclamdown" unicode="&#xa1;" horiz-adv-x="600" 
d="M459 1118h-318v316h318v-316zM473 0h-344v41l92 917h158l94 -917v-41z" />
    <glyph glyph-name="cent" unicode="&#xa2;" horiz-adv-x="1015" 
d="M776 1444l-22 -172q97 -29 186 -115l-129 -215q-57 54 -117 76l-86 -606q106 3 209 96l123 -195q-74 -74 -155 -115t-187 -44l-20 -166h-199l27 196q-147 56 -235.5 198t-88.5 331v20q0 156 61 281.5t170 199t248 80.5l19 150h196zM360 715q0 -194 107 -266l84 583
q-89 -15 -140 -96.5t-51 -198.5v-22z" />
    <glyph glyph-name="sterling" unicode="&#xa3;" horiz-adv-x="1136" 
d="M1059 0h-961v195l140 49v309h-138v250h138v184q0 228 118 346q119 119 324 119q229 0 371 -170l-168 -209q-87 101 -187 101q-66 0 -110 -44q-49 -49 -49 -147v-180h385v-250h-385v-295h522v-258z" />
    <glyph glyph-name="currency" unicode="&#xa4;" horiz-adv-x="1263" 
d="M1196 186q-82 -102 -179 -155.5t-229 -53.5q-206 0 -346.5 124.5t-193.5 349.5h-168v198h139v144h-139v198h172q56 220 197 342.5t342 122.5q140 0 232.5 -49t168.5 -143l-166 -203q-56 65 -109.5 96t-123.5 31q-167 0 -234 -197h326v-198h-365q-2 -20 -2 -66v-18
q0 -40 2 -60h365v-198h-330q65 -205 248 -205q68 0 120 31t115 100z" />
    <glyph glyph-name="yen" unicode="&#xa5;" horiz-adv-x="1228" 
d="M756 526v-125h317v-211h-317v-190h-285v190h-315v211h315v125h-315v213h243l-374 695h329l262 -547l267 547h321l-379 -695h248v-213h-317z" />
    <glyph glyph-name="brokenbar" unicode="&#xa6;" 
d="M0 0v1434h1024v-1434h-1024zM166 100h694l-348 523zM100 197l351 520l-351 520v-1040zM922 197v1040l-351 -520zM512 809l348 522h-694z" />
    <glyph glyph-name="section" unicode="&#xa7;" horiz-adv-x="1157" 
d="M1069 717q0 -173 -176 -238q76 -67 76 -182v-2q0 -145 -103.5 -229t-281.5 -84q-251 0 -408 151l117 189q147 -115 280 -115q59 0 90 20t31 56v2q0 40 -42.5 64.5t-182.5 66.5q-211 64 -296 127.5t-85 171.5v2q0 89 47.5 148.5t130.5 90.5q-78 72 -78 185v2
q0 145 104 227t286 82q240 0 391 -145l-117 -189q-130 111 -264 111q-61 0 -92 -20.5t-31 -53.5v-2q0 -37 46 -66t177 -69q211 -64 296 -127.5t85 -171.5v-2zM807 676v4q0 41 -45 71t-166 70q-95 33 -147 33q-42 0 -70.5 -28.5t-28.5 -67.5v-4q0 -41 45 -71.5t166 -70.5
q92 -32 148 -32q42 0 70 28.5t28 67.5z" />
    <glyph glyph-name="dieresis" unicode="&#xa8;" 
d="M854 1221h-274v256h274v-256zM444 1221h-274v256h274v-256z" />
    <glyph glyph-name="copyright" unicode="&#xa9;" horiz-adv-x="1509" 
d="M1419 727v-20q0 -203 -88 -370.5t-241 -263.5t-338 -96q-138 0 -261 56t-211 153t-139 232t-51 287v20q0 152 51.5 287.5t140.5 233t212.5 154t261.5 56.5t261 -56.5t211.5 -153t139.5 -232t51 -287.5zM1335 707v20q0 182 -74 330t-207 233.5t-298 85.5q-166 0 -300 -86
t-209 -234.5t-75 -330.5v-23q0 -182 74.5 -329.5t207.5 -232.5t298 -85q166 0 300 86t208.5 235t74.5 331zM1024 422q-107 -107 -258 -107t-249.5 112t-98.5 290v10q0 179 100 291t256 112q144 0 244 -90l-78 -135q-84 70 -162 70q-83 0 -135.5 -66.5t-52.5 -179.5v-12
q0 -114 52 -180t136 -66q78 0 166 74z" />
    <glyph glyph-name="ordfeminine" unicode="&#xaa;" horiz-adv-x="712" 
d="M590 831h-158v66q-58 -78 -156 -78q-78 0 -129 48.5t-51 133.5v7q0 97 57 145.5t154 48.5q64 0 127 -24v18q0 107 -117 107q-55 0 -145 -33l-31 129q94 43 203 43q124 0 185 -63.5t61 -182.5v-365zM602 584h-512v123h512v-123zM436 1028v53q-59 19 -90 19q-44 0 -69 -21
t-25 -63v-2q0 -39 21 -58.5t57 -19.5q46 0 76 25.5t30 66.5z" />
    <glyph glyph-name="guillemotleft" unicode="&#xab;" horiz-adv-x="1214" 
d="M1135 199l-226 -117l-321 459v16l321 459l224 -113l-252 -352zM621 199l-226 -117l-321 459v16l321 459l223 -113l-251 -352z" />
    <glyph glyph-name="logicalnot" unicode="&#xac;" horiz-adv-x="1136" 
d="M735 842h-624v272h915v-620h-291v348z" />
    <glyph glyph-name="uni00AD" unicode="&#xad;" horiz-adv-x="790" 
d="M694 494h-600v282h600v-282z" />
    <glyph glyph-name="registered" unicode="&#xae;" horiz-adv-x="1509" 
d="M1419 727v-20q0 -203 -88 -370.5t-241 -263.5t-338 -96q-138 0 -261 56t-211 153t-139 232t-51 287v20q0 152 51.5 287.5t140.5 233t212.5 154t261.5 56.5t261 -56.5t211.5 -153t139.5 -232t51 -287.5zM1335 707v20q0 182 -74 330t-207 233.5t-298 85.5q-166 0 -300 -86
t-209 -234.5t-75 -330.5v-23q0 -182 74.5 -329.5t207.5 -232.5t298 -85q166 0 300 86t208.5 235t74.5 331zM1063 872v-4q0 -85 -40.5 -144t-107.5 -89l166 -295h-184l-145 260h-105v-260h-162v788h289q132 0 210.5 -67t78.5 -189zM899 862v2q0 60 -35.5 89.5t-95.5 29.5
h-121v-240h125q59 0 93 32t34 87z" />
    <glyph glyph-name="macron" unicode="&#xaf;" 
d="M852 1233h-680v201h680v-201z" />
    <glyph glyph-name="degree" unicode="&#xb0;" horiz-adv-x="856" 
d="M743 1094q0 -142 -94.5 -243t-222.5 -101t-221.5 101t-93.5 243v6q0 142 93.5 244t221.5 102t222.5 -102t94.5 -244v-6zM582 1094v6q0 83 -45 136.5t-111 53.5q-65 0 -108.5 -53t-43.5 -137v-6q0 -84 43.5 -137.5t108.5 -53.5q66 0 111 54t45 137z" />
    <glyph glyph-name="plusminus" unicode="&#xb1;" 
d="M0 0v1434h1024v-1434h-1024zM166 100h694l-348 523zM100 197l351 520l-351 520v-1040zM922 197v1040l-351 -520zM512 809l348 522h-694z" />
    <glyph glyph-name="twosuperior" unicode="&#xb2;" 
d="M0 0v1434h1024v-1434h-1024zM166 100h694l-348 523zM100 197l351 520l-351 520v-1040zM922 197v1040l-351 -520zM512 809l348 522h-694z" />
    <glyph glyph-name="threesuperior" unicode="&#xb3;" 
d="M0 0v1434h1024v-1434h-1024zM166 100h694l-348 523zM100 197l351 520l-351 520v-1040zM922 197v1040l-351 -520zM512 809l348 522h-694z" />
    <glyph glyph-name="acute" unicode="&#xb4;" 
d="M768 1464l-254 -250h-209l221 361z" />
    <glyph glyph-name="mu" unicode="&#xb5;" horiz-adv-x="1130" 
d="M1014 0h-291v123q-51 -71 -96.5 -103t-112.5 -32q-56 0 -106 26v-323h-291v1407h291v-662q0 -94 40 -144t113 -50q75 0 118.5 50t43.5 144v662h291v-1098z" />
    <glyph glyph-name="paragraph" unicode="&#xb6;" horiz-adv-x="1067" 
d="M596 1434h326v-1434h-297v467h-35q-112 2 -208 33t-169 89.5t-114.5 150.5t-41.5 208v2q0 231 148.5 357.5t390.5 126.5z" />
    <glyph glyph-name="periodcentered" unicode="&#xb7;" horiz-adv-x="557" 
d="M436 477h-317v314h317v-314z" />
    <glyph glyph-name="cedilla" unicode="&#xb8;" 
d="M641 27l-147 -361l-244 98l188 263h203z" />
    <glyph glyph-name="onesuperior" unicode="&#xb9;" 
d="M0 0v1434h1024v-1434h-1024zM166 100h694l-348 523zM100 197l351 520l-351 520v-1040zM922 197v1040l-351 -520zM512 809l348 522h-694z" />
    <glyph glyph-name="ordmasculine" unicode="&#xba;" horiz-adv-x="712" 
d="M633 1126q0 -136 -79 -222.5t-200 -86.5q-119 0 -196.5 85.5t-77.5 221.5v13q0 134 78.5 220.5t197.5 86.5q120 0 198.5 -86t78.5 -221v-11zM618 584h-524v123h524v-123zM475 1124v13q0 75 -33 122.5t-88 47.5q-54 0 -85 -46.5t-31 -121.5v-15q0 -75 32.5 -122.5
t85.5 -47.5q56 0 87.5 46.5t31.5 123.5z" />
    <glyph glyph-name="guillemotright" unicode="&#xbb;" horiz-adv-x="1214" 
d="M1143 541l-324 -459l-223 115l254 352l-254 350l223 117l324 -459v-16zM629 541l-324 -459l-225 115l256 352l-254 350l223 117l324 -459v-16z" />
    <glyph glyph-name="onequarter" unicode="&#xbc;" 
d="M0 0v1434h1024v-1434h-1024zM166 100h694l-348 523zM100 197l351 520l-351 520v-1040zM922 197v1040l-351 -520zM512 809l348 522h-694z" />
    <glyph glyph-name="onehalf" unicode="&#xbd;" 
d="M0 0v1434h1024v-1434h-1024zM166 100h694l-348 523zM100 197l351 520l-351 520v-1040zM922 197v1040l-351 -520zM512 809l348 522h-694z" />
    <glyph glyph-name="threequarters" unicode="&#xbe;" 
d="M0 0v1434h1024v-1434h-1024zM166 100h694l-348 523zM100 197l351 520l-351 520v-1040zM922 197v1040l-351 -520zM512 809l348 522h-694z" />
    <glyph glyph-name="questiondown" unicode="&#xbf;" horiz-adv-x="976" 
d="M381 1434h317v-314h-317v314zM63 399q0 310 355 398l22 161h195l39 -340l-8 -10q-312 -26 -312 -200v-5q0 -69 49 -109t134 -40q146 0 268 113l131 -211q-172 -172 -418 -172q-206 0 -330.5 110t-124.5 297v8z" />
    <glyph glyph-name="Agrave" unicode="&#xc0;" horiz-adv-x="1376" 
d="M1341 0h-305l-106 311h-492l-106 -311h-297l512 1442h282zM840 573l-156 467l-158 -467h314zM811 1536h-209l-254 250l242 110z" />
    <glyph glyph-name="Aacute" unicode="&#xc1;" horiz-adv-x="1376" 
d="M1341 0h-305l-106 311h-492l-106 -311h-297l512 1442h282zM840 573l-156 467l-158 -467h314zM1024 1786l-254 -250h-209l221 360z" />
    <glyph glyph-name="Acircumflex" unicode="&#xc2;" horiz-adv-x="1376" 
d="M1341 0h-305l-106 311h-492l-106 -311h-297l512 1442h282zM840 573l-156 467l-158 -467h314zM1042 1536h-211l-145 162l-145 -162h-207l221 322h266z" />
    <glyph glyph-name="Atilde" unicode="&#xc3;" horiz-adv-x="1376" 
d="M1341 0h-305l-106 311h-492l-106 -311h-297l512 1442h282zM840 573l-156 467l-158 -467h314zM1071 1796q-58 -264 -231 -264q-69 0 -178 49q-76 35 -105 35q-39 0 -59.5 -22.5t-42.5 -77.5l-156 47q30 131 86 197.5t145 66.5q77 0 177 -47q68 -35 108 -35q38 0 59 23
t41 77z" />
    <glyph glyph-name="Adieresis" unicode="&#xc4;" horiz-adv-x="1376" 
d="M1341 0h-305l-106 311h-492l-106 -311h-297l512 1442h282zM840 573l-156 467l-158 -467h314zM1030 1542h-274v256h274v-256zM621 1542h-275v256h275v-256z" />
    <glyph glyph-name="Aring" unicode="&#xc5;" horiz-adv-x="1376" 
d="M1341 0h-305l-106 309h-494l-104 -309h-299l497 1397q-37 33 -59 80.5t-22 99.5v6q0 97 71 167.5t168 70.5q96 0 168 -71t72 -167v-6q0 -51 -23 -99t-61 -81zM803 1577v4q0 50 -34 86.5t-81 36.5q-49 0 -83 -36.5t-34 -86.5v-4q0 -48 35 -84.5t82 -36.5t81 36.5t34 84.5z
M840 571l-156 469l-158 -469h314z" />
    <glyph glyph-name="AE" unicode="&#xc6;" horiz-adv-x="1839" 
d="M1749 0h-895v309h-405l-140 -309h-297l654 1434h1073v-269h-592v-311h518v-266h-518v-322h602v-266zM854 571v592h-33l-254 -592h287z" />
    <glyph glyph-name="Ccedilla" unicode="&#xc7;" horiz-adv-x="1263" 
d="M573 -2q-218 53 -350.5 242.5t-132.5 466.5v18q0 215 83.5 381.5t231 257t334.5 90.5q149 0 252 -41.5t193 -122.5l-140 -239q-150 127 -299 127q-155 0 -251.5 -121.5t-96.5 -327.5v-20q0 -211 96.5 -332t254.5 -121q89 0 159 32.5t146 98.5l141 -215
q-88 -88 -186 -135.5t-230 -54.5l-129 -316l-243 98z" />
    <glyph glyph-name="Egrave" unicode="&#xc8;" horiz-adv-x="1163" 
d="M1073 0h-930v1434h922v-267h-629v-313h553v-266h-553v-322h637v-266zM756 1536h-209l-254 250l242 110z" />
    <glyph glyph-name="Eacute" unicode="&#xc9;" horiz-adv-x="1163" 
d="M1073 0h-930v1434h922v-267h-629v-313h553v-266h-553v-322h637v-266zM909 1786l-254 -250h-209l222 360z" />
    <glyph glyph-name="Ecircumflex" unicode="&#xca;" horiz-adv-x="1163" 
d="M1073 0h-930v1434h922v-267h-629v-313h553v-266h-553v-322h637v-266zM952 1536h-211l-145 162l-145 -162h-207l221 322h266z" />
    <glyph glyph-name="Edieresis" unicode="&#xcb;" horiz-adv-x="1163" 
d="M1073 0h-930v1434h922v-267h-629v-313h553v-266h-553v-322h637v-266zM942 1542h-274v256h274v-256zM532 1542h-274v256h274v-256z" />
    <glyph glyph-name="Igrave" unicode="&#xcc;" horiz-adv-x="604" 
d="M449 0h-295v1434h295v-1434zM416 1536h-209l-254 250l242 110z" />
    <glyph glyph-name="Iacute" unicode="&#xcd;" horiz-adv-x="604" 
d="M449 0h-295v1434h295v-1434zM645 1786l-254 -250h-209l221 360z" />
    <glyph glyph-name="Icircumflex" unicode="&#xce;" horiz-adv-x="604" 
d="M449 0h-295v1434h295v-1434zM655 1536h-211l-145 162l-145 -162h-207l221 322h266z" />
    <glyph glyph-name="Idieresis" unicode="&#xcf;" horiz-adv-x="604" 
d="M449 0h-295v1434h295v-1434zM643 1542h-274v256h274v-256zM233 1542h-274v256h274v-256z" />
    <glyph glyph-name="Eth" unicode="&#xd0;" horiz-adv-x="1437" 
d="M1346 709q0 -316 -188 -512.5t-494 -196.5h-461v584h-140v270h140v580h461q306 0 494 -196.5t188 -512.5v-16zM1040 707v14q0 210 -102 326t-268 116h-176v-309h254v-270h-254v-318h176q166 0 268 115.5t102 325.5z" />
    <glyph glyph-name="Ntilde" unicode="&#xd1;" horiz-adv-x="1394" 
d="M1253 0h-256l-565 866v-866h-289v1434h273l545 -836v836h292v-1434zM1087 1796q-58 -264 -231 -264q-69 0 -178 49q-76 35 -105 35q-39 0 -59.5 -22.5t-42.5 -77.5l-156 47q61 264 232 264q76 0 176 -47q68 -35 108 -35q38 0 59.5 23t41.5 77z" />
    <glyph glyph-name="Ograve" unicode="&#xd2;" horiz-adv-x="1476" 
d="M1384 707q0 -158 -48.5 -294t-133.5 -232t-205 -150t-260 -54q-284 0 -465.5 203t-181.5 522v25q0 211 83 377.5t231 259t335 92.5q186 0 333.5 -92t229.5 -257.5t82 -375.5v-24zM1079 702v25q0 209 -95 333t-247 124q-153 0 -246.5 -121.5t-93.5 -331.5v-24
q0 -210 94.5 -333.5t247.5 -123.5t246.5 121.5t93.5 330.5zM838 1536h-209l-254 250l241 110z" />
    <glyph glyph-name="Oacute" unicode="&#xd3;" horiz-adv-x="1476" 
d="M1384 707q0 -158 -48.5 -294t-133.5 -232t-205 -150t-260 -54q-284 0 -465.5 203t-181.5 522v25q0 211 83 377.5t231 259t335 92.5q186 0 333.5 -92t229.5 -257.5t82 -375.5v-24zM1079 702v25q0 209 -95 333t-247 124q-153 0 -246.5 -121.5t-93.5 -331.5v-24
q0 -210 94.5 -333.5t247.5 -123.5t246.5 121.5t93.5 330.5zM1087 1786l-253 -250h-209l221 360z" />
    <glyph glyph-name="Ocircumflex" unicode="&#xd4;" horiz-adv-x="1476" 
d="M1384 707q0 -158 -48.5 -294t-133.5 -232t-205 -150t-260 -54q-284 0 -465.5 203t-181.5 522v25q0 211 83 377.5t231 259t335 92.5q186 0 333.5 -92t229.5 -257.5t82 -375.5v-24zM1079 702v25q0 209 -95 333t-247 124q-153 0 -246.5 -121.5t-93.5 -331.5v-24
q0 -210 94.5 -333.5t247.5 -123.5t246.5 121.5t93.5 330.5zM1092 1536h-211l-146 162l-145 -162h-207l221 322h266z" />
    <glyph glyph-name="Otilde" unicode="&#xd5;" horiz-adv-x="1476" 
d="M1384 707q0 -158 -48.5 -294t-133.5 -232t-205 -150t-260 -54q-284 0 -465.5 203t-181.5 522v25q0 211 83 377.5t231 259t335 92.5q186 0 333.5 -92t229.5 -257.5t82 -375.5v-24zM1079 702v25q0 209 -95 333t-247 124q-153 0 -246.5 -121.5t-93.5 -331.5v-24
q0 -210 94.5 -333.5t247.5 -123.5t246.5 121.5t93.5 330.5zM1122 1796q-58 -264 -231 -264q-69 0 -178 49q-76 35 -105 35q-39 0 -59.5 -22.5t-42.5 -77.5l-156 47q61 264 232 264q76 0 176 -47q68 -35 108 -35q38 0 59.5 23t41.5 77z" />
    <glyph glyph-name="Odieresis" unicode="&#xd6;" horiz-adv-x="1476" 
d="M1384 707q0 -158 -48.5 -294t-133.5 -232t-205 -150t-260 -54q-284 0 -465.5 203t-181.5 522v25q0 211 83 377.5t231 259t335 92.5q186 0 333.5 -92t229.5 -257.5t82 -375.5v-24zM1079 702v25q0 209 -95 333t-247 124q-153 0 -246.5 -121.5t-93.5 -331.5v-24
q0 -210 94.5 -333.5t247.5 -123.5t246.5 121.5t93.5 330.5zM1079 1542h-274v256h274v-256zM670 1542h-275v256h275v-256z" />
    <glyph glyph-name="multiply" unicode="&#xd7;" 
d="M0 0v1434h1024v-1434h-1024zM166 100h694l-348 523zM100 197l351 520l-351 520v-1040zM922 197v1040l-351 -520zM512 809l348 522h-694z" />
    <glyph glyph-name="Oslash" unicode="&#xd8;" horiz-adv-x="1476" 
d="M1384 727v-20q0 -158 -48.5 -294t-134 -231.5t-206 -150t-260.5 -54.5q-189 0 -334 91l-63 -78h-252l162 215q-158 202 -158 497v23q0 211 83 378t231.5 260t334.5 93q187 0 338 -98l66 86h254l-168 -225q155 -195 155 -492zM907 1114q-71 74 -172 74q-153 0 -248.5 -126
t-95.5 -335v-20q0 -123 51 -220zM1083 702v23q0 114 -51 205l-465 -623q71 -65 172 -65q154 0 249 125.5t95 334.5z" />
    <glyph glyph-name="Ugrave" unicode="&#xd9;" horiz-adv-x="1339" 
d="M1212 561q0 -287 -144.5 -434t-399.5 -147t-399 146t-144 429v879h295v-881q0 -149 66 -225t184 -76t184 74.5t66 220.5v887h292v-873zM788 1530h-208l-254 250l241 110z" />
    <glyph glyph-name="Uacute" unicode="&#xda;" horiz-adv-x="1339" 
d="M1212 561q0 -287 -144.5 -434t-399.5 -147t-399 146t-144 429v879h295v-881q0 -149 66 -225t184 -76t184 74.5t66 220.5v887h292v-873zM1012 1780l-254 -250h-209l221 360z" />
    <glyph glyph-name="Ucircumflex" unicode="&#xdb;" horiz-adv-x="1339" 
d="M1212 561q0 -287 -144.5 -434t-399.5 -147t-399 146t-144 429v879h295v-881q0 -149 66 -225t184 -76t184 74.5t66 220.5v887h292v-873zM1024 1536h-211l-145 162l-146 -162h-207l222 322h266z" />
    <glyph glyph-name="Udieresis" unicode="&#xdc;" horiz-adv-x="1339" 
d="M1212 561q0 -287 -144.5 -434t-399.5 -147t-399 146t-144 429v879h295v-881q0 -149 66 -225t184 -76t184 74.5t66 220.5v887h292v-873zM1012 1542h-275v256h275v-256zM602 1542h-274v256h274v-256z" />
    <glyph glyph-name="Yacute" unicode="&#xdd;" horiz-adv-x="1261" 
d="M1243 1434l-465 -865v-569h-297v565l-465 869h336l281 -564l285 564h325zM979 1780l-254 -250h-209l221 360z" />
    <glyph glyph-name="Thorn" unicode="&#xde;" horiz-adv-x="1200" 
d="M1141 733q0 -160 -72 -275t-191 -171t-272 -58h-168v-229h-297v1434h297v-207h189q230 0 372 -131.5t142 -362.5zM842 727q0 113 -62 172t-170 59h-172v-462h174q105 0 167.5 63t62.5 168z" />
    <glyph glyph-name="germandbls" unicode="&#xdf;" horiz-adv-x="1134" 
d="M1061 410q0 -199 -136.5 -309t-373.5 -105v223q107 6 165 58t58 143q0 84 -60.5 139t-162.5 70v196q158 101 158 250v4q0 76 -39.5 120t-106.5 44q-71 0 -114 -56t-43 -151v-1036h-289v1026q0 215 123 340t335 125q194 0 305 -108t111 -273v-6q0 -120 -46.5 -198
t-129.5 -136q246 -108 246 -356v-4z" />
    <glyph glyph-name="agrave" unicode="&#xe0;" horiz-adv-x="1062" 
d="M956 0h-284v117q-106 -135 -285 -135q-142 0 -235 88t-93 241v15q0 175 103.5 262.5t279.5 87.5q124 0 232 -43v31q0 94 -53.5 143t-157.5 49q-123 0 -266 -57l-56 235q86 38 171 57t198 19q224 0 335 -114t111 -330v-666zM676 358v95q-70 34 -162 34q-81 0 -127.5 -37.5
t-46.5 -109.5v-14q0 -66 38.5 -101t102.5 -35q86 0 140.5 46.5t54.5 121.5zM655 1214h-209l-253 250l241 111z" />
    <glyph glyph-name="aacute" unicode="&#xe1;" horiz-adv-x="1062" 
d="M956 0h-284v117q-106 -135 -285 -135q-142 0 -235 88t-93 241v15q0 175 103.5 262.5t279.5 87.5q124 0 232 -43v31q0 94 -53.5 143t-157.5 49q-123 0 -266 -57l-56 235q86 38 171 57t198 19q224 0 335 -114t111 -330v-666zM676 358v95q-70 34 -162 34q-81 0 -127.5 -37.5
t-46.5 -109.5v-14q0 -66 38.5 -101t102.5 -35q86 0 140.5 46.5t54.5 121.5zM854 1464l-254 -250h-209l221 361z" />
    <glyph glyph-name="acircumflex" unicode="&#xe2;" horiz-adv-x="1062" 
d="M956 0h-284v117q-106 -135 -285 -135q-142 0 -235 88t-93 241v15q0 175 103.5 262.5t279.5 87.5q124 0 232 -43v31q0 94 -53.5 143t-157.5 49q-123 0 -266 -57l-56 235q86 38 171 57t198 19q224 0 335 -114t111 -330v-666zM676 358v95q-70 34 -162 34q-81 0 -127.5 -37.5
t-46.5 -109.5v-14q0 -66 38.5 -101t102.5 -35q86 0 140.5 46.5t54.5 121.5zM879 1214h-211l-146 162l-145 -162h-207l221 322h266z" />
    <glyph glyph-name="atilde" unicode="&#xe3;" horiz-adv-x="1062" 
d="M956 0h-284v117q-106 -135 -285 -135q-142 0 -235 88t-93 241v15q0 175 103.5 262.5t279.5 87.5q124 0 232 -43v31q0 94 -53.5 143t-157.5 49q-123 0 -266 -57l-56 235q86 38 171 57t198 19q224 0 335 -114t111 -330v-666zM676 358v95q-70 34 -162 34q-81 0 -127.5 -37.5
t-46.5 -109.5v-14q0 -66 38.5 -101t102.5 -35q86 0 140.5 46.5t54.5 121.5zM915 1475q-58 -265 -231 -265q-32 0 -68 9t-54.5 16.5t-55.5 24.5q-74 34 -105 34q-39 0 -59.5 -22.5t-42.5 -77.5l-156 47q61 264 232 264q76 0 176 -47q68 -35 108 -35q38 0 59.5 23.5t41.5 77.5
z" />
    <glyph glyph-name="adieresis" unicode="&#xe4;" horiz-adv-x="1062" 
d="M956 0h-284v117q-106 -135 -285 -135q-142 0 -235 88t-93 241v15q0 175 103.5 262.5t279.5 87.5q124 0 232 -43v31q0 94 -53.5 143t-157.5 49q-123 0 -266 -57l-56 235q86 38 171 57t198 19q224 0 335 -114t111 -330v-666zM676 358v95q-70 34 -162 34q-81 0 -127.5 -37.5
t-46.5 -109.5v-14q0 -66 38.5 -101t102.5 -35q86 0 140.5 46.5t54.5 121.5zM866 1221h-274v256h274v-256zM457 1221h-275v256h275v-256z" />
    <glyph glyph-name="aring" unicode="&#xe5;" horiz-adv-x="1062" 
d="M956 0h-284v117q-106 -135 -285 -135q-142 0 -235 88t-93 241v15q0 175 103.5 262.5t279.5 87.5q124 0 232 -43v31q0 94 -53.5 143t-157.5 49q-123 0 -266 -57l-56 235q86 38 171 57t198 19q224 0 335 -114t111 -330v-666zM676 358v95q-70 34 -162 34q-81 0 -127.5 -37.5
t-46.5 -109.5v-14q0 -66 38.5 -101t102.5 -35q86 0 140.5 46.5t54.5 121.5zM758 1444v-6q0 -95 -71.5 -165.5t-166.5 -70.5q-97 0 -168 70.5t-71 165.5v6q0 97 71 167t168 70q96 0 167 -70.5t71 -166.5zM635 1440v4q0 50 -34 86.5t-81 36.5q-49 0 -84 -36.5t-35 -86.5v-4
q0 -48 36 -85.5t83 -37.5t81 37.5t34 85.5z" />
    <glyph glyph-name="ae" unicode="&#xe6;" horiz-adv-x="1689" 
d="M422 -18q-165 0 -264 89t-99 246v11q0 174 103.5 261t279.5 87q124 0 232 -43v31q0 94 -53.5 143t-157.5 49q-123 0 -266 -57l-56 235q86 38 171 57t198 19q229 0 332 -133q120 139 311 139q113 0 202 -44.5t145.5 -124t86 -184t29.5 -228.5l-2 -97h-658
q20 -110 82 -164.5t156 -54.5q70 0 125.5 24t120.5 79l129 -177q-152 -168 -387 -168q-115 0 -213 46.5t-166 132.5q-167 -174 -381 -174zM485 195q127 0 232 116q-24 64 -33 142q-80 34 -170 34q-82 0 -128 -36.5t-46 -110.5v-8q0 -67 39 -102t106 -35zM952 633h383
q-9 116 -57.5 181t-130.5 65q-80 0 -131 -64t-64 -182z" />
    <glyph glyph-name="ccedilla" unicode="&#xe7;" horiz-adv-x="993" 
d="M426 0q-161 47 -256.5 191.5t-95.5 343.5v22q0 244 143 401.5t363 157.5q121 0 202.5 -33.5t149.5 -103.5l-131 -217q-50 48 -99 72t-114 24q-99 0 -162.5 -82.5t-63.5 -214.5v-24q0 -137 64.5 -219t171.5 -82q106 0 213 96l127 -201q-65 -67 -137 -105t-172 -46
l-129 -314l-244 98z" />
    <glyph glyph-name="egrave" unicode="&#xe8;" horiz-adv-x="1093" 
d="M1020 535q0 -57 -4 -97h-656q20 -110 82 -164.5t156 -54.5q71 0 127 24t117 79l131 -177q-152 -168 -385 -168q-146 0 -263 68t-185 196t-68 294v20q0 244 136 402.5t345 158.5q152 0 259 -78t157.5 -207t50.5 -296zM739 633q-9 116 -57 181t-129 65q-80 0 -131 -64
t-64 -182h381zM657 1214h-208l-254 250l241 111z" />
    <glyph glyph-name="eacute" unicode="&#xe9;" horiz-adv-x="1093" 
d="M1020 535q0 -57 -4 -97h-656q20 -110 82 -164.5t156 -54.5q71 0 127 24t117 79l131 -177q-152 -168 -385 -168q-146 0 -263 68t-185 196t-68 294v20q0 244 136 402.5t345 158.5q152 0 259 -78t157.5 -207t50.5 -296zM739 633q-9 116 -57 181t-129 65q-80 0 -131 -64
t-64 -182h381zM897 1464l-254 -250h-209l221 361z" />
    <glyph glyph-name="ecircumflex" unicode="&#xea;" horiz-adv-x="1093" 
d="M1020 535q0 -57 -4 -97h-656q20 -110 82 -164.5t156 -54.5q71 0 127 24t117 79l131 -177q-152 -168 -385 -168q-146 0 -263 68t-185 196t-68 294v20q0 244 136 402.5t345 158.5q152 0 259 -78t157.5 -207t50.5 -296zM739 633q-9 116 -57 181t-129 65q-80 0 -131 -64
t-64 -182h381zM905 1214h-211l-145 162l-146 -162h-206l221 322h266z" />
    <glyph glyph-name="edieresis" unicode="&#xeb;" horiz-adv-x="1093" 
d="M1020 535q0 -57 -4 -97h-656q20 -110 82 -164.5t156 -54.5q71 0 127 24t117 79l131 -177q-152 -168 -385 -168q-146 0 -263 68t-185 196t-68 294v20q0 244 136 402.5t345 158.5q152 0 259 -78t157.5 -207t50.5 -296zM739 633q-9 116 -57 181t-129 65q-80 0 -131 -64
t-64 -182h381zM893 1221h-275v256h275v-256zM483 1221h-274v256h274v-256z" />
    <glyph glyph-name="igrave" unicode="&#xec;" horiz-adv-x="546" 
d="M418 0h-291v1098h291v-1098zM389 1214h-209l-254 250l242 111z" />
    <glyph glyph-name="iacute" unicode="&#xed;" horiz-adv-x="546" 
d="M418 0h-291v1098h291v-1098zM614 1464l-254 -250h-208l221 361z" />
    <glyph glyph-name="icircumflex" unicode="&#xee;" horiz-adv-x="546" 
d="M418 0h-291v1098h291v-1098zM629 1214h-211l-146 162l-145 -162h-207l221 322h267z" />
    <glyph glyph-name="idieresis" unicode="&#xef;" horiz-adv-x="546" 
d="M418 0h-291v1098h291v-1098zM616 1221h-274v256h274v-256zM207 1221h-275v256h275v-256z" />
    <glyph glyph-name="eth" unicode="&#xf0;" horiz-adv-x="1157" 
d="M1079 514q0 -236 -140 -386.5t-372 -150.5q-215 0 -354 144.5t-139 372.5v10q0 216 111.5 344.5t285.5 128.5q121 0 229 -76l-155 238l-207 -92l-107 153l215 96l-116 183h313l43 -76l180 80l107 -156l-189 -82l134 -207q84 -135 122.5 -256t38.5 -258v-10zM795 489v9
q0 123 -60.5 194.5t-159.5 71.5q-98 0 -157.5 -71t-59.5 -195v-9q0 -123 61 -194.5t159 -71.5q100 0 158.5 71t58.5 195z" />
    <glyph glyph-name="ntilde" unicode="&#xf1;" horiz-adv-x="1126" 
d="M1016 0h-291v662q0 94 -41 144t-115 50q-75 0 -118 -50t-43 -144v-662h-291v1098h291v-148q56 78 121.5 123t160.5 45q155 0 240.5 -99.5t85.5 -270.5v-748zM958 1475q-58 -265 -231 -265q-32 0 -68 9t-54.5 16.5t-55.5 24.5q-74 34 -105 34q-39 0 -59.5 -22.5
t-42.5 -77.5l-156 47q61 264 232 264q76 0 176 -47q68 -35 108 -35q38 0 59.5 23.5t41.5 77.5z" />
    <glyph glyph-name="ograve" unicode="&#xf2;" horiz-adv-x="1183" 
d="M1110 537q0 -244 -147.5 -402t-372.5 -158q-224 0 -370 156.5t-146 401.5v22q0 244 147.5 401.5t372.5 157.5q224 0 370 -156t146 -401v-22zM821 532v25q0 136 -63.5 221.5t-167.5 85.5q-106 0 -168 -84t-62 -219v-24q0 -134 65 -221t169 -87t165.5 84t61.5 219z
M700 1214h-208l-254 250l241 111z" />
    <glyph glyph-name="oacute" unicode="&#xf3;" horiz-adv-x="1183" 
d="M1110 537q0 -244 -147.5 -402t-372.5 -158q-224 0 -370 156.5t-146 401.5v22q0 244 147.5 401.5t372.5 157.5q224 0 370 -156t146 -401v-22zM821 532v25q0 136 -63.5 221.5t-167.5 85.5q-106 0 -168 -84t-62 -219v-24q0 -134 65 -221t169 -87t165.5 84t61.5 219z
M944 1464l-254 -250h-209l221 361z" />
    <glyph glyph-name="ocircumflex" unicode="&#xf4;" horiz-adv-x="1183" 
d="M1110 537q0 -244 -147.5 -402t-372.5 -158q-224 0 -370 156.5t-146 401.5v22q0 244 147.5 401.5t372.5 157.5q224 0 370 -156t146 -401v-22zM821 532v25q0 136 -63.5 221.5t-167.5 85.5q-106 0 -168 -84t-62 -219v-24q0 -134 65 -221t169 -87t165.5 84t61.5 219z
M946 1214h-211l-145 162l-146 -162h-206l221 322h266z" />
    <glyph glyph-name="otilde" unicode="&#xf5;" horiz-adv-x="1183" 
d="M1110 537q0 -244 -147.5 -402t-372.5 -158q-224 0 -370 156.5t-146 401.5v22q0 244 147.5 401.5t372.5 157.5q224 0 370 -156t146 -401v-22zM821 532v25q0 136 -63.5 221.5t-167.5 85.5q-106 0 -168 -84t-62 -219v-24q0 -134 65 -221t169 -87t165.5 84t61.5 219z
M977 1475q-58 -265 -232 -265q-32 0 -68 9t-54.5 16.5t-55.5 24.5q-74 34 -104 34q-39 0 -60 -22.5t-43 -77.5l-155 47q30 131 86 197.5t145 66.5q76 0 176 -47q68 -35 109 -35q38 0 59 23t41 78z" />
    <glyph glyph-name="odieresis" unicode="&#xf6;" horiz-adv-x="1183" 
d="M1110 537q0 -244 -147.5 -402t-372.5 -158q-224 0 -370 156.5t-146 401.5v22q0 244 147.5 401.5t372.5 157.5q224 0 370 -156t146 -401v-22zM821 532v25q0 136 -63.5 221.5t-167.5 85.5q-106 0 -168 -84t-62 -219v-24q0 -134 65 -221t169 -87t165.5 84t61.5 219z
M934 1221h-275v256h275v-256zM524 1221h-274v256h274v-256z" />
    <glyph glyph-name="divide" unicode="&#xf7;" horiz-adv-x="1136" 
d="M111 590v272h915v-272h-915zM410 1024v305h305v-305h-305zM410 123v305h305v-305h-305z" />
    <glyph glyph-name="oslash" unicode="&#xf8;" horiz-adv-x="1183" 
d="M1108 557v-20q0 -161 -67 -289t-185.5 -199.5t-265.5 -71.5q-144 0 -262 70l-49 -57h-234l141 182q-112 146 -112 363v18q0 244 147.5 403.5t370.5 159.5q141 0 260 -69l51 63h232l-144 -186q117 -152 117 -367zM694 831q-45 39 -104 39q-107 0 -173.5 -88t-66.5 -225
v-20q0 -56 25 -115zM831 532v23q0 59 -24 119l-320 -414q42 -39 105 -39q107 0 173 87t66 224z" />
    <glyph glyph-name="ugrave" unicode="&#xf9;" horiz-adv-x="1126" 
d="M1008 0h-291v147q-56 -78 -122 -122.5t-161 -44.5q-153 0 -238 99.5t-85 270.5v748h290v-662q0 -94 40.5 -144t113.5 -50q75 0 118.5 50t43.5 144v662h291v-1098zM688 1214h-209l-254 250l242 111z" />
    <glyph glyph-name="uacute" unicode="&#xfa;" horiz-adv-x="1126" 
d="M1008 0h-291v147q-56 -78 -122 -122.5t-161 -44.5q-153 0 -238 99.5t-85 270.5v748h290v-662q0 -94 40.5 -144t113.5 -50q75 0 118.5 50t43.5 144v662h291v-1098zM895 1464l-254 -250h-209l221 361z" />
    <glyph glyph-name="ucircumflex" unicode="&#xfb;" horiz-adv-x="1126" 
d="M1008 0h-291v147q-56 -78 -122 -122.5t-161 -44.5q-153 0 -238 99.5t-85 270.5v748h290v-662q0 -94 40.5 -144t113.5 -50q75 0 118.5 50t43.5 144v662h291v-1098zM915 1214h-210l-146 162l-145 -162h-207l221 322h266z" />
    <glyph glyph-name="udieresis" unicode="&#xfc;" horiz-adv-x="1126" 
d="M1008 0h-291v147q-56 -78 -122 -122.5t-161 -44.5q-153 0 -238 99.5t-85 270.5v748h290v-662q0 -94 40.5 -144t113.5 -50q75 0 118.5 50t43.5 144v662h291v-1098zM903 1221h-274v256h274v-256zM494 1221h-275v256h275v-256z" />
    <glyph glyph-name="yacute" unicode="&#xfd;" horiz-adv-x="1083" 
d="M1049 1098l-369 -1108q-55 -164 -131.5 -234.5t-208.5 -70.5q-137 0 -250 63l86 217q66 -39 127 -39q70 0 103 72l-371 1100h303l207 -733l205 733h299zM866 1464l-254 -250h-209l222 361z" />
    <glyph glyph-name="thorn" unicode="&#xfe;" horiz-adv-x="1202" 
d="M1124 532q0 -109 -22.5 -201t-62 -156t-92.5 -108.5t-114 -65.5t-128 -21q-176 0 -297 159v-448h-291v1788h291v-533q120 172 297 172q83 0 157.5 -35t133.5 -101.5t93.5 -174.5t34.5 -244v-31zM834 537v22q0 137 -62 220t-154 83t-153.5 -83t-61.5 -220v-22
q0 -138 61.5 -221t153.5 -83t154 83.5t62 220.5z" />
    <glyph glyph-name="ydieresis" unicode="&#xff;" horiz-adv-x="1083" 
d="M1049 1098l-369 -1108q-55 -164 -131.5 -234.5t-208.5 -70.5q-137 0 -250 63l86 217q66 -39 127 -39q70 0 103 72l-371 1100h303l207 -733l205 733h299zM883 1221h-275v256h275v-256zM473 1221h-274v256h274v-256z" />
    <glyph glyph-name="dotlessi" unicode="&#x131;" horiz-adv-x="546" 
d="M418 0h-291v1098h291v-1098z" />
    <glyph glyph-name="Lslash" unicode="&#x141;" horiz-adv-x="1130" 
d="M1075 0h-872v547l-135 -41v274l135 41v613h291v-523l335 101v-275l-335 -100v-367h581v-270z" />
    <glyph glyph-name="lslash" unicode="&#x142;" horiz-adv-x="679" 
d="M483 668v-668h-288v569l-146 -51v275l146 51v635h288v-535l148 49v-274z" />
    <glyph glyph-name="OE" unicode="&#x152;" horiz-adv-x="1882" 
d="M1792 0h-1018q-203 0 -358.5 89t-240.5 249.5t-85 368.5v14q0 316 189 514.5t495 198.5h1008v-269h-592v-311h518v-266h-518v-322h602v-266zM895 266v897h-129q-166 0 -267.5 -114t-101.5 -324v-16q0 -210 101.5 -326.5t267.5 -116.5h129z" />
    <glyph glyph-name="oe" unicode="&#x153;" horiz-adv-x="1835" 
d="M578 -23q-139 0 -254 70.5t-182.5 199t-67.5 288.5v20q0 161 68 290t185 200t259 71q229 0 366 -176q127 176 346 176q113 0 202 -44.5t145.5 -124t86 -184t29.5 -228.5l-2 -97h-655q20 -110 81 -164.5t156 -54.5q69 0 125 24t119 79l129 -177q-152 -168 -387 -168
q-244 0 -377 181q-67 -87 -162.5 -134t-209.5 -47zM586 229q103 0 162 84.5t59 221.5v22q0 136 -61.5 221.5t-161.5 85.5q-103 0 -163.5 -84t-60.5 -221v-22q0 -135 63 -221.5t163 -86.5zM1100 633h381q-9 115 -57.5 180.5t-129.5 65.5t-130.5 -63.5t-63.5 -182.5z" />
    <glyph glyph-name="Scaron" unicode="&#x160;" horiz-adv-x="1116" 
d="M1040 406q0 -196 -131.5 -309t-341.5 -113q-290 0 -504 178l132 233q189 -145 366 -145q87 0 135.5 34.5t48.5 100.5q0 59 -47 101t-194 104q-63 27 -103.5 46t-87.5 45t-76 50t-58.5 56t-45 67.5t-25.5 81.5t-10 100q0 186 128 300t329 114q251 0 438 -139l-114 -244
q-179 117 -320 117q-77 0 -121.5 -34.5t-44.5 -92.5q0 -27 8 -47t21.5 -36.5t48 -36.5t71 -38t107.5 -49q106 -47 173.5 -87.5t119.5 -92.5t75 -116t23 -148zM911 1858l-221 -322h-266l-221 322h211l143 -160l145 160h209z" />
    <glyph glyph-name="scaron" unicode="&#x161;" horiz-adv-x="894" 
d="M829 319q0 -163 -107.5 -251t-277.5 -88q-218 0 -397 131l94 215q162 -113 303 -113q57 0 88 22t31 60v4q0 13 -4 24t-15 21.5t-21 18.5t-30.5 18.5t-35 17.5t-43 20.5l-47.5 22.5q-49 22 -84.5 41t-76 49.5t-65.5 63.5t-42 80t-17 102v4q0 154 106 243t269 89
q183 0 342 -98l-84 -221q-149 86 -258 86q-51 0 -79 -20.5t-28 -53.5v-4q0 -12 4 -22t14.5 -20.5t20.5 -18.5t30.5 -20t35 -19.5l43.5 -22.5t47 -25q39 -20 63.5 -33t57.5 -34t54 -39t44 -43t35.5 -51t21 -59.5t8.5 -71.5v-5zM807 1536l-221 -322h-267l-221 322h211
l144 -160l145 160h209z" />
    <glyph glyph-name="Ydieresis" unicode="&#x178;" horiz-adv-x="1261" 
d="M1243 1434l-465 -865v-569h-297v565l-465 869h336l281 -564l285 564h325zM973 1542h-275v256h275v-256zM563 1542h-274v256h274v-256z" />
    <glyph glyph-name="Zcaron" unicode="&#x17d;" horiz-adv-x="1224" 
d="M1122 0h-1018v227l652 942h-631v265h997v-228l-651 -942h651v-264zM973 1858l-221 -322h-267l-221 322h211l143 -160l146 160h209z" />
    <glyph glyph-name="zcaron" unicode="&#x17e;" horiz-adv-x="985" 
d="M911 0h-831v205l483 655h-469v238h817v-205l-485 -655h485v-238zM862 1536l-221 -322h-266l-221 322h211l143 -160l145 160h209z" />
    <glyph glyph-name="florin" unicode="&#x192;" horiz-adv-x="970" 
d="M913 1174q-88 18 -120 18q-126 0 -144 -135l-12 -105h213v-237h-250l-57 -406q-24 -171 -112 -245t-249 -74q-61 0 -116 10v242q35 -6 67 -6q56 0 87 28t40 90l49 361h-123v237h160l23 166q49 326 358 326q100 0 186 -23v-247z" />
    <glyph glyph-name="circumflex" unicode="&#x2c6;" 
d="M866 1214h-211l-145 162l-145 -162h-207l221 322h266z" />
    <glyph glyph-name="ring" unicode="&#x2da;" 
d="M750 1444v-6q0 -95 -71.5 -165.5t-166.5 -70.5q-97 0 -168.5 70.5t-71.5 165.5v6q0 96 71.5 166.5t168.5 70.5q96 0 167 -70.5t71 -166.5zM627 1440v4q0 50 -34 86.5t-81 36.5q-49 0 -84 -36.5t-35 -86.5v-4q0 -48 36 -85.5t83 -37.5t81 37.5t34 85.5z" />
    <glyph glyph-name="tilde" unicode="&#x2dc;" 
d="M897 1475q-58 -265 -231 -265q-32 0 -68 9t-55.5 17t-55.5 24q-74 34 -104 34q-39 0 -59.5 -22.5t-42.5 -77.5l-156 47q30 131 86 197.5t145 66.5q76 0 176 -47q68 -35 109 -35q38 0 59 23t41 78z" />
    <glyph glyph-name="afii10023" unicode="&#x401;" horiz-adv-x="1163" 
d="M1073 0h-930v1434h922v-267h-629v-313h553v-266h-553v-322h637v-266zM944 1542h-274v256h274v-256zM535 1542h-275v256h275v-256z" />
    <glyph glyph-name="afii10051" unicode="&#x402;" horiz-adv-x="1509" 
d="M1405 471q0 -120 -38.5 -214.5t-104 -151.5t-146 -86t-170.5 -29q-111 0 -192 35l43 256q69 -11 82 -11q53 0 101 19.5t82 65.5t34 110q0 96 -50.5 149.5t-148.5 53.5q-73 0 -139 -21t-107 -55v-592h-297v1163h-297v271h1012v-271h-418v-329q179 92 318 92q84 0 160 -28
t139 -81.5t100 -143t37 -202.5z" />
    <glyph glyph-name="afii10052" unicode="&#x403;" horiz-adv-x="1042" 
d="M438 1163v-1163h-295v1434h854v-271h-559zM897 1786l-254 -250h-209l221 360z" />
    <glyph glyph-name="afii10053" unicode="&#x404;" horiz-adv-x="1263" 
d="M729 -23q-182 0 -326.5 89.5t-227.5 256t-83 382.5v22q0 156 46.5 290.5t128 230.5t198 151t252.5 55q153 0 258 -41t199 -121l-121 -223q-142 117 -303 117q-128 0 -219.5 -90.5t-122.5 -247.5h481v-254h-483q29 -162 124.5 -251t235.5 -89q148 0 299 123l137 -219
q-93 -93 -204 -137t-269 -44z" />
    <glyph glyph-name="afii10054" unicode="&#x405;" horiz-adv-x="1116" 
d="M1040 406q0 -196 -131.5 -309t-341.5 -113q-290 0 -504 178l132 233q189 -145 366 -145q87 0 135.5 34.5t48.5 100.5q0 59 -47 101t-194 104q-63 27 -103.5 46t-87.5 45t-76 50t-58.5 56t-45 67.5t-25.5 81.5t-10 100q0 186 128 300t329 114q251 0 438 -139l-114 -244
q-179 117 -320 117q-77 0 -121.5 -34.5t-44.5 -92.5q0 -27 8 -47t21.5 -36.5t48 -36.5t71 -38t107.5 -49q106 -47 173.5 -87.5t119.5 -92.5t75 -116t23 -148z" />
    <glyph glyph-name="afii10055" unicode="&#x406;" horiz-adv-x="604" 
d="M449 0h-295v1434h295v-1434z" />
    <glyph glyph-name="afii10056" unicode="&#x407;" horiz-adv-x="604" 
d="M449 0h-295v1434h295v-1434zM645 1542h-274v256h274v-256zM236 1542h-275v256h275v-256z" />
    <glyph glyph-name="afii10057" unicode="&#x408;" horiz-adv-x="989" 
d="M864 455q0 -233 -123 -353t-335 -120q-224 0 -375 155l137 232q109 -109 219 -109q174 0 174 211v963h303v-979z" />
    <glyph glyph-name="afii10058" unicode="&#x409;" horiz-adv-x="1974" 
d="M911 0v1163h-329v-166q0 -249 -15.5 -423t-45.5 -290t-83 -181t-119 -91t-163 -26q-59 0 -158 18l31 250q21 -6 49 -6q39 0 66 10t54.5 40.5t45 90.5t32 156.5t21 243t6.5 344.5v301h903v-478h207q233 0 368.5 -126.5t135.5 -348.5q0 -153 -69.5 -263.5t-184.5 -164
t-262 -53.5h-490zM1206 266h205q98 0 154.5 56.5t56.5 152.5q0 105 -56 159t-157 54h-203v-422z" />
    <glyph glyph-name="afii10059" unicode="&#x40a;" horiz-adv-x="2011" 
d="M1206 1434v-523h267q222 0 351.5 -120.5t129.5 -331.5q0 -146 -66.5 -251.5t-177 -156.5t-250.5 -51h-549v637h-473v-637h-295v1434h295v-523h473v523h295zM1206 266h264q87 0 138 51t51 136q0 94 -50.5 142t-140.5 48h-262v-377z" />
    <glyph glyph-name="afii10060" unicode="&#x40b;" horiz-adv-x="1509" 
d="M651 1163v-329q179 92 318 92q192 0 304.5 -112t112.5 -349v-465h-294v403q0 134 -48 199.5t-147 65.5q-73 0 -139 -21t-107 -55v-592h-297v1163h-297v271h1012v-271h-418z" />
    <glyph glyph-name="afii10061" unicode="&#x40c;" horiz-adv-x="1294" 
d="M1278 0h-350l-357 590l-133 -168v-422h-295v1434h295v-619l467 619h352l-481 -607zM981 1786l-254 -250h-209l221 360z" />
    <glyph glyph-name="afii10062" unicode="&#x40e;" horiz-adv-x="1269" 
d="M342 -12q-135 0 -233 63l92 215q73 -30 125 -30q59 0 99.5 34.5t72.5 98.5l-478 1065h324l309 -715l283 715h313l-456 -1084q-82 -196 -182 -279t-269 -83zM657 1522q-131 0 -213.5 74.5t-101.5 215.5l168 31q14 -62 51 -96.5t96 -34.5q56 0 93.5 35t52.5 96l166 -31
q-18 -140 -101 -215t-211 -75z" />
    <glyph glyph-name="afii10145" unicode="&#x40f;" horiz-adv-x="1337" 
d="M143 0v1434h293v-1162h465v1162h293v-1434h-385v-268h-283v268h-383z" />
    <glyph glyph-name="afii10017" unicode="&#x410;" horiz-adv-x="1376" 
d="M1341 0h-305l-106 311h-492l-106 -311h-297l512 1442h282zM840 573l-156 467l-158 -467h314z" />
    <glyph glyph-name="afii10018" unicode="&#x411;" horiz-adv-x="1257" 
d="M143 0v1434h944v-271h-649v-252h267q222 0 351.5 -120.5t129.5 -331.5q0 -146 -66.5 -251.5t-177 -156.5t-250.5 -51h-549zM438 266h264q87 0 138 51t51 136q0 94 -50.5 142t-140.5 48h-262v-377z" />
    <glyph glyph-name="afii10019" unicode="&#x412;" horiz-adv-x="1277" 
d="M1206 395q0 -191 -140 -293t-378 -102h-545v1434h531q213 0 342 -98t129 -277q0 -213 -195 -314q124 -50 190 -129.5t66 -212.5v-8zM852 1010q0 80 -52 120.5t-149 40.5h-219v-325h205q102 0 158.5 41t56.5 123zM911 428q0 83 -56 127.5t-167 44.5h-256v-338h264
q102 0 158.5 42t56.5 124z" />
    <glyph glyph-name="afii10020" unicode="&#x413;" horiz-adv-x="1042" 
d="M438 1163v-1163h-295v1434h854v-271h-559z" />
    <glyph glyph-name="afii10021" unicode="&#x414;" horiz-adv-x="1368" 
d="M889 1163h-334v-22q0 -300 -28 -500t-95 -371h457v893zM1047 0h-750l-29 -268h-254v538h113q76 186 109.5 411t33.5 574v179h914v-1164h147l-37 -538h-247v268z" />
    <glyph glyph-name="afii10022" unicode="&#x415;" horiz-adv-x="1163" 
d="M1073 0h-930v1434h922v-267h-629v-313h553v-266h-553v-322h637v-266z" />
    <glyph glyph-name="afii10024" unicode="&#x416;" horiz-adv-x="1980" 
d="M842 0v360l-133 240l-347 -600h-346l478 799l-463 635h348l463 -656v656h295v-656l462 656h343l-457 -635l477 -799h-346l-348 600l-131 -240v-360h-295z" />
    <glyph glyph-name="afii10025" unicode="&#x417;" horiz-adv-x="1138" 
d="M561 -20q-170 0 -290 46t-226 132l117 223q157 -129 336 -129q258 0 258 166q0 90 -71.5 138t-195.5 48h-118v246h114q104 0 177 53.5t73 128.5t-62.5 114.5t-166.5 39.5q-168 0 -303 -125l-117 211q96 91 211 135.5t289 44.5q193 0 316.5 -105.5t123.5 -271.5
q0 -229 -223 -327q116 -40 184 -124t68 -218q0 -191 -136.5 -308.5t-357.5 -117.5z" />
    <glyph glyph-name="afii10026" unicode="&#x418;" horiz-adv-x="1368" 
d="M1225 1434v-1434h-291v899l-518 -899h-273v1434h291v-887l516 887h275z" />
    <glyph glyph-name="afii10027" unicode="&#x419;" horiz-adv-x="1368" 
d="M1225 1434v-1434h-291v899l-518 -899h-273v1434h291v-887l516 887h275zM692 1522q-131 0 -213.5 74.5t-101.5 215.5l168 31q14 -62 51 -96.5t96 -34.5q56 0 93.5 35t52.5 96l166 -31q-18 -140 -101 -215t-211 -75z" />
    <glyph glyph-name="afii10028" unicode="&#x41a;" horiz-adv-x="1294" 
d="M1278 0h-350l-357 590l-133 -168v-422h-295v1434h295v-619l467 619h352l-481 -607z" />
    <glyph glyph-name="afii10029" unicode="&#x41b;" horiz-adv-x="1349" 
d="M78 248q39 0 66 10t54.5 40.5t45 90.5t32 156.5t21 243t6.5 344.5v301h903v-1434h-295v1163h-329v-166q0 -249 -15.5 -423t-45.5 -290t-83 -181t-119 -91t-163 -26q-59 0 -158 18l31 250q21 -6 49 -6z" />
    <glyph glyph-name="afii10030" unicode="&#x41c;" horiz-adv-x="1542" 
d="M1401 0h-291v915l-338 -591h-6l-336 585v-909h-287v1434h312l315 -582l317 582h314v-1434z" />
    <glyph glyph-name="afii10031" unicode="&#x41d;" horiz-adv-x="1349" 
d="M1206 0h-295v584h-473v-584h-295v1434h295v-576h473v576h295v-1434z" />
    <glyph glyph-name="afii10032" unicode="&#x41e;" horiz-adv-x="1476" 
d="M1384 707q0 -158 -48.5 -294t-133.5 -232t-205 -150t-260 -54q-284 0 -465.5 203t-181.5 522v25q0 211 83 377.5t231 259t335 92.5q186 0 333.5 -92t229.5 -257.5t82 -375.5v-24zM1079 702v25q0 209 -95 333t-247 124q-153 0 -246.5 -121.5t-93.5 -331.5v-24
q0 -210 94.5 -333.5t247.5 -123.5t246.5 121.5t93.5 330.5z" />
    <glyph glyph-name="afii10033" unicode="&#x41f;" horiz-adv-x="1337" 
d="M143 0v1434h1051v-1434h-295v1163h-461v-1163h-295z" />
    <glyph glyph-name="afii10034" unicode="&#x420;" horiz-adv-x="1193" 
d="M1143 938q0 -121 -41.5 -217.5t-114.5 -158t-170 -94t-211 -32.5h-168v-436h-295v1434h475q242 0 383.5 -132.5t141.5 -363.5zM844 932q0 116 -62 174.5t-172 58.5h-172v-463h174q107 0 169.5 62.5t62.5 167.5z" />
    <glyph glyph-name="afii10035" unicode="&#x421;" horiz-adv-x="1263" 
d="M1194 172q-96 -96 -205.5 -144t-263.5 -48q-135 0 -252 52.5t-201.5 146.5t-133 230.5t-48.5 297.5v18q0 215 83.5 381.5t231 257t334.5 90.5q149 0 252 -41.5t193 -122.5l-140 -239q-150 127 -299 127q-155 0 -251.5 -121.5t-96.5 -327.5v-20q0 -211 96.5 -332
t254.5 -121q89 0 159 32.5t146 98.5z" />
    <glyph glyph-name="afii10036" unicode="&#x422;" horiz-adv-x="1128" 
d="M1069 1159h-356v-1159h-297v1159h-359v275h1012v-275z" />
    <glyph glyph-name="afii10037" unicode="&#x423;" horiz-adv-x="1269" 
d="M342 -12q-135 0 -233 63l92 215q73 -30 125 -30q59 0 99.5 34.5t72.5 98.5l-478 1065h324l309 -715l283 715h313l-456 -1084q-82 -196 -182 -279t-269 -83z" />
    <glyph glyph-name="afii10038" unicode="&#x424;" horiz-adv-x="1689" 
d="M696 -45v158q-142 0 -260 45.5t-198.5 126t-125 192t-44.5 242.5q0 287 172.5 453.5t455.5 166.5v138h295v-138q283 0 456 -166.5t173 -453.5q0 -130 -44.5 -242t-125 -192.5t-199 -126t-260.5 -45.5v-158h-295zM696 379v694q-149 0 -237 -90t-88 -256q0 -162 89 -255
t236 -93zM991 379q147 0 236.5 93t89.5 255q0 166 -88.5 256t-237.5 90v-694z" />
    <glyph glyph-name="afii10039" unicode="&#x425;" horiz-adv-x="1290" 
d="M1241 0h-338l-262 475l-264 -475h-328l420 731l-403 703h337l244 -449l248 449h328l-402 -703z" />
    <glyph glyph-name="afii10040" unicode="&#x426;" horiz-adv-x="1376" 
d="M141 0v1434h297v-1164h461v1164h295v-1164h143l-37 -538h-243v268h-916z" />
    <glyph glyph-name="afii10041" unicode="&#x427;" horiz-adv-x="1275" 
d="M838 0v530q-179 -92 -318 -92q-192 0 -305 112t-113 349v535h295v-453q0 -134 48 -199t147 -65q73 0 139 21t107 55v641h295v-1434h-295z" />
    <glyph glyph-name="afii10042" unicode="&#x428;" horiz-adv-x="1996" 
d="M1853 1434v-1434h-1710v1434h295v-1164h412v1164h295v-1164h414v1164h294z" />
    <glyph glyph-name="afii10043" unicode="&#x429;" horiz-adv-x="2035" 
d="M1716 -268v268h-1573v1434h295v-1164h412v1164h295v-1164h414v1164h294v-1164h146l-37 -538h-246z" />
    <glyph glyph-name="afii10044" unicode="&#x42a;" horiz-adv-x="1398" 
d="M334 0v1163h-285v271h578v-478h209q233 0 368 -126.5t135 -348.5q0 -153 -69.5 -263.5t-184.5 -164t-262 -53.5h-489zM627 266h207q98 0 154 56.5t56 152.5q0 105 -56 159t-157 54h-204v-422z" />
    <glyph glyph-name="afii10045" unicode="&#x42b;" horiz-adv-x="1720" 
d="M141 0v1434h295v-478h209q233 0 368.5 -126.5t135.5 -348.5q0 -153 -69.5 -263.5t-184.5 -164t-262 -53.5h-492zM436 266h207q98 0 154.5 56.5t56.5 152.5q0 105 -56 159t-157 54h-205v-422zM1282 0v1434h295v-1434h-295z" />
    <glyph glyph-name="afii10046" unicode="&#x42c;" horiz-adv-x="1206" 
d="M633 0h-492v1434h295v-478h209q233 0 368.5 -126.5t135.5 -348.5q0 -153 -69.5 -263.5t-184.5 -164t-262 -53.5zM436 266h207q98 0 154.5 56.5t56.5 152.5q0 105 -56 159t-157 54h-205v-422z" />
    <glyph glyph-name="afii10047" unicode="&#x42d;" horiz-adv-x="1263" 
d="M535 -23q-158 0 -269.5 44t-204.5 137l138 219q151 -123 299 -123q140 0 235.5 89t124.5 251h-483v254h481q-31 157 -122.5 247.5t-219.5 90.5q-161 0 -303 -117l-121 223q94 80 199 121t258 41q181 0 323.5 -93.5t221.5 -259.5t79 -374v-22q0 -216 -83 -382.5t-227 -256
t-326 -89.5z" />
    <glyph glyph-name="afii10048" unicode="&#x42e;" horiz-adv-x="1894" 
d="M1200 -23q-241 0 -402.5 165t-193.5 444h-166v-586h-297v1434h297v-580h168q34 272 196.5 437t399.5 165q175 0 312 -91.5t213.5 -258t76.5 -379.5v-22q0 -212 -76.5 -378t-214 -258t-313.5 -92zM1202 246q129 0 213 124t84 347q0 220 -85.5 344.5t-213.5 124.5
q-129 0 -214 -123.5t-85 -345.5q0 -223 85.5 -347t215.5 -124z" />
    <glyph glyph-name="afii10049" unicode="&#x42f;" horiz-adv-x="1280" 
d="M1137 1434v-1434h-297v471h-187l-264 -471h-338l303 532q-124 54 -195 162t-71 271q0 212 125 332.5t344 129.5q157 7 272 7h308zM612 733h228v430h-56q-49 0 -73 -0.5t-65.5 -2t-63 -5.5t-54 -11.5t-49.5 -18t-37.5 -27t-30.5 -38.5t-17 -51t-7 -65q0 -100 60 -155.5
t165 -55.5z" />
    <glyph glyph-name="afii10065" unicode="&#x430;" horiz-adv-x="1062" 
d="M956 0h-284v117q-106 -135 -285 -135q-142 0 -235 88t-93 241v15q0 175 103.5 262.5t279.5 87.5q124 0 232 -43v31q0 94 -53.5 143t-157.5 49q-123 0 -266 -57l-56 235q86 38 171 57t198 19q224 0 335 -114t111 -330v-666zM676 358v95q-70 34 -162 34q-81 0 -127.5 -37.5
t-46.5 -109.5v-14q0 -66 38.5 -101t102.5 -35q86 0 140.5 46.5t54.5 121.5z" />
    <glyph glyph-name="afii10066" unicode="&#x431;" horiz-adv-x="1169" 
d="M643 1063q90 0 173 -39t145.5 -107t99.5 -168.5t37 -216.5v-8q0 -242 -142.5 -394.5t-363.5 -152.5q-239 0 -370.5 159.5t-131.5 457.5v29q0 114 5.5 197t21.5 171.5t49.5 157.5t85.5 121q45 44 111.5 76.5t150 52t157 32t174 26.5t159.5 26l38 -240q-182 -36 -292 -53
q-174 -25 -270 -64t-134 -92t-43 -139q21 37 59 72t114 65.5t167 30.5zM809 516v25q0 127 -59.5 206.5t-157.5 79.5q-100 0 -157.5 -77.5t-57.5 -204.5v-25q0 -126 61 -206.5t158 -80.5q98 0 155.5 78.5t57.5 204.5z" />
    <glyph glyph-name="afii10067" unicode="&#x432;" horiz-adv-x="1085" 
d="M117 1098h487q164 0 262.5 -75t98.5 -212q0 -162 -148 -240q95 -39 145 -100.5t50 -167.5q0 -146 -107.5 -224.5t-288.5 -78.5h-499v1098zM694 766q0 55 -36 83t-101 28h-149v-224h141q68 0 106.5 28t38.5 85zM719 342q0 119 -154 119h-157v-232h163q70 0 109 29t39 84z
" />
    <glyph glyph-name="afii10068" unicode="&#x433;" horiz-adv-x="849" 
d="M117 0v1098h704v-250h-413v-848h-291z" />
    <glyph glyph-name="afii10069" unicode="&#x434;" horiz-adv-x="1167" 
d="M723 852h-236q0 -401 -79 -600h315v600zM862 0h-592l-24 -231h-242v483h109q58 130 79 310t21 421v115h801v-846h125q-4 -90 -17.5 -254t-17.5 -229h-242v231z" />
    <glyph glyph-name="afii10070" unicode="&#x435;" horiz-adv-x="1093" 
d="M1020 535q0 -57 -4 -97h-656q20 -110 82 -164.5t156 -54.5q71 0 127 24t117 79l131 -177q-152 -168 -385 -168q-146 0 -263 68t-185 196t-68 294v20q0 244 136 402.5t345 158.5q152 0 259 -78t157.5 -207t50.5 -296zM739 633q-9 116 -57 181t-129 65q-80 0 -131 -64
t-64 -182h381z" />
    <glyph glyph-name="afii10072" unicode="&#x436;" horiz-adv-x="1603" 
d="M946 0h-291v270l-92 181l-241 -451h-318l352 621l-344 477h328l315 -467v467h291v-467l316 467h327l-344 -477l352 -621h-317l-242 451l-92 -181v-270z" />
    <glyph glyph-name="afii10073" unicode="&#x437;" horiz-adv-x="925" 
d="M449 -23q-255 0 -416 132l100 206q135 -96 279 -96q65 0 109 33t44 84q0 54 -48.5 88.5t-135.5 34.5h-92v188h90q74 0 120 36t46 87q0 46 -42 73t-108 27q-63 0 -126.5 -25.5t-112.5 -66.5q-25 50 -95 199q73 62 177 98.5t219 36.5q160 0 266 -81t106 -212
q0 -175 -163 -248q184 -69 184 -260q0 -148 -113.5 -241t-287.5 -93z" />
    <glyph glyph-name="afii10074" unicode="&#x438;" horiz-adv-x="1148" 
d="M1030 1098v-1098h-280v625l-357 -625h-276v1098h282v-619l355 619h276z" />
    <glyph glyph-name="afii10075" unicode="&#x439;" horiz-adv-x="1148" 
d="M1030 1098v-1098h-280v625l-357 -625h-276v1098h282v-619l355 619h276zM575 1198q-127 0 -208.5 74.5t-100.5 212.5l166 28q14 -59 50 -93t93 -34q55 0 91.5 34t52.5 93l164 -28q-19 -138 -100.5 -212.5t-207.5 -74.5z" />
    <glyph glyph-name="afii10076" unicode="&#x43a;" horiz-adv-x="1095" 
d="M117 0v1098h291v-449l321 449h328l-340 -455l375 -643h-336l-236 418l-112 -144v-274h-291z" />
    <glyph glyph-name="afii10077" unicode="&#x43b;" horiz-adv-x="1159" 
d="M92 242q42 0 67.5 26.5t47.5 111.5t31.5 260.5t9.5 457.5h792v-1098h-290v852h-230q0 -256 -19.5 -422.5t-64.5 -264.5t-109.5 -136.5t-162.5 -38.5q-99 0 -180 26l39 236q17 -10 69 -10z" />
    <glyph glyph-name="afii10078" unicode="&#x43c;" horiz-adv-x="1318" 
d="M117 0v1098h293l247 -439l252 439h293v-1098h-291v653l-256 -434l-254 430v-649h-284z" />
    <glyph glyph-name="afii10079" unicode="&#x43d;" horiz-adv-x="1132" 
d="M1016 1098v-1098h-291v426h-317v-426h-291v1098h291v-426h317v426h291z" />
    <glyph glyph-name="afii10080" unicode="&#x43e;" horiz-adv-x="1183" 
d="M1110 537q0 -244 -147.5 -402t-372.5 -158q-224 0 -370 156.5t-146 401.5v22q0 244 147.5 401.5t372.5 157.5q224 0 370 -156t146 -401v-22zM821 532v25q0 136 -63.5 221.5t-167.5 85.5q-106 0 -168 -84t-62 -219v-24q0 -134 65 -221t169 -87t165.5 84t61.5 219z" />
    <glyph glyph-name="afii10081" unicode="&#x43f;" horiz-adv-x="1128" 
d="M1010 1098v-1098h-291v852h-311v-852h-291v1098h893z" />
    <glyph glyph-name="afii10082" unicode="&#x440;" horiz-adv-x="1202" 
d="M1124 532q0 -136 -34 -243.5t-93 -173.5t-133 -100.5t-159 -34.5q-100 0 -170 43.5t-127 115.5v-448h-291v1407h291v-152q118 172 297 172q84 0 158 -34.5t133 -100.5t93.5 -174t34.5 -244v-33zM836 537v24q0 136 -62.5 219.5t-155.5 83.5q-91 0 -151.5 -83t-60.5 -220
v-24q0 -137 60.5 -220.5t151.5 -83.5q93 0 155.5 83t62.5 221z" />
    <glyph glyph-name="afii10083" unicode="&#x441;" horiz-adv-x="993" 
d="M938 131q-75 -76 -158 -115t-205 -39q-220 0 -360.5 156.5t-140.5 401.5v22q0 244 143 401.5t363 157.5q121 0 202.5 -33.5t149.5 -103.5l-131 -217q-50 48 -99 72t-114 24q-99 0 -162.5 -82.5t-63.5 -214.5v-24q0 -137 64.5 -219t171.5 -82q106 0 213 96z" />
    <glyph glyph-name="afii10084" unicode="&#x442;" horiz-adv-x="901" 
d="M303 0v848h-276v250h845v-250h-274v-848h-295z" />
    <glyph glyph-name="afii10085" unicode="&#x443;" horiz-adv-x="1083" 
d="M1049 1098l-369 -1108q-55 -164 -131.5 -234.5t-208.5 -70.5q-137 0 -250 63l86 217q66 -39 127 -39q70 0 103 72l-371 1100h303l207 -733l205 733h299z" />
    <glyph glyph-name="afii10086" unicode="&#x444;" horiz-adv-x="1636" 
d="M965 805v-516q53 -56 112 -56q93 0 142 79.5t49 222.5v22q0 142 -49.5 222.5t-141.5 80.5q-57 0 -112 -55zM672 289v516q-55 55 -113 55q-92 0 -141 -80.5t-49 -222.5v-22q0 -144 48 -223t142 -79q60 0 113 56zM965 -309h-293v387q-32 -40 -88.5 -66t-124.5 -26
q-171 0 -276 145.5t-105 429.5q0 267 105 409t278 142q64 0 120 -30.5t91 -73.5v426h293v-426q33 43 89 73.5t122 30.5q173 0 278 -142t105 -409v-29q0 -266 -104.5 -406t-276.5 -140q-68 0 -125 26t-88 66v-387z" />
    <glyph glyph-name="afii10087" unicode="&#x445;" horiz-adv-x="1056" 
d="M1018 0h-309l-185 344l-184 -344h-303l330 559l-318 539h307l174 -322l175 322h301l-320 -535z" />
    <glyph glyph-name="afii10088" unicode="&#x446;" horiz-adv-x="1161" 
d="M858 -231v231h-741v1098h291v-846h311v846h291v-846h125l-33 -483h-244z" />
    <glyph glyph-name="afii10089" unicode="&#x447;" horiz-adv-x="1091" 
d="M684 0v383q-48 -25 -120 -43t-144 -18q-147 0 -238.5 86t-91.5 256v434h293v-348q0 -177 133 -177q87 0 168 43v482h291v-1098h-291z" />
    <glyph glyph-name="afii10090" unicode="&#x448;" horiz-adv-x="1687" 
d="M1571 1098v-1098h-1454v1098h291v-846h290v846h291v-846h291v846h291z" />
    <glyph glyph-name="afii10091" unicode="&#x449;" horiz-adv-x="1722" 
d="M1419 -231v231h-1302v1098h291v-846h290v846h291v-846h289v846h293v-846h125l-33 -483h-244z" />
    <glyph glyph-name="afii10092" unicode="&#x44a;" horiz-adv-x="1165" 
d="M262 0v848h-235v250h526v-365h190q179 0 283 -97t104 -267q0 -175 -111 -272t-284 -97h-473zM553 227h141q67 0 105.5 39t38.5 105q0 72 -38.5 108.5t-107.5 36.5h-139v-289z" />
    <glyph glyph-name="afii10093" unicode="&#x44b;" horiz-adv-x="1515" 
d="M117 0v1098h291v-365h190q179 0 283 -97t104 -267q0 -175 -111 -272t-284 -97h-473zM408 227h141q67 0 105 39t38 105q0 72 -38 108.5t-107 36.5h-139v-289zM1108 0v1098h291v-1098h-291z" />
    <glyph glyph-name="afii10094" unicode="&#x44c;" horiz-adv-x="1019" 
d="M117 0v1098h291v-365h190q179 0 283 -97t104 -267q0 -175 -111 -272t-284 -97h-473zM408 227h141q67 0 105 39t38 105q0 72 -38 108.5t-107 36.5h-139v-289z" />
    <glyph glyph-name="afii10095" unicode="&#x44d;" horiz-adv-x="999" 
d="M422 -23q-231 0 -377 146l127 201q101 -88 207 -88q96 0 161.5 53.5t90.5 152.5h-322v211h322q-24 103 -87 156t-153 53q-116 0 -211 -82l-112 201q64 56 151.5 94.5t188.5 38.5q225 0 370.5 -156t145.5 -401v-18q0 -246 -141 -404t-361 -158z" />
    <glyph glyph-name="afii10096" unicode="&#x44e;" horiz-adv-x="1595" 
d="M1024 -23q-191 0 -324.5 122.5t-162.5 324.5h-129v-424h-291v1098h291v-426h129q32 199 166 321.5t323 122.5q217 0 356.5 -157t139.5 -404v-18q0 -246 -140 -403t-358 -157zM1026 227q97 0 153 87t56 233q0 142 -58.5 229.5t-152.5 87.5q-97 0 -153 -86.5t-56 -230.5
q0 -143 58 -231.5t153 -88.5z" />
    <glyph glyph-name="afii10097" unicode="&#x44f;" horiz-adv-x="1093" 
d="M29 0l243 414q-198 88 -198 319q0 98 33 170.5t92.5 114t134.5 61t168 19.5h475v-1098h-291v358h-129l-199 -358h-329zM518 573h168v295h-51h-49.5t-45 -1.5t-43.5 -4t-36.5 -7.5t-33.5 -12t-25.5 -18.5t-20.5 -26t-11 -34.5t-5 -45q0 -70 41 -108t112 -38z" />
    <glyph glyph-name="afii10071" unicode="&#x451;" horiz-adv-x="1093" 
d="M1020 535q0 -57 -4 -97h-656q20 -110 82 -164.5t156 -54.5q71 0 127 24t117 79l131 -177q-152 -168 -385 -168q-146 0 -263 68t-185 196t-68 294v20q0 244 136 402.5t345 158.5q152 0 259 -78t157.5 -207t50.5 -296zM739 633q-9 116 -57 181t-129 65q-80 0 -131 -64
t-64 -182h381zM901 1221h-274v256h274v-256zM492 1221h-275v256h275v-256z" />
    <glyph glyph-name="afii10099" unicode="&#x452;" horiz-adv-x="1126" 
d="M692 -10q-58 0 -123 10v229q18 -4 52 -4q104 0 104 115v260q0 94 -41 144.5t-115 50.5q-75 0 -118 -50.5t-43 -144.5v-600h-291v1126h-111v220h111v133h291v-133h311v-220h-311v-237q56 78 121.5 123t160.5 45q155 0 240.5 -100t85.5 -271v-371q0 -325 -324 -325z" />
    <glyph glyph-name="afii10100" unicode="&#x453;" horiz-adv-x="849" 
d="M117 0v1098h704v-250h-413v-848h-291zM780 1464l-254 -250h-209l222 361z" />
    <glyph glyph-name="afii10101" unicode="&#x454;" horiz-adv-x="999" 
d="M578 -23q-220 0 -361 158t-141 404v18q0 245 145.5 401t370.5 156q101 0 188.5 -38.5t151.5 -94.5l-113 -201q-95 82 -211 82q-90 0 -152.5 -52.5t-86.5 -156.5h321v-211h-321q25 -99 90.5 -152.5t161.5 -53.5q105 0 206 88l127 -201q-146 -146 -376 -146z" />
    <glyph glyph-name="afii10102" unicode="&#x455;" horiz-adv-x="894" 
d="M829 319q0 -163 -107.5 -251t-277.5 -88q-218 0 -397 131l94 215q162 -113 303 -113q57 0 88 22t31 60v4q0 13 -4 24t-15 21.5t-21 18.5t-30.5 18.5t-35 17.5t-43 20.5l-47.5 22.5q-49 22 -84.5 41t-76 49.5t-65.5 63.5t-42 80t-17 102v4q0 154 106 243t269 89
q183 0 342 -98l-84 -221q-149 86 -258 86q-51 0 -79 -20.5t-28 -53.5v-4q0 -12 4 -22t14.5 -20.5t20.5 -18.5t30.5 -20t35 -19.5l43.5 -22.5t47 -25q39 -20 63.5 -33t57.5 -34t54 -39t44 -43t35.5 -51t21 -59.5t8.5 -71.5v-5z" />
    <glyph glyph-name="afii10103" unicode="&#x456;" horiz-adv-x="546" 
d="M426 1214h-303v265h303v-265zM418 0h-291v1098h291v-1098z" />
    <glyph glyph-name="afii10104" unicode="&#x457;" horiz-adv-x="546" 
d="M616 1221h-274v256h274v-256zM207 1221h-275v256h275v-256zM418 0h-291v1098h291v-1098z" />
    <glyph glyph-name="afii10105" unicode="&#x458;" horiz-adv-x="548" 
d="M426 1214h-303v265h303v-265zM420 10q0 -325 -324 -325q-58 0 -123 10v229q18 -4 52 -4q104 0 104 115v1063h291v-1088z" />
    <glyph glyph-name="afii10106" unicode="&#x459;" horiz-adv-x="1652" 
d="M750 0v852h-230q0 -256 -19.5 -422.5t-64.5 -264.5t-109.5 -136.5t-162.5 -38.5q-99 0 -180 26l39 236q17 -10 69 -10q42 0 67.5 26.5t47.5 111.5t31.5 260.5t9.5 457.5h792v-365h191q179 0 283 -97t104 -267q0 -175 -111 -272t-284 -97h-473zM1040 227h142q67 0 105 39
t38 105q0 72 -38 108.5t-107 36.5h-140v-289z" />
    <glyph glyph-name="afii10107" unicode="&#x45a;" horiz-adv-x="1628" 
d="M725 0v487h-317v-487h-291v1098h291v-365h317v365h291v-365h190q179 0 283 -97t104 -267q0 -175 -111 -272t-284 -97h-473zM1016 227h141q67 0 105 39t38 105q0 72 -38 108.5t-107 36.5h-139v-289z" />
    <glyph glyph-name="afii10108" unicode="&#x45b;" horiz-adv-x="1126" 
d="M6 1346h111v133h291v-133h311v-220h-311v-237q56 78 121.5 123t160.5 45q155 0 240.5 -100t85.5 -271v-686h-291v600q0 94 -41 144.5t-115 50.5q-75 0 -118 -50.5t-43 -144.5v-600h-291v1126h-111v220z" />
    <glyph glyph-name="afii10109" unicode="&#x45c;" horiz-adv-x="1095" 
d="M117 0v1098h291v-449l321 449h328l-340 -455l375 -643h-336l-236 418l-112 -144v-274h-291zM881 1464l-254 -250h-209l221 361z" />
    <glyph glyph-name="afii10110" unicode="&#x45e;" horiz-adv-x="1083" 
d="M1049 1098l-369 -1108q-55 -164 -131.5 -234.5t-208.5 -70.5q-137 0 -250 63l86 217q66 -39 127 -39q70 0 103 72l-371 1100h303l207 -733l205 733h299zM545 1198q-127 0 -208.5 74.5t-100.5 212.5l165 28q14 -59 50.5 -93t93.5 -34q55 0 91 34t52 93l164 -28
q-19 -138 -100 -212.5t-207 -74.5z" />
    <glyph glyph-name="afii10193" unicode="&#x45f;" horiz-adv-x="1128" 
d="M700 -231h-270v231h-313v1098h291v-846h311v846h291v-1098h-310v-231z" />
    <glyph glyph-name="afii10050" unicode="&#x490;" horiz-adv-x="1042" 
d="M143 1434h574v268h244l36 -539h-559v-1163h-295v1434z" />
    <glyph glyph-name="afii10098" unicode="&#x491;" horiz-adv-x="849" 
d="M821 848h-413v-848h-291v1098h428v233h243z" />
    <glyph glyph-name="endash" unicode="&#x2013;" horiz-adv-x="1036" 
d="M940 498h-846v274h846v-274z" />
    <glyph glyph-name="emdash" unicode="&#x2014;" horiz-adv-x="1701" 
d="M1606 498h-1512v274h1512v-274z" />
    <glyph glyph-name="quoteleft" unicode="&#x2018;" horiz-adv-x="546" 
d="M487 1323q-104 -15 -152 -71.5t-40 -141.5h127v-313h-316v262q0 368 357 383z" />
    <glyph glyph-name="quoteright" unicode="&#x2019;" horiz-adv-x="546" 
d="M442 1171q0 -368 -358 -383l-25 119q104 15 152.5 71t40.5 142h-127v314h317v-263z" />
    <glyph glyph-name="quotesinglbase" unicode="&#x201a;" horiz-adv-x="563" 
d="M444 51q0 -188 -91.5 -281t-274.5 -102l-23 121q109 15 158 70.5t41 140.5h-127v313h317v-262z" />
    <glyph glyph-name="quotedblleft" unicode="&#x201c;" horiz-adv-x="1028" 
d="M969 1323q-104 -15 -152.5 -71.5t-40.5 -141.5h127v-313h-317v262q0 368 358 383zM487 1323q-104 -15 -152 -71.5t-40 -141.5h127v-313h-316v262q0 368 357 383z" />
    <glyph glyph-name="quotedblright" unicode="&#x201d;" horiz-adv-x="1028" 
d="M924 1171q0 -367 -359 -383l-24 119q104 15 152 71t40 142h-127v314h318v-263zM442 1171q0 -368 -358 -383l-25 119q104 15 152.5 71t40.5 142h-127v314h317v-263z" />
    <glyph glyph-name="quotedblbase" unicode="&#x201e;" horiz-adv-x="1050" 
d="M932 51q0 -188 -92 -281t-275 -102l-24 121q110 14 159 70t41 141h-127v313h318v-262zM444 51q0 -188 -91.5 -281t-274.5 -102l-23 121q109 15 158 70.5t41 140.5h-127v313h317v-262z" />
    <glyph glyph-name="dagger" unicode="&#x2020;" horiz-adv-x="733" 
d="M428 1040l23 -553h-170l22 553l-217 -20v168l215 -23l-29 269h187l-29 -269l215 23v-168z" />
    <glyph glyph-name="daggerdbl" unicode="&#x2021;" horiz-adv-x="772" 
d="M666 244l-215 20l28 -264h-186l29 264l-216 -20v168l216 -23l-23 328l23 323l-216 -20v168l216 -23l-29 269h186l-28 -269l215 23v-168l-217 20l22 -323l-22 -328l217 23v-168z" />
    <glyph glyph-name="bullet" unicode="&#x2022;" horiz-adv-x="931" 
d="M465 416q-118 0 -199.5 85.5t-81.5 215.5v12q0 129 81.5 214t199.5 85q120 0 201.5 -85t81.5 -214v-12q0 -131 -81.5 -216t-201.5 -85z" />
    <glyph glyph-name="ellipsis" unicode="&#x2026;" horiz-adv-x="1654" 
d="M1536 0h-311v309h311v-309zM983 0h-311v309h311v-309zM430 0h-311v309h311v-309z" />
    <glyph glyph-name="perthousand" unicode="&#x2030;" horiz-adv-x="2285" 
d="M705 1085v-14q0 -158 -88.5 -262t-227.5 -104q-137 0 -223 103t-86 261v12q0 158 87.5 262.5t225.5 104.5q137 0 224.5 -102.5t87.5 -260.5zM1151 1434h215l-934 -1434h-215zM2206 365v-15q0 -158 -88.5 -261t-227.5 -103q-137 0 -223 102t-86 260v12q0 158 87.5 262.5
t225.5 104.5q137 0 224.5 -102t87.5 -260zM1503 365v-15q0 -158 -88 -261t-227 -103q-137 0 -224 102t-87 260v12q0 158 87.5 262.5t225.5 104.5q137 0 225 -102.5t88 -259.5zM502 1069v12q0 85 -31 136t-82 51q-52 0 -81 -50.5t-29 -134.5v-12q0 -84 31.5 -135t82.5 -51
q52 0 80.5 49.5t28.5 134.5zM2005 348v12q0 84 -32 135.5t-83 51.5q-52 0 -80 -50t-28 -135v-12q0 -85 30.5 -135.5t81.5 -50.5q52 0 81.5 50t29.5 134zM1300 348v12q0 85 -30.5 136t-81.5 51q-52 0 -81.5 -50.5t-29.5 -134.5v-12q0 -85 31 -135.5t82 -50.5q52 0 81 50
t29 134z" />
    <glyph glyph-name="guilsinglleft" unicode="&#x2039;" horiz-adv-x="700" 
d="M621 199l-226 -117l-321 459v16l321 459l223 -113l-251 -352z" />
    <glyph glyph-name="guilsinglright" unicode="&#x203a;" horiz-adv-x="700" 
d="M629 541l-324 -459l-225 115l256 352l-254 350l223 117l324 -459v-16z" />
    <glyph glyph-name="fraction" unicode="&#x2044;" horiz-adv-x="925" 
d="M748 1554h258l-871 -1753h-258z" />
    <glyph glyph-name="Euro" unicode="&#x20ac;" horiz-adv-x="1263" 
d="M1196 186q-82 -102 -179 -155.5t-229 -53.5q-206 0 -346.5 124.5t-193.5 349.5h-168v198h139v144h-139v198h172q56 220 197 342.5t342 122.5q140 0 232.5 -49t168.5 -143l-166 -203q-56 65 -109.5 96t-123.5 31q-167 0 -234 -197h326v-198h-365q-2 -20 -2 -66v-18
q0 -40 2 -60h365v-198h-330q65 -205 248 -205q68 0 120 31t115 100z" />
    <glyph glyph-name="afii61352" unicode="&#x2116;" horiz-adv-x="2093" 
d="M1253 0h-256l-565 866v-866h-289v1434h273l545 -836v836h292v-1434zM2011 825q0 -157 -91 -257.5t-230 -100.5q-138 0 -228 99.5t-90 256.5v15q0 154 91.5 254t228.5 100q138 0 228.5 -99.5t90.5 -254.5v-13zM1995 199h-586v172h586v-172zM1819 825v13q0 78 -35.5 129
t-91.5 51q-59 0 -92 -49.5t-33 -128.5v-15q0 -80 35 -131t90 -51q60 0 93.5 49.5t33.5 132.5z" />
    <glyph glyph-name="trademark" unicode="&#x2122;" horiz-adv-x="1253" 
d="M1044 1212l-147 -266h-8l-146 266v-415h-135v637h148l139 -252l137 252h146v-637h-134v415zM342 1307v-510h-141v510h-156v127h451v-127h-154z" />
    <glyph glyph-name="minus" unicode="&#x2212;" 
d="M0 0v1434h1024v-1434h-1024zM166 100h694l-348 523zM100 197l351 520l-351 520v-1040zM922 197v1040l-351 -520zM512 809l348 522h-694z" />
    </font>
</defs>
</svg>
